<svg width="301" height="294" viewBox="0 0 301 294" fill="none" xmlns="http://www.w3.org/2000/svg">
<path d="M33.1115 118.057H29.4083C25.4344 118.057 21.6233 119.636 18.8133 122.446C16.0033 125.256 14.4247 129.067 14.4247 133.041V215.263C14.4247 219.237 16.0033 223.048 18.8133 225.858C21.6233 228.668 25.4344 230.247 29.4083 230.247H80.2147C84.1886 230.247 87.9997 228.668 90.8097 225.858C93.6197 223.048 95.1983 219.237 95.1983 215.263" stroke="#263238" stroke-width="1.10311" stroke-linecap="round" stroke-linejoin="round" stroke-dasharray="4.41 4.41"/>
<path d="M91.0578 40.4746V24.2338C91.0578 21.8037 92.0217 19.4728 93.7381 17.7526C95.4546 16.0323 97.7832 15.0632 100.213 15.0577H166.283C168.717 15.0577 171.051 16.0245 172.772 17.7453C174.493 19.4662 175.459 21.8001 175.459 24.2338" stroke="#263238" stroke-width="1.10311" stroke-linecap="round" stroke-linejoin="round" stroke-dasharray="4.41 4.41"/>
<path d="M150.5 293.639C222.77 293.639 281.356 285.453 281.356 275.355C281.356 265.257 222.77 257.071 150.5 257.071C78.2308 257.071 19.6447 265.257 19.6447 275.355C19.6447 285.453 78.2308 293.639 150.5 293.639Z" fill="#0382AB"/>
<path opacity="0.5" d="M150.5 293.639C222.77 293.639 281.356 285.453 281.356 275.355C281.356 265.257 222.77 257.071 150.5 257.071C78.2308 257.071 19.6447 265.257 19.6447 275.355C19.6447 285.453 78.2308 293.639 150.5 293.639Z" fill="white"/>
<path d="M273.854 62.2634V185.289C273.854 189.311 272.257 193.168 269.414 196.012C266.571 198.857 262.714 200.455 258.693 200.457H42.308C38.2863 200.455 34.43 198.857 31.5869 196.012C28.7438 193.168 27.1467 189.311 27.1467 185.289V62.2634C27.1467 61.9013 27.1467 61.5801 27.1945 61.1975C27.4609 57.3705 29.1688 53.7869 31.9736 51.1696C34.7785 48.5524 38.4716 47.0964 42.308 47.0953H258.693C262.533 47.0969 266.23 48.5567 269.036 51.1796C271.841 53.8026 273.546 57.3929 273.806 61.2248C273.84 61.5528 273.854 61.9081 273.854 62.2634Z" fill="white" stroke="#263238" stroke-width="1.10311" stroke-linecap="round" stroke-linejoin="round"/>
<path d="M34.526 66.8821H267.247V180.527C267.247 184.296 265.75 187.911 263.085 190.576C260.42 193.241 256.805 194.738 253.036 194.738H48.7444C44.9753 194.738 41.3605 193.241 38.6953 190.576C36.0301 187.911 34.5328 184.296 34.5328 180.527V66.8821H34.526Z" fill="#263238"/>
<path opacity="0.2" d="M267.254 66.8821V180.527C267.274 184.275 265.805 187.877 263.169 190.542C260.534 193.207 256.948 194.717 253.2 194.738H48.5804C44.8324 194.717 41.2464 193.207 38.6109 190.542C35.9753 187.877 34.506 184.275 34.526 180.527V66.8821H267.254Z" fill="white"/>
<path d="M273.806 61.2248H27.1948C27.4611 57.3978 29.169 53.8142 31.9739 51.197C34.7788 48.5797 38.4719 47.1237 42.3082 47.1226H258.693C262.529 47.1237 266.222 48.5797 269.027 51.197C271.832 53.8142 273.54 57.3978 273.806 61.2248Z" fill="#0382AB" stroke="#263238" stroke-width="1.10311" stroke-miterlimit="10"/>
<path d="M57.4968 54.1464C57.4968 54.6775 57.3393 55.1966 57.0443 55.6382C56.7492 56.0798 56.3299 56.4239 55.8392 56.6272C55.3486 56.8304 54.8087 56.8836 54.2878 56.78C53.7669 56.6763 53.2885 56.4206 52.9129 56.0451C52.5374 55.6696 52.2817 55.1911 52.1781 54.6702C52.0745 54.1494 52.1276 53.6095 52.3309 53.1188C52.5341 52.6282 52.8783 52.2088 53.3198 51.9138C53.7614 51.6187 54.2806 51.4612 54.8116 51.4612C55.5238 51.4612 56.2068 51.7441 56.7103 52.2477C57.2139 52.7513 57.4968 53.4342 57.4968 54.1464Z" fill="#263238"/>
<path d="M68.8523 54.1464C68.8523 54.6775 68.6948 55.1966 68.3998 55.6382C68.1047 56.0798 67.6854 56.4239 67.1947 56.6272C66.7041 56.8304 66.1642 56.8836 65.6433 56.78C65.1224 56.6763 64.644 56.4206 64.2685 56.0451C63.8929 55.6696 63.6372 55.1911 63.5336 54.6702C63.43 54.1494 63.4832 53.6095 63.6864 53.1188C63.8896 52.6282 64.2338 52.2088 64.6754 51.9138C65.1169 51.6187 65.6361 51.4612 66.1672 51.4612C66.8793 51.4612 67.5623 51.7441 68.0659 52.2477C68.5694 52.7513 68.8523 53.4342 68.8523 54.1464Z" fill="#263238"/>
<path d="M77.5228 56.8316C79.0058 56.8316 80.208 55.6294 80.208 54.1464C80.208 52.6634 79.0058 51.4612 77.5228 51.4612C76.0398 51.4612 74.8376 52.6634 74.8376 54.1464C74.8376 55.6294 76.0398 56.8316 77.5228 56.8316Z" fill="#263238"/>
<path d="M267.247 66.8821V180.527C267.247 184.296 265.75 187.911 263.085 190.576C260.42 193.241 256.805 194.738 253.036 194.738H48.7444C45.4548 194.738 42.2673 193.596 39.7255 191.508C37.1837 189.419 35.4451 186.514 34.8061 183.287V183.246C34.6325 182.346 34.5455 181.43 34.5465 180.513V66.8821H267.247Z" stroke="#263238" stroke-width="1.10311" stroke-miterlimit="10"/>
<path d="M267.029 84.4553C266.032 83.8958 264.973 83.4577 263.872 83.1503L262.594 77.4452H257.169L255.905 83.1503C254.799 83.4522 253.734 83.8905 252.735 84.4553L247.836 81.3192L244.003 85.1385L247.085 90.0374C246.521 91.0363 246.082 92.1011 245.78 93.2077L240.075 94.4717V99.8967L245.78 101.174C246.079 102.286 246.517 103.356 247.085 104.358L243.949 109.291L247.788 113.124L252.715 109.988C253.711 110.554 254.774 110.995 255.878 111.3L257.149 116.998H262.553L263.824 111.3C264.925 110.992 265.985 110.551 266.981 109.988L267.234 110.152V84.3186L267.029 84.4553ZM259.896 104.269C258.509 104.269 257.153 103.858 256 103.088C254.847 102.317 253.949 101.222 253.418 99.9404C252.888 98.6591 252.75 97.2493 253.021 95.8892C253.292 94.5292 253.96 93.2801 254.941 92.3C255.922 91.3199 257.172 90.6528 258.532 90.3831C259.892 90.1134 261.302 90.2532 262.583 90.7848C263.864 91.3164 264.958 92.216 265.728 93.3697C266.497 94.5234 266.907 95.8794 266.906 97.2662C266.906 98.1865 266.724 99.0977 266.372 99.9478C266.02 100.798 265.503 101.57 264.852 102.221C264.201 102.871 263.428 103.387 262.578 103.738C261.727 104.09 260.816 104.27 259.896 104.269Z" fill="#263238"/>
<path d="M169.256 89.9554V78.5179L157.231 75.8464C156.582 73.5228 155.665 71.2826 154.498 69.171L155.953 66.8821H99.175L100.576 69.1095C99.3944 71.2118 98.4765 73.4515 97.8427 75.778L85.8107 78.4564V89.9213L97.8427 92.6064C98.4766 94.9504 99.3944 97.2082 100.576 99.3296L93.9686 109.722L102.065 117.811L112.451 111.198C114.557 112.383 116.798 113.312 119.126 113.965L121.804 125.956H133.214L135.906 113.937C138.226 113.281 140.46 112.352 142.561 111.17L152.953 117.784L161.043 109.694L154.477 99.3023C155.641 97.1941 156.558 94.9588 157.21 92.6406L169.256 89.9554ZM127.578 99.0153C124.655 99.0153 121.797 98.1486 119.367 96.5247C116.937 94.9008 115.043 92.5926 113.924 89.8922C112.805 87.1918 112.513 84.2203 113.083 81.3535C113.653 78.4867 115.061 75.8534 117.128 73.7866C119.194 71.7197 121.828 70.3122 124.694 69.742C127.561 69.1717 130.533 69.4644 133.233 70.5829C135.934 71.7015 138.242 73.5957 139.866 76.0261C141.49 78.4564 142.356 81.3137 142.356 84.2366C142.357 86.1777 141.976 88.0998 141.233 89.8933C140.491 91.6867 139.402 93.3162 138.03 94.6887C136.657 96.0612 135.028 97.1498 133.234 97.8922C131.441 98.6346 129.519 99.0162 127.578 99.0153Z" fill="#263238"/>
<path d="M93.3674 168.495L93.8525 159.414L84.4441 156.763C84.0074 154.897 83.361 153.087 82.5174 151.366L88.202 143.385L82.1074 136.628L73.5941 141.411C71.9669 140.387 70.2267 139.555 68.4083 138.931L66.7822 129.283L57.7086 128.866L55.0849 138.302C53.2156 138.721 51.4034 139.364 49.6873 140.215L41.7138 134.537L34.9428 140.625L39.7665 149.145C38.7324 150.765 37.8974 152.504 37.2795 154.324L34.5465 154.775V167.074L36.5416 167.634C36.9555 169.506 37.5956 171.321 38.4478 173.038L34.526 178.539L34.7856 183.246V183.287L38.8373 187.776L47.3642 182.959C48.9887 184.004 50.7348 184.846 52.5638 185.467L54.1626 194.732L54.2377 195.121L63.3113 195.599L63.5504 194.732L65.9349 186.17C67.8127 185.75 69.6338 185.108 71.3599 184.257L79.3198 189.928L86.0839 183.847L81.3012 175.32C82.3257 173.702 83.1494 171.966 83.754 170.148L93.3674 168.495ZM69.2692 154.317C67.7149 152.589 65.6828 151.36 63.43 150.786C61.1772 150.212 58.8048 150.32 56.613 151.095C54.4211 151.869 52.5084 153.277 51.1167 155.139C49.7249 157.001 48.9167 159.234 48.7944 161.556C48.672 163.877 49.2409 166.183 50.4291 168.181C51.6173 170.179 53.3715 171.78 55.4697 172.781C57.5679 173.782 59.9158 174.138 62.2165 173.805C64.5172 173.471 66.6672 172.462 68.3946 170.907C70.701 168.823 72.088 165.91 72.2519 162.806C72.4158 159.702 71.3433 156.66 69.2692 154.345V154.317Z" fill="#263238"/>
<path d="M165.942 154.96C166.293 153.554 166.479 152.111 166.495 150.662L173.02 147.246L171.217 140.625L163.851 140.967C163.105 139.729 162.218 138.583 161.207 137.551L163.387 130.506L157.442 127.09L152.468 132.515C151.065 132.176 149.628 131.993 148.184 131.968L144.768 125.443L138.154 127.24L138.503 134.613C137.265 135.358 136.119 136.246 135.086 137.257L128.035 135.077L124.619 141.015L130.085 145.982C129.732 147.383 129.55 148.821 129.545 150.266L123.007 153.682L124.81 160.296L132.19 159.947C132.921 161.191 133.805 162.339 134.82 163.364L132.627 170.374L138.578 173.79L143.525 168.406C144.93 168.76 146.373 168.941 147.822 168.946L151.238 175.478L157.852 173.681L157.559 167.381L157.511 166.302C158.766 165.563 159.926 164.675 160.968 163.657L168.012 165.844L170.923 160.76L171.415 159.9L165.942 154.96ZM150.316 158.977C148.62 159.445 146.823 159.398 145.154 158.844C143.484 158.289 142.017 157.251 140.938 155.861C139.859 154.471 139.217 152.792 139.094 151.037C138.971 149.282 139.372 147.53 140.246 146.003C141.12 144.476 142.427 143.243 144.003 142.46C145.579 141.677 147.351 141.38 149.096 141.606C150.841 141.832 152.479 142.571 153.804 143.73C155.128 144.889 156.078 146.414 156.534 148.114C157.141 150.378 156.828 152.792 155.664 154.827C154.499 156.862 152.577 158.354 150.316 158.977Z" fill="#263238"/>
<path d="M241.591 166.602L243.094 157.515L233.898 153.819C233.689 151.882 233.246 149.978 232.579 148.148L239.2 140.775L233.843 133.26L224.715 137.134C223.2 135.919 221.543 134.891 219.782 134.073L219.249 124.173L210.162 122.669L206.438 131.825C204.51 132.051 202.614 132.498 200.788 133.157L193.395 126.537L185.913 131.893L189.794 141.015C188.726 142.348 187.799 143.788 187.027 145.312C186.925 145.524 186.815 145.736 186.72 145.948L176.826 146.494L175.316 155.568L176.806 156.169L184.513 159.278C184.723 161.205 185.166 163.1 185.831 164.921L179.197 172.342L184.561 179.857L193.682 175.963C195.192 177.188 196.847 178.225 198.608 179.051L199.121 188.903L208.201 190.407L211.918 181.319C213.85 181.108 215.75 180.663 217.575 179.994L224.954 186.615L232.47 181.251L228.589 172.123C229.825 170.606 230.869 168.942 231.698 167.169L241.591 166.602ZM216.106 166.192C214.194 167.564 211.919 168.338 209.567 168.416C207.216 168.494 204.894 167.873 202.895 166.632C200.896 165.391 199.311 163.584 198.339 161.442C197.367 159.299 197.052 156.916 197.434 154.594C197.817 152.273 198.879 150.117 200.487 148.399C202.094 146.681 204.175 145.479 206.467 144.944C208.758 144.409 211.156 144.565 213.359 145.393C215.561 146.221 217.468 147.684 218.839 149.596C220.675 152.161 221.418 155.351 220.903 158.463C220.388 161.575 218.657 164.356 216.092 166.192H216.106Z" fill="#263238"/>
<path d="M118.442 99.3296H46.9881C42.0411 99.3296 38.0308 103.34 38.0308 108.287V207.215C38.0308 212.162 42.0411 216.172 46.9881 216.172H118.442C123.389 216.172 127.4 212.162 127.4 207.215V108.287C127.4 103.34 123.389 99.3296 118.442 99.3296Z" fill="#0382AB" stroke="#263238" stroke-width="1.10311" stroke-miterlimit="10"/>
<path opacity="0.2" d="M118.442 99.3296H46.9881C42.0411 99.3296 38.0308 103.34 38.0308 108.287V207.215C38.0308 212.162 42.0411 216.172 46.9881 216.172H118.442C123.389 216.172 127.4 212.162 127.4 207.215V108.287C127.4 103.34 123.389 99.3296 118.442 99.3296Z" fill="black"/>
<path d="M135.715 117.115V216.042C135.716 217.219 135.485 218.384 135.035 219.472C134.585 220.56 133.926 221.548 133.094 222.38C132.262 223.213 131.274 223.873 130.187 224.324C129.1 224.774 127.934 225.006 126.757 225.006H55.3033C54.127 225.005 52.9624 224.773 51.876 224.322C50.7895 223.871 49.8026 223.21 48.9714 222.378C48.1403 221.546 47.4813 220.558 47.0319 219.47C46.5826 218.383 46.3518 217.218 46.3527 216.042V117.115C46.3527 114.74 47.2955 112.463 48.9739 110.783C50.6522 109.104 52.9288 108.159 55.3033 108.157H126.757C129.133 108.157 131.411 109.101 133.091 110.781C134.771 112.461 135.715 114.739 135.715 117.115Z" fill="white" stroke="#263238" stroke-width="1.10311" stroke-linecap="round" stroke-linejoin="round"/>
<path d="M135.715 117.115V122.41H46.3527V117.115C46.3527 114.74 47.2955 112.463 48.9739 110.783C50.6522 109.104 52.9288 108.159 55.3033 108.157H126.757C129.133 108.157 131.411 109.101 133.091 110.781C134.771 112.461 135.715 114.739 135.715 117.115Z" fill="#0382AB" stroke="#263238" stroke-width="1.10311" stroke-miterlimit="10"/>
<path d="M76.7436 128.545H54.7567V132.235H76.7436V128.545Z" fill="#0382AB"/>
<path d="M76.7436 161.608H54.7567V165.297H76.7436V161.608Z" fill="#0382AB"/>
<path d="M76.7436 191.589H54.7567V195.278H76.7436V191.589Z" fill="#0382AB"/>
<path d="M117.199 137.68H54.7567V140.386H117.199V137.68Z" fill="#263238"/>
<path d="M105.939 142.853H54.7567V145.49H105.939V142.853Z" fill="#263238"/>
<path d="M112.642 147.943H54.7567V150.58H112.642V147.943Z" fill="#263238"/>
<path d="M112.642 153.026H54.7567V155.663H112.642V153.026Z" fill="#263238"/>
<path d="M117.199 167.661H54.7567V170.367H117.199V167.661Z" fill="#263238"/>
<path d="M105.939 172.833H54.7567V175.471H105.939V172.833Z" fill="#263238"/>
<path d="M112.642 177.924H54.7567V180.561H112.642V177.924Z" fill="#263238"/>
<path d="M117.199 200.58H54.7567V203.286H117.199V200.58Z" fill="#263238"/>
<path d="M105.939 205.759H54.7567V208.397H105.939V205.759Z" fill="#263238"/>
<path d="M112.642 210.849H54.7567V213.487H112.642V210.849Z" fill="#263238"/>
<path d="M236.433 39.559V79.5427C236.433 80.9457 236.156 82.3349 235.619 83.631C235.082 84.9271 234.295 86.1047 233.302 87.0965C232.31 88.0882 231.132 88.8747 229.835 89.411C228.539 89.9472 227.149 90.2228 225.747 90.2219H133.658C132.255 90.2228 130.866 89.9472 129.569 89.411C128.273 88.8747 127.095 88.0882 126.103 87.0965C125.11 86.1047 124.323 84.9271 123.786 83.631C123.249 82.3349 122.972 80.9457 122.972 79.5427V39.559C122.974 36.7255 124.101 34.0085 126.104 32.0049C128.108 30.0013 130.825 28.8748 133.658 28.873H225.747C228.581 28.873 231.299 29.9989 233.303 32.0029C235.307 34.0069 236.433 36.7249 236.433 39.559Z" fill="white" stroke="#222221" stroke-width="1.10311" stroke-miterlimit="10"/>
<path d="M236.433 39.559V40.4746H122.972V39.559C122.974 36.7255 124.101 34.0085 126.104 32.0049C128.108 30.0013 130.825 28.8748 133.658 28.873H225.747C228.581 28.873 231.299 29.9989 233.303 32.0029C235.307 34.0069 236.433 36.7249 236.433 39.559Z" fill="#0382AB" stroke="#263238" stroke-width="1.10311" stroke-miterlimit="10"/>
<path d="M139.643 36.5869C139.414 36.8166 139.122 36.9732 138.804 37.0368C138.486 37.1004 138.156 37.0681 137.856 36.9441C137.556 36.8202 137.3 36.61 137.119 36.3402C136.939 36.0705 136.843 35.7533 136.843 35.4288C136.843 35.1043 136.939 34.7871 137.119 34.5174C137.3 34.2476 137.556 34.0374 137.856 33.9134C138.156 33.7894 138.486 33.7572 138.804 33.8208C139.122 33.8844 139.414 34.041 139.643 34.2707C139.948 34.579 140.12 34.9951 140.12 35.4288C140.12 35.8625 139.948 36.2786 139.643 36.5869Z" fill="#263238"/>
<path d="M147.241 36.5869C147.012 36.8166 146.72 36.9732 146.402 37.0368C146.084 37.1004 145.754 37.0681 145.454 36.9441C145.154 36.8202 144.898 36.61 144.717 36.3402C144.537 36.0705 144.441 35.7533 144.441 35.4288C144.441 35.1043 144.537 34.7871 144.717 34.5174C144.898 34.2476 145.154 34.0374 145.454 33.9134C145.754 33.7894 146.084 33.7572 146.402 33.8208C146.72 33.8844 147.012 34.041 147.241 34.2707C147.546 34.579 147.717 34.9951 147.717 35.4288C147.717 35.8625 147.546 36.2786 147.241 36.5869Z" fill="#263238"/>
<path d="M154.839 36.5869C154.61 36.8166 154.318 36.9732 153.999 37.0368C153.681 37.1004 153.351 37.0681 153.051 36.9441C152.752 36.8202 152.495 36.61 152.315 36.3402C152.134 36.0705 152.038 35.7533 152.038 35.4288C152.038 35.1043 152.134 34.7871 152.315 34.5174C152.495 34.2476 152.752 34.0374 153.051 33.9134C153.351 33.7894 153.681 33.7572 153.999 33.8208C154.318 33.8844 154.61 34.041 154.839 34.2707C155.144 34.579 155.315 34.9951 155.315 35.4288C155.315 35.8625 155.144 36.2786 154.839 36.5869Z" fill="#263238"/>
<path d="M167.294 47.8263H130.208V79.8844H167.294V47.8263Z" stroke="#263238" stroke-width="1.10311" stroke-linecap="round" stroke-linejoin="round" stroke-dasharray="4.41 4.41"/>
<path d="M215.703 47.8263H173.02V50.0811H215.703V47.8263Z" fill="#263238"/>
<path d="M205.762 52.4929H173.02V54.7408H205.762V52.4929Z" fill="#263238"/>
<path d="M221.77 57.139H173.02V59.4142H221.77V57.139Z" fill="#263238"/>
<path d="M214.534 61.6689H173.02V63.9442H214.534V61.6689Z" fill="#263238"/>
<path d="M239.534 138.794H218.661C216.197 138.794 214.2 140.792 214.2 143.256V155.506C214.2 157.97 216.197 159.968 218.661 159.968H239.534C241.999 159.968 243.996 157.97 243.996 155.506V143.256C243.996 140.792 241.999 138.794 239.534 138.794Z" fill="white" stroke="#263238" stroke-width="1.10311" stroke-linecap="round" stroke-linejoin="round"/>
<path d="M223.813 145.162L218.08 148.756L223.403 153.47" stroke="#263238" stroke-width="1.10311" stroke-linecap="round" stroke-linejoin="round"/>
<path d="M234.253 153.812L239.405 149.425L233.46 145.531" stroke="#263238" stroke-width="1.10311" stroke-linecap="round" stroke-linejoin="round"/>
<path d="M226.601 156.517L230.83 143.249" stroke="#263238" stroke-width="1.10311" stroke-linecap="round" stroke-linejoin="round"/>
<path d="M182.517 271.986C182.517 271.986 162.703 277.664 159.936 278.648C157.422 279.536 150.603 281.928 145.485 281.183C144.991 281.112 144.503 281.007 144.023 280.869C138.837 279.325 136.507 277.883 135.824 274.624C135.141 271.365 137.723 268.96 140.211 267.422C142.698 265.885 156.185 264.279 156.185 264.279L159.444 265.236L182.517 271.986Z" fill="#0382AB"/>
<path d="M145.485 281.183C144.991 281.112 144.503 281.007 144.023 280.869C138.837 279.325 136.507 277.883 135.824 274.624C135.141 271.365 137.723 268.96 140.211 267.422C142.698 265.885 156.185 264.279 156.185 264.279L159.444 265.236C156.492 266.602 145.506 267.347 143.107 268.727C140.709 270.108 139.555 272.704 140.969 276.243C141.727 278.088 143.75 279.898 145.485 281.183Z" fill="white"/>
<path d="M179.538 272.793C179.538 272.793 164.657 276.646 158.754 279.113C152.851 281.579 141.598 282.659 137.573 277.575C133.549 272.492 137.109 268.106 141.119 267.129C145.13 266.152 153.24 264.614 157.668 265.236" stroke="#263238" stroke-width="1.10311" stroke-linecap="round" stroke-linejoin="round"/>
<path d="M145.779 280.917C145.779 280.917 138.209 276.762 140.723 270.941C142.581 266.65 152.68 267.58 157.681 265.236" stroke="#263238" stroke-width="1.10311" stroke-linecap="round" stroke-linejoin="round"/>
<path d="M242.869 282.105C242.664 284.155 241.946 286.075 239.896 287.284C238.53 288.091 236.59 288.569 233.809 288.542C226.86 288.453 213.796 283.486 213.796 283.486L201.566 276.721L207.927 266.657L209.67 263.924L214.165 264.935C214.165 264.935 217.889 267.047 221.633 268.727C225.377 270.408 234.471 270.777 237.676 273.353C240.88 275.929 243.217 278.73 242.869 282.105Z" fill="#0382AB"/>
<path d="M242.869 282.105C242.664 284.155 241.946 286.075 239.897 287.284C240.487 285.269 240.366 283.113 239.555 281.176C238.188 278.108 233.74 275.403 227.892 274.952C222.043 274.501 217.568 271.768 215.224 270.545C213.393 269.595 209.533 267.518 207.927 266.657L209.67 263.924L214.165 264.935C214.165 264.935 217.889 267.047 221.633 268.727C225.377 270.408 234.472 270.777 237.676 273.353C240.88 275.929 243.217 278.73 242.869 282.105Z" fill="white"/>
<path d="M204.279 278.621C213.082 283.738 222.812 287.061 232.907 288.398C235.134 288.665 237.724 288.706 239.213 287.032C239.609 286.548 239.904 285.99 240.08 285.39C240.257 284.79 240.31 284.161 240.238 283.54C239.972 280.397 237.327 277.91 234.43 276.66C231.533 275.41 228.343 275.123 225.261 274.433C222.197 273.742 219.234 272.658 216.447 271.208C214.234 270.053 212.095 268.652 209.656 268.133C207.217 267.614 204.313 268.242 203.008 270.374" stroke="#263238" stroke-width="1.10311" stroke-linecap="round" stroke-linejoin="round"/>
<path d="M238.393 287.886C239.538 287.338 240.539 286.529 241.316 285.526C242.093 284.522 242.625 283.351 242.869 282.105C243.313 279.147 241.625 276.168 239.254 274.351C236.883 272.533 233.911 271.672 230.98 271.064C228.049 270.456 225.05 270.046 222.241 268.932C217.957 267.252 213.728 263.945 209.26 265.127" stroke="#263238" stroke-width="1.10311" stroke-linecap="round" stroke-linejoin="round"/>
<path d="M218.08 172.772L197.385 164.901L197.125 164.798C197.125 164.798 197.2 164.252 197.262 163.432C197.392 161.779 197.46 159.087 196.681 158.178C195.526 156.811 192.26 157.959 189.07 156.497C185.879 155.035 179.982 157.652 179.982 157.652C179.982 157.652 175.719 156.866 173.833 159.941C172.877 162.421 173.205 166.09 173.205 166.09L172.815 166.226C170.349 167.149 156.93 172.198 154.094 174.227C150.958 176.448 147.487 199.248 146.373 205.944C145.26 212.64 143.278 218.673 144.283 220.975C145.287 223.278 159.704 234.38 167.998 237.243C176.293 240.106 205.707 239.293 205.707 239.293C205.707 239.293 206.185 239.163 207.039 238.89C212.013 237.291 229.661 230.691 239.029 215.195C239.042 215.222 229.969 185.48 218.08 172.772ZM162.163 211.123C160.64 212.202 161.48 216.384 161.48 216.384L158.891 214.102L165.395 198.107L168.169 210.405C168.169 210.405 163.687 210.05 162.163 211.123ZM214.199 221.283C213.482 221.652 216.249 213.965 214.937 212.223C213.626 210.48 209.67 210.644 209.67 210.644L210.004 208.547L212.348 196.522L213.127 195.599C213.127 195.599 221.175 209.394 222.617 214.259C222.617 214.272 213.844 221.283 214.199 221.283Z" fill="#0382AB"/>
<path d="M179.005 122.888L168.319 134.23C168.319 134.23 166.85 135.535 167.431 138.821C168.012 142.108 169.378 144.971 170.41 145.162C171.227 145.305 172.054 145.378 172.883 145.381C172.883 145.381 175.172 150.341 176.798 152.288C176.798 152.288 177.359 159.947 177.058 162.072C177.058 162.072 180.898 165.427 184.512 165.851C188.127 166.274 193.709 160.74 193.709 160.74L195.075 153.962C195.075 153.962 198.355 148.988 198.574 147.663C198.792 146.337 200.295 146.679 201.033 146.023C201.771 145.367 203.472 142.449 203.766 139.689C204.06 136.929 204.067 133.759 200.862 134.688C198.082 133.943 199.824 128.067 199.824 128.067L194.939 123.763L179.005 122.888Z" fill="white"/>
<path opacity="0.5" d="M197.385 164.901C197.224 165.323 197.039 165.736 196.831 166.138C195.069 169.458 187.389 175.792 187.389 175.792L185.066 168.652L183.795 175.792C181.233 174.671 173.416 167.9 173.416 167.9C173.416 167.9 173.15 167.265 172.829 166.274L173.218 166.138C173.218 166.138 172.89 162.441 173.847 159.988C175.719 156.914 179.996 157.7 179.996 157.7C179.996 157.7 185.893 155.083 189.083 156.545C192.274 158.007 195.54 156.873 196.695 158.226C197.849 159.578 197.139 164.826 197.139 164.826L197.385 164.901Z" fill="white"/>
<path opacity="0.2" d="M218.08 172.772L197.385 164.901L197.125 164.798C197.125 164.798 197.2 164.252 197.262 163.432L196.831 166.117L193.77 170.271C197.042 171.476 200.237 172.882 203.336 174.48C204.819 175.275 206.03 176.497 206.809 177.989C207.589 179.48 207.902 181.171 207.709 182.843L203.896 215.468L202.331 233.991L207.053 238.89C212.027 237.291 229.675 230.691 239.042 215.195C239.042 215.222 229.969 185.48 218.08 172.772ZM214.199 221.283C213.482 221.652 216.249 213.965 214.937 212.223C213.625 210.48 209.669 210.644 209.669 210.644L210.004 208.547L212.348 196.522L213.127 195.599C213.127 195.599 221.175 209.394 222.617 214.259C222.617 214.272 213.844 221.283 214.199 221.283Z" fill="black"/>
<path opacity="0.2" d="M169.542 212.223L166.324 201.468C166.324 201.468 160.551 181.784 156.595 176.933L157.633 190.776C157.633 190.776 154.217 207.31 151.095 212.223C147.972 217.135 147.275 218.372 151.095 218.372C154.914 218.372 164.213 225.778 164.213 225.778L163.496 219.629L169.542 212.223ZM161.432 216.384L158.843 214.102L165.347 198.107L168.121 210.405C168.121 210.405 163.666 210.071 162.143 211.143C160.619 212.216 161.432 216.384 161.432 216.384Z" fill="black"/>
<path d="M176.798 152.288C176.798 152.288 177.386 158.089 176.798 160.74" stroke="#263238" stroke-width="1.10311" stroke-linecap="round" stroke-linejoin="round"/>
<path d="M194.303 159.961C194.31 158.096 194.525 156.237 194.945 154.42" stroke="#263238" stroke-width="1.10311" stroke-linecap="round" stroke-linejoin="round"/>
<path d="M195.854 127.213C195.854 127.213 199.366 131.62 199.182 134.954C198.997 138.288 198.738 142.238 198.826 146.105C198.915 149.972 192.616 158.075 189.377 158.793C186.139 159.51 183.351 159.695 181.281 157.624C179.21 155.554 177.14 152.678 174.448 148.988C171.756 145.299 172.398 137.202 172.398 137.202" stroke="#263238" stroke-width="1.10311" stroke-linecap="round" stroke-linejoin="round"/>
<path d="M187.396 140.284C187.182 141.494 187.09 142.723 187.122 143.953C187.052 144.988 187.374 146.013 188.024 146.822C188.414 147.218 188.974 147.54 189.049 148.086C189.047 148.332 188.979 148.573 188.852 148.784C188.724 148.994 188.542 149.166 188.325 149.282C187.887 149.503 187.464 149.754 187.061 150.033" stroke="#263238" stroke-width="1.10311" stroke-linecap="round" stroke-linejoin="round"/>
<path d="M181.841 150.457C181.841 150.457 182.244 153.074 185.749 153.621" stroke="#263238" stroke-width="1.10311" stroke-linecap="round" stroke-linejoin="round"/>
<path d="M182.203 142.279C182.203 143.037 181.875 143.645 181.472 143.645C181.069 143.645 180.741 143.037 180.741 142.279C180.741 141.52 181.069 140.912 181.472 140.912C181.875 140.912 182.203 141.527 182.203 142.279Z" fill="#263238"/>
<path d="M192.664 142.607C192.664 143.365 192.336 143.973 191.932 143.973C191.529 143.973 191.201 143.358 191.201 142.607C191.201 141.855 191.529 141.24 191.932 141.24C192.336 141.24 192.664 141.848 192.664 142.607Z" fill="#263238"/>
<path d="M190.552 139.293C190.552 139.293 193.968 135.877 196.831 139.689" stroke="#263238" stroke-width="2.20621" stroke-linecap="round" stroke-linejoin="round"/>
<path d="M183.358 139.361C183.358 139.361 181.199 136.942 177.796 139.361" stroke="#263238" stroke-width="2.20621" stroke-linecap="round" stroke-linejoin="round"/>
<path d="M177.058 155.513C177.058 155.513 179.142 161.252 183.795 162.885C188.448 164.518 194.624 156.053 194.624 156.053L194.303 154.953C194.303 154.953 190.252 160.214 185.749 159.319C181.246 158.424 176.798 152.316 176.798 152.316L177.058 155.513Z" fill="#263238"/>
<path d="M172.883 145.162C172.883 145.162 170.109 146.139 169.372 143.98C168.634 141.821 166.106 136.129 168.319 134.23C170.533 132.33 172.309 136.737 172.309 136.737" stroke="#263238" stroke-width="1.10311" stroke-linecap="round" stroke-linejoin="round"/>
<path d="M198.82 146.337C198.82 146.337 201.395 146.856 202.133 144.697C202.871 142.538 205.399 136.847 203.186 134.947C200.972 133.048 199.195 137.455 199.195 137.455" stroke="#263238" stroke-width="1.10311" stroke-linecap="round" stroke-linejoin="round"/>
<path d="M172.309 142.279C173.273 142.127 174.143 141.614 174.742 140.844C175.108 140.168 175.34 139.428 175.425 138.664C175.679 137.211 175.807 135.739 175.808 134.264C175.778 133.688 175.831 133.11 175.965 132.549C176.17 131.984 176.486 131.466 176.894 131.025C177.857 129.891 179.026 128.935 179.948 127.76C180.443 127.205 180.819 126.555 181.054 125.851C181.289 125.146 181.377 124.4 181.315 123.66C183.428 125.403 185.898 126.661 188.551 127.347C191.203 128.033 193.974 128.13 196.667 127.63C201.553 126.673 206.233 122.389 205.666 117.005C205.559 116.103 205.171 115.256 204.559 114.585C203.946 113.913 203.139 113.45 202.249 113.261C199.838 112.66 197.672 113.944 195.485 114.771C191.502 116.274 187.601 113.691 183.576 113.261C180.16 112.885 175.903 113.316 174.113 116.739C174.113 116.739 167.964 117.463 165.231 122.546C162.498 127.63 167.67 134.66 167.67 134.66C167.67 134.66 169.72 132.146 172.405 137.229L172.309 142.279Z" fill="#263238"/>
<path d="M196.278 125.915C196.278 125.915 194.679 134.25 198.854 138.288C198.854 138.288 199.769 135.781 200.692 135.166C201.357 133.687 201.638 132.064 201.511 130.447C201.383 128.83 200.85 127.271 199.961 125.915C196.872 121.064 196.278 125.915 196.278 125.915Z" fill="#263238"/>
<path opacity="0.2" d="M203.889 116.431C203.523 117.569 202.901 118.607 202.072 119.468C201.244 120.329 200.229 120.989 199.106 121.399C193.313 123.763 187.689 121.146 181.882 120.633C177.147 120.21 171.92 124.487 171.585 129.352" stroke="white" stroke-width="1.10311" stroke-linecap="round" stroke-linejoin="round"/>
<path opacity="0.2" d="M168.012 128.067C168.083 126.147 168.699 124.287 169.788 122.705C170.877 121.122 172.394 119.882 174.161 119.13" stroke="white" stroke-width="1.10311" stroke-linecap="round" stroke-linejoin="round"/>
<path d="M175.459 159.961C178.007 162.616 181.081 164.711 184.485 166.11C184.485 166.11 191.42 164.095 194.946 159.278" stroke="#263238" stroke-width="1.10311" stroke-linecap="round" stroke-linejoin="round"/>
<path d="M182.546 147.842C185.626 146.429 186.978 142.787 185.565 139.707C184.153 136.627 180.51 135.275 177.43 136.688C174.35 138.101 172.999 141.743 174.411 144.823C175.824 147.903 179.466 149.255 182.546 147.842Z" stroke="#263238" stroke-width="1.10311" stroke-linecap="round" stroke-linejoin="round"/>
<path d="M194.436 148.382C197.799 147.969 200.191 144.908 199.778 141.544C199.365 138.181 196.304 135.789 192.94 136.202C189.577 136.615 187.185 139.677 187.598 143.04C188.011 146.403 191.072 148.795 194.436 148.382Z" stroke="#263238" stroke-width="1.10311" stroke-linecap="round" stroke-linejoin="round"/>
<path d="M176.798 157.672C176.177 157.835 175.594 158.122 175.086 158.515C174.578 158.909 174.154 159.4 173.84 159.961C172.754 161.874 173.41 167.894 173.41 167.894C173.41 167.894 179.019 173.442 183.795 175.785L185.202 167.866L187.389 175.785C187.389 175.785 194.782 170.558 196.831 166.138C196.831 166.138 197.515 160.979 196.831 159.305C196.676 158.84 196.38 158.435 195.985 158.145C195.59 157.855 195.114 157.694 194.624 157.686" stroke="#263238" stroke-width="1.10311" stroke-linecap="round" stroke-linejoin="round"/>
<path d="M168.012 210.651C168.012 210.651 165.819 195.961 162.901 189.969" stroke="#263238" stroke-width="1.10311" stroke-linecap="round" stroke-linejoin="round"/>
<path d="M156.595 176.933C158.293 179.347 159.81 181.884 161.132 184.524" stroke="#263238" stroke-width="1.10311" stroke-linecap="round" stroke-linejoin="round"/>
<path d="M214.2 187.899C214.789 185.443 215.596 183.044 216.611 180.732" stroke="#263238" stroke-width="1.10311" stroke-linecap="round" stroke-linejoin="round"/>
<path d="M209.669 210.651C209.669 210.651 211.248 200.58 213.134 192.286" stroke="#263238" stroke-width="1.10311" stroke-linecap="round" stroke-linejoin="round"/>
<path d="M212.348 196.508C213.873 194.485 216.019 193.017 218.456 192.327" stroke="#263238" stroke-width="1.10311" stroke-linecap="round" stroke-linejoin="round"/>
<path d="M197.132 164.798C197.132 164.798 209.861 169.889 218.08 172.779C218.08 172.779 228.192 182.283 239.036 215.222C239.036 215.222 229.101 231.934 210.203 237.291" stroke="#263238" stroke-width="1.10311" stroke-linecap="round" stroke-linejoin="round"/>
<path d="M213.482 221.877L222.617 214.272C222.617 214.272 227.448 210.603 232.47 213.111" stroke="#263238" stroke-width="1.10311" stroke-linecap="round" stroke-linejoin="round"/>
<path d="M213.134 195.599C213.134 195.599 220.683 206.757 222.617 214.272" stroke="#263238" stroke-width="1.10311" stroke-linecap="round" stroke-linejoin="round"/>
<path d="M161.535 216.807L158.863 214.272C158.863 214.272 154.9 213.589 150.405 216.589" stroke="#263238" stroke-width="1.10311" stroke-linecap="round" stroke-linejoin="round"/>
<path d="M158.863 214.272C158.863 214.272 162.184 203.34 165.457 197.745" stroke="#263238" stroke-width="1.10311" stroke-linecap="round" stroke-linejoin="round"/>
<path d="M173.218 166.138C173.218 166.138 154.9 173.011 153.103 175.02C151.306 177.029 144.481 215.461 144.296 219.861C144.139 223.797 158.405 232.631 165.477 236.355" stroke="#263238" stroke-width="1.10311" stroke-linecap="round" stroke-linejoin="round"/>
<path d="M186.917 179.126C186.917 179.365 186.846 179.599 186.714 179.798C186.581 179.997 186.392 180.152 186.171 180.243C185.95 180.335 185.707 180.359 185.472 180.312C185.238 180.266 185.022 180.15 184.853 179.981C184.684 179.812 184.569 179.597 184.522 179.362C184.475 179.128 184.499 178.884 184.591 178.663C184.682 178.442 184.837 178.254 185.036 178.121C185.235 177.988 185.469 177.917 185.708 177.917C185.867 177.916 186.025 177.947 186.172 178.007C186.319 178.068 186.453 178.157 186.565 178.269C186.678 178.381 186.767 178.515 186.827 178.662C186.888 178.809 186.918 178.967 186.917 179.126Z" fill="#263238"/>
<path d="M208.112 243.502H166.434C166.174 243.502 165.926 243.399 165.743 243.216C165.559 243.032 165.456 242.784 165.456 242.525C165.456 242.266 165.559 242.017 165.743 241.834C165.926 241.651 166.174 241.548 166.434 241.548H208.112C208.371 241.548 208.619 241.651 208.803 241.834C208.986 242.017 209.089 242.266 209.089 242.525C209.089 242.784 208.986 243.032 208.803 243.216C208.619 243.399 208.371 243.502 208.112 243.502Z" fill="#263238"/>
<path d="M209.574 240.236L215.156 213.999C215.243 213.592 215.237 213.171 215.14 212.767C215.043 212.363 214.856 211.985 214.594 211.662C214.332 211.339 214.001 211.079 213.625 210.9C213.25 210.722 212.839 210.63 212.423 210.631H163.707C163.295 210.631 162.888 210.722 162.515 210.899C162.142 211.075 161.813 211.332 161.552 211.651C161.291 211.97 161.103 212.343 161.003 212.743C160.903 213.143 160.894 213.561 160.974 213.965L165.983 239.327C166.105 239.95 166.437 240.512 166.923 240.921C167.409 241.33 168.019 241.561 168.654 241.575L206.773 242.45C207.424 242.464 208.06 242.251 208.572 241.847C209.083 241.443 209.437 240.873 209.574 240.236Z" fill="white" stroke="#263238" stroke-width="1.10311" stroke-linecap="round" stroke-linejoin="round"/>
<path d="M191.796 225.772C191.794 226.54 191.565 227.291 191.137 227.93C190.709 228.568 190.102 229.065 189.391 229.358C188.681 229.652 187.899 229.728 187.145 229.577C186.392 229.426 185.7 229.055 185.157 228.511C184.614 227.967 184.244 227.275 184.095 226.521C183.945 225.767 184.023 224.985 184.317 224.275C184.611 223.565 185.11 222.959 185.749 222.532C186.388 222.105 187.14 221.877 187.908 221.877C188.419 221.877 188.925 221.978 189.397 222.174C189.87 222.369 190.298 222.656 190.66 223.018C191.021 223.38 191.307 223.809 191.502 224.282C191.697 224.754 191.797 225.26 191.796 225.772Z" fill="#263238"/>
<path d="M199.441 213.138H205.228" stroke="#263238" stroke-width="1.10311" stroke-linecap="round" stroke-linejoin="round"/>
<path d="M171.804 213.138H193.77" stroke="#263238" stroke-width="1.10311" stroke-linecap="round" stroke-linejoin="round"/>
<path d="M209.67 268.092L205.228 279.748C205.228 279.748 193.9 276.892 179.395 273.92C164.22 270.811 148.375 266.787 140.156 252.364C139.158 250.608 138.489 248.531 138.96 246.563C140.142 241.582 146.626 240.229 150.897 239.73C153.581 239.44 156.279 239.289 158.979 239.279C160.346 239.279 164.889 238.535 165.989 239.348C167.642 240.553 169.406 241.599 171.257 242.47C173.683 243.502 209.089 241.548 209.089 241.548C209.705 240.204 210.082 238.764 210.202 237.291C215.771 234.462 228.65 232.071 234.116 233.13C242.677 234.79 247.672 239.785 246.722 245.019C245.772 250.252 226.86 264.286 209.67 268.092Z" fill="#263238"/>
<path d="M209.67 268.092C209.67 268.092 198.895 265.236 190.095 259.292C181.294 253.347 174.421 246.447 162.156 247.875" stroke="white" stroke-width="1.10311" stroke-linecap="round" stroke-linejoin="round"/>
<path d="M188.079 257.891C193.641 256.292 197.72 252.692 202.181 249.241C206.887 245.464 211.941 242.143 217.274 239.32" stroke="white" stroke-width="1.10311" stroke-linecap="round" stroke-linejoin="round"/>
<path d="M186.118 143.249H187.751" stroke="#263238" stroke-width="1.10311" stroke-linecap="round" stroke-linejoin="round"/>
</svg>
