<svg width="150" height="152" viewBox="0 0 150 152" fill="none" xmlns="http://www.w3.org/2000/svg">
<path d="M78.2051 151.711C117.856 151.711 150 150.065 150 148.035C150 146.005 117.856 144.359 78.2051 144.359C38.5538 144.359 6.41016 146.005 6.41016 148.035C6.41016 150.065 38.5538 151.711 78.2051 151.711Z" fill="#0091BF"/>
<path opacity="0.3" d="M78.2051 151.711C117.856 151.711 150 150.065 150 148.035C150 146.005 117.856 144.359 78.2051 144.359C38.5538 144.359 6.41016 146.005 6.41016 148.035C6.41016 150.065 38.5538 151.711 78.2051 151.711Z" fill="white"/>
<path d="M147.249 92.3439H145.004H43.6361H41.3906V96.8308H43.6361V142.466H145.004V96.8308H147.249V92.3439Z" fill="#0091BF"/>
<path opacity="0.5" d="M147.249 92.3439H145.004H43.6361H41.3906V96.8308H43.6361V142.466H145.004V96.8308H147.249V92.3439Z" fill="white"/>
<path d="M46.3491 116.188H73.996V101.437H46.3491V116.188ZM46.9105 101.977H73.4182V115.631H46.9105V101.977Z" fill="white"/>
<path d="M80.6836 116.188H108.335V101.437H80.6836V116.188ZM81.245 101.977H107.773V115.631H81.245V101.977Z" fill="white"/>
<path d="M115.021 101.416V116.168H142.668V101.416H115.021ZM142.106 115.631H115.582V101.977H142.106V115.631Z" fill="white"/>
<path d="M46.3491 136.017H73.996V121.24H46.3491V136.017ZM46.9105 121.802H73.4182V135.455H46.9105V121.802Z" fill="white"/>
<path d="M80.6836 136.017H108.335V121.24H80.6836V136.017ZM81.245 121.802H107.773V135.455H81.245V121.802Z" fill="white"/>
<path d="M115.021 136.017H142.668V121.24H115.021V136.017ZM115.582 121.802H142.106V135.455H115.582V121.802Z" fill="white"/>
<path d="M60.4688 107.304C57.9898 107.304 55.9614 108.058 55.9614 108.988C55.9614 109.919 57.9734 110.673 60.4688 110.673C62.9643 110.673 64.9558 109.919 64.9558 108.988C64.9558 108.058 62.9479 107.304 60.4688 107.304Z" fill="white"/>
<path d="M94.6393 107.304C92.1602 107.304 90.1318 108.058 90.1318 108.988C90.1318 109.919 92.1438 110.673 94.6393 110.673C97.1347 110.673 99.1262 109.919 99.1262 108.988C99.1262 108.058 97.1183 107.304 94.6393 107.304Z" fill="white"/>
<path d="M129.801 110.673C132.26 110.673 134.288 109.919 134.288 108.988C134.288 108.058 132.28 107.304 129.801 107.304C127.322 107.304 125.294 108.058 125.294 108.988C125.294 109.919 127.322 110.673 129.801 110.673Z" fill="white"/>
<path d="M60.4689 130.497C62.9469 130.497 64.9558 129.743 64.9558 128.813C64.9558 127.883 62.9469 127.129 60.4689 127.129C57.9908 127.129 55.9819 127.883 55.9819 128.813C55.9819 129.743 57.9908 130.497 60.4689 130.497Z" fill="white"/>
<path d="M94.6393 130.497C97.1173 130.497 99.1262 129.743 99.1262 128.813C99.1262 127.883 97.1173 127.129 94.6393 127.129C92.1612 127.129 90.1523 127.883 90.1523 128.813C90.1523 129.743 92.1612 130.497 94.6393 130.497Z" fill="white"/>
<path d="M129.801 130.497C132.279 130.497 134.288 129.743 134.288 128.813C134.288 127.883 132.279 127.129 129.801 127.129C127.323 127.129 125.314 127.883 125.314 128.813C125.314 129.743 127.323 130.497 129.801 130.497Z" fill="white"/>
<path d="M24.4971 96.7532C24.4971 96.7532 24.8413 95.4952 24.8536 95.4133C24.9847 94.4585 24.6815 92.5449 23.7062 92.0655C23.5427 91.9916 23.3655 91.9531 23.1861 91.9525C23.0067 91.9519 22.8292 91.9892 22.6652 92.0619C22.5012 92.1346 22.3544 92.2412 22.2344 92.3745C22.1144 92.5079 22.0239 92.6651 21.9688 92.8358C21.7107 93.5488 22.0385 94.4298 22.4319 95.0322C22.8908 95.7452 24.493 96.7532 24.4971 96.7532Z" fill="#0091BF"/>
<path d="M5.97886 101.826C6.79839 101.945 8.47433 101.453 8.60955 101.416C8.88654 102.383 9.2288 103.331 9.63396 104.252C9.86753 104.793 10.1175 105.325 10.3756 105.862C10.224 105.633 10.0806 105.432 10.0601 105.407C9.42908 104.678 7.78183 103.641 6.782 104.063C6.61847 104.138 6.47256 104.246 6.35377 104.381C6.23498 104.516 6.14601 104.675 6.09264 104.847C6.03927 105.018 6.02272 105.199 6.04407 105.378C6.06542 105.556 6.12418 105.728 6.21652 105.883C6.58531 106.551 7.44582 106.878 8.1752 106.985C8.90458 107.091 10.3511 106.702 10.7321 106.575C10.8346 106.78 10.9329 106.985 11.0354 107.186C11.523 108.161 12.0188 109.132 12.4695 110.099C12.6334 110.443 12.7769 110.783 12.9244 111.124C12.7851 110.923 12.6703 110.755 12.6498 110.714C12.0188 109.984 10.3715 108.948 9.37171 109.37C9.20552 109.444 9.05727 109.554 8.93695 109.691C8.81663 109.827 8.72704 109.988 8.67423 110.163C8.62142 110.337 8.6066 110.521 8.63079 110.701C8.65497 110.882 8.7176 111.055 8.81443 111.21C9.18322 111.878 10.0437 112.209 10.7731 112.312C11.5025 112.414 12.8219 112.066 13.2604 111.939C13.3997 112.291 13.539 112.648 13.6702 112.996C13.748 113.238 13.8382 113.463 13.8996 113.709C13.9611 113.955 14.0348 114.189 14.1004 114.426C14.211 114.889 14.3299 115.365 14.4241 115.815C14.4938 116.131 14.5552 116.434 14.6167 116.733C14.461 116.393 14.1455 115.733 14.1127 115.68C13.5964 114.861 12.1253 113.59 11.0804 113.857C10.9093 113.908 10.7507 113.994 10.6149 114.11C10.4791 114.225 10.369 114.368 10.2918 114.529C10.2146 114.69 10.172 114.866 10.1666 115.044C10.1613 115.223 10.1934 115.4 10.2609 115.565C10.5232 116.278 11.3427 116.737 12.0311 116.95C12.7892 117.18 14.4692 116.971 14.6782 116.95C14.7765 117.45 14.8708 117.942 14.9527 118.405C15.2355 120.007 15.4076 121.351 15.5182 122.294C15.5387 122.462 15.5551 122.613 15.5674 122.753H12.3179L13.3382 142.61H19.2102L20.2305 122.753H17.2023C17.2228 122.708 17.2474 122.663 17.2679 122.613C17.6777 121.749 18.2595 120.503 18.8824 118.983C19.079 118.503 19.2921 117.987 19.4847 117.45C19.6896 117.495 21.3491 117.831 22.1236 117.659C22.8284 117.5 23.6766 117.102 23.9921 116.405C24.0716 116.245 24.1163 116.069 24.1234 115.89C24.1305 115.711 24.0998 115.532 24.0333 115.365C23.9668 115.199 23.8661 115.048 23.7376 114.923C23.609 114.798 23.4556 114.701 23.2873 114.639C22.2629 114.295 20.7017 115.459 20.128 116.233C20.0953 116.283 19.7838 116.819 19.5913 117.159C19.6732 116.942 19.7552 116.75 19.8371 116.508C20.001 116.061 20.1485 115.61 20.3124 115.127C20.3821 114.893 20.4559 114.656 20.5255 114.414C20.5952 114.172 20.6525 113.918 20.7181 113.668C20.8574 113.082 20.9722 112.484 21.0705 111.878C21.4598 112.017 22.853 112.504 23.5742 112.451C24.2954 112.398 25.2132 112.14 25.623 111.501C25.7272 111.355 25.7996 111.189 25.8355 111.014C25.8714 110.839 25.87 110.658 25.8313 110.483C25.7927 110.308 25.7177 110.144 25.6112 110C25.5047 109.856 25.3691 109.736 25.2132 109.648C24.2544 109.153 22.5334 110.058 21.8532 110.747C21.8081 110.788 21.3737 111.328 21.1402 111.632C21.1975 111.267 21.2549 110.906 21.3 110.534C21.4352 109.464 21.5376 108.374 21.6401 107.292C21.6729 106.956 21.7097 106.628 21.7466 106.297C21.8818 106.35 23.525 106.96 24.3363 106.903C25.0534 106.854 25.9754 106.587 26.3852 105.952C26.4888 105.806 26.5608 105.64 26.5963 105.465C26.6319 105.289 26.6304 105.108 26.5918 104.933C26.5532 104.759 26.4784 104.594 26.3722 104.449C26.2661 104.305 26.1309 104.185 25.9754 104.096C25.0124 103.604 23.2955 104.506 22.6112 105.194C22.558 105.248 21.9351 106.014 21.7917 106.235C21.8695 105.506 21.9515 104.78 22.0662 104.067C22.2115 103.099 22.4182 102.141 22.685 101.199C22.7505 101.224 24.4634 101.871 25.2911 101.814C26.0082 101.76 26.9097 101.498 27.3399 100.859C27.4427 100.712 27.5134 100.545 27.5474 100.369C27.5815 100.193 27.5781 100.012 27.5375 99.837C27.4969 99.6623 27.4201 99.4981 27.3119 99.3551C27.2037 99.2121 27.0667 99.0934 26.9097 99.0068C25.9508 98.511 24.2298 99.4166 23.5455 100.105C23.5004 100.15 23.0251 100.744 22.8038 101.035L22.7505 101.006C23.0447 100.071 23.4232 99.1646 23.8815 98.2979C24.1274 97.8185 24.3896 97.3719 24.6519 96.9416C24.9592 97.0973 26.3688 97.7816 27.1104 97.8103C27.8521 97.839 28.7495 97.6751 29.2371 97.085C29.3556 96.9508 29.4445 96.793 29.4979 96.6221C29.5514 96.4512 29.5682 96.271 29.5473 96.0932C29.5265 95.9153 29.4683 95.7439 29.3768 95.59C29.2852 95.4361 29.1622 95.3033 29.0158 95.2001C28.1144 94.6018 26.3073 95.3189 25.5533 95.9213C25.5124 95.9541 25.1436 96.331 24.8567 96.6097C24.9797 96.4171 25.1026 96.2204 25.2255 96.0401C25.6763 95.3599 26.1311 94.7616 26.5368 94.2412C26.7744 93.9421 26.9916 93.6799 27.1965 93.4217C27.5776 93.4217 29.1019 93.3685 29.7698 93.0529C30.4377 92.7374 31.1671 92.176 31.3269 91.4139C31.37 91.2396 31.3758 91.0583 31.3442 90.8817C31.3125 90.705 31.244 90.537 31.1431 90.3886C31.0422 90.2402 30.9112 90.1147 30.7586 90.0202C30.6061 89.9257 30.4353 89.8645 30.2574 89.8404C29.1839 89.7256 27.9095 91.1967 27.5161 92.0777C27.4833 92.1555 27.1063 93.4053 27.1063 93.4053H27.1268C26.926 93.6348 26.7171 93.8848 26.4794 94.1634C26.0696 94.6797 25.5902 95.2657 25.1231 95.9377C24.6088 96.6573 24.138 97.4072 23.7135 98.1832C23.2345 99.0476 22.8328 99.9526 22.5129 100.888V100.925C22.5129 100.609 22.5129 99.7239 22.5129 99.6542C22.39 98.6995 21.5868 96.9252 20.5255 96.7285C20.3482 96.7 20.1669 96.7094 19.9934 96.7559C19.82 96.8024 19.6583 96.885 19.519 96.9984C19.3797 97.1117 19.266 97.2533 19.1852 97.4137C19.1044 97.5741 19.0585 97.7497 19.0504 97.9291C18.9889 98.6872 19.5421 99.4494 20.0789 99.9288C20.6853 100.47 22.3654 100.994 22.5006 101.035C22.1967 101.996 21.9585 102.976 21.7876 103.969C21.6852 104.547 21.5991 105.133 21.5212 105.719C21.5212 105.444 21.5212 105.198 21.5212 105.166C21.3983 104.211 20.5993 102.437 19.538 102.24C19.3608 102.212 19.1797 102.222 19.0065 102.269C18.8333 102.315 18.6719 102.398 18.5328 102.511C18.3936 102.625 18.2799 102.766 18.1989 102.926C18.118 103.086 18.0716 103.261 18.0628 103.44C18.0014 104.199 18.5505 104.961 19.0872 105.44C19.624 105.92 21.0582 106.403 21.4352 106.522L21.3491 107.202C21.2221 108.284 21.0951 109.366 20.9394 110.423C20.882 110.796 20.8165 111.16 20.7509 111.525C20.7509 111.283 20.7509 111.078 20.7509 111.05C20.628 110.091 19.8248 108.317 18.7635 108.12C18.5863 108.092 18.4052 108.102 18.232 108.149C18.0588 108.196 17.8974 108.278 17.7583 108.391C17.6192 108.505 17.5054 108.646 17.4245 108.806C17.3435 108.966 17.2971 109.141 17.2884 109.321C17.2269 110.083 17.776 110.841 18.3169 111.324C18.8578 111.808 20.1444 112.238 20.5952 112.382C20.5173 112.754 20.4395 113.127 20.3452 113.484C20.2756 113.73 20.2264 113.967 20.1444 114.205C20.0625 114.443 19.9887 114.68 19.915 114.914C19.7511 115.361 19.5872 115.824 19.4192 116.254C19.3044 116.553 19.1856 116.84 19.0709 117.127C19.1282 116.754 19.2307 116.028 19.2307 115.967C19.22 115.119 18.9914 114.288 18.5668 113.553C18.5682 113.459 18.5613 113.364 18.5464 113.271C18.5241 113.093 18.4646 112.921 18.3719 112.768C18.2791 112.614 18.155 112.482 18.0078 112.38C17.8605 112.277 17.6934 112.207 17.5172 112.174C17.341 112.14 17.1597 112.144 16.9851 112.185C15.9402 112.464 15.2805 114.295 15.2314 115.258C15.2314 115.315 15.2641 115.934 15.2928 116.323C15.2436 116.098 15.1945 115.877 15.1371 115.643C15.0265 115.184 14.9035 114.725 14.7724 114.234C14.7028 113.996 14.629 113.758 14.5593 113.521C14.4897 113.283 14.3913 113.033 14.3053 112.787C14.1004 112.226 13.8627 111.664 13.6128 111.103C14.0225 111.005 15.4444 110.64 16.0181 110.202C16.5918 109.763 17.1982 109.046 17.19 108.284C17.1952 108.105 17.1625 107.926 17.0943 107.761C17.026 107.595 16.9236 107.445 16.7938 107.322C16.6639 107.198 16.5095 107.103 16.3406 107.043C16.1717 106.983 15.992 106.959 15.8132 106.973C14.7396 107.091 13.8054 108.8 13.6128 109.747C13.6128 109.804 13.5349 110.497 13.5062 110.878C13.3546 110.542 13.203 110.206 13.035 109.874C12.5556 108.907 12.0434 107.944 11.5312 106.981L11.0681 106.096C11.2116 106.063 12.9203 105.665 13.5636 105.174C14.1373 104.735 14.7396 104.014 14.7355 103.252C14.7376 103.06 14.6962 102.869 14.6144 102.695C14.5327 102.521 14.4127 102.368 14.2634 102.246C14.1142 102.125 13.9394 102.039 13.7523 101.995C13.5651 101.95 13.3704 101.949 13.1825 101.99C12.1089 102.109 11.1788 103.817 10.9821 104.76C10.9821 104.834 10.8796 105.829 10.8674 106.083C10.5313 105.436 10.1994 104.785 9.90031 104.129C9.48837 103.245 9.13654 102.335 8.84721 101.404C8.91278 101.404 10.6994 100.994 11.355 100.478C11.9286 100.039 12.5351 99.3223 12.5269 98.5602C12.5315 98.3809 12.4983 98.2027 12.4296 98.0371C12.3608 97.8714 12.258 97.7222 12.1277 97.5989C11.9975 97.4756 11.8428 97.3811 11.6737 97.3215C11.5045 97.2619 11.3247 97.2386 11.146 97.253C10.0724 97.3719 9.14225 99.0806 8.94966 100.023C8.94966 100.085 8.86361 100.843 8.83902 101.207H8.78165C8.51226 100.27 8.32713 99.3096 8.22847 98.3389C8.1711 97.8021 8.14242 97.2858 8.12603 96.7859C8.46614 96.7449 10.0191 96.5359 10.6625 96.1467C11.3058 95.7574 11.9614 95.1304 12.0393 94.3724C12.0635 94.1945 12.05 94.0135 11.9999 93.8411C11.9497 93.6688 11.8639 93.5089 11.748 93.3718C11.6322 93.2346 11.4888 93.1234 11.3272 93.0452C11.1656 92.967 10.9894 92.9235 10.81 92.9177C9.72821 92.9177 8.61775 94.5158 8.31862 95.4296C8.31862 95.4828 8.19569 96.0073 8.12193 96.3884C8.12193 96.163 8.12193 95.9295 8.12193 95.7123C8.12193 94.8928 8.1752 94.147 8.22847 93.4873C8.26125 93.1103 8.29403 92.7702 8.33501 92.4547C8.64643 92.2375 9.89622 91.3565 10.2773 90.7255C10.6584 90.0944 10.9616 89.2257 10.6871 88.5168C10.6276 88.3474 10.5331 88.1924 10.4096 88.0621C10.2861 87.9318 10.1365 87.829 9.97054 87.7605C9.80457 87.692 9.626 87.6594 9.44654 87.6648C9.26707 87.6701 9.09077 87.7133 8.92917 87.7916C7.97032 88.2874 7.69987 90.2174 7.87607 91.1721C7.87607 91.2541 8.25306 92.512 8.28584 92.5038C8.24076 92.8112 8.19979 93.139 8.16291 93.4955C8.09735 94.1552 8.02769 94.9051 8.0072 95.7246C7.97721 96.6075 7.9991 97.4914 8.07276 98.3717C8.14756 99.3582 8.31076 100.336 8.56038 101.293V101.33C8.39238 101.06 7.89246 100.33 7.84739 100.281C7.21635 99.5518 5.5691 98.511 4.56927 98.9331C4.40632 99.0079 4.26092 99.1161 4.14253 99.2508C4.02414 99.3854 3.9354 99.5435 3.88207 99.7147C3.82874 99.8859 3.81202 100.066 3.83299 100.244C3.85396 100.423 3.91216 100.594 4.00379 100.748C4.38897 101.375 5.26587 101.724 5.97886 101.826ZM16.686 115.979C17.2392 116.578 18.6529 117.278 18.8373 117.368C18.6447 117.84 18.4521 118.299 18.2636 118.729C17.6162 120.224 17.0343 121.441 16.5918 122.29C16.5016 122.458 16.4238 122.609 16.3541 122.749H16.2804C16.2804 122.585 16.2353 122.404 16.2107 122.2C16.0796 121.249 15.8706 119.893 15.551 118.282C15.4526 117.77 15.3338 117.229 15.2109 116.672C15.7152 116.469 16.2077 116.238 16.686 115.979Z" fill="#0091BF"/>
<path d="M5.32375 96.3391C6.09821 96.6751 7.99542 96.6342 7.99542 96.6342C7.99542 96.6342 7.58566 95.4049 7.55287 95.3188C7.14311 94.446 5.82367 93.0118 4.75418 93.1553C4.57714 93.1845 4.40821 93.2506 4.2583 93.3492C4.10839 93.4478 3.98085 93.5768 3.88392 93.7278C3.78698 93.8788 3.72281 94.0485 3.69555 94.2258C3.66829 94.4032 3.67855 94.5843 3.72567 94.7574C3.90596 95.4991 4.66403 96.0482 5.32375 96.3391Z" fill="#0091BF"/>
<path opacity="0.5" d="M5.97886 101.826C6.79839 101.945 8.47433 101.453 8.60955 101.416C8.88654 102.383 9.2288 103.331 9.63396 104.252C9.86753 104.793 10.1175 105.325 10.3756 105.862C10.224 105.633 10.0806 105.432 10.0601 105.407C9.42908 104.678 7.78183 103.641 6.782 104.063C6.61847 104.138 6.47256 104.246 6.35377 104.381C6.23498 104.516 6.14601 104.675 6.09264 104.847C6.03927 105.018 6.02272 105.199 6.04407 105.378C6.06542 105.556 6.12418 105.728 6.21652 105.883C6.58531 106.551 7.44582 106.878 8.1752 106.985C8.90458 107.091 10.3511 106.702 10.7321 106.575C10.8346 106.78 10.9329 106.985 11.0354 107.186C11.523 108.161 12.0188 109.132 12.4695 110.099C12.6334 110.443 12.7769 110.783 12.9244 111.124C12.7851 110.923 12.6703 110.755 12.6498 110.714C12.0188 109.984 10.3715 108.948 9.37171 109.37C9.20552 109.444 9.05727 109.554 8.93695 109.691C8.81663 109.827 8.72704 109.988 8.67423 110.163C8.62142 110.337 8.6066 110.521 8.63079 110.701C8.65497 110.882 8.7176 111.055 8.81443 111.21C9.18322 111.878 10.0437 112.209 10.7731 112.312C11.5025 112.414 12.8219 112.066 13.2604 111.939C13.3997 112.291 13.539 112.648 13.6702 112.996C13.748 113.238 13.8382 113.463 13.8996 113.709C13.9611 113.955 14.0348 114.189 14.1004 114.426C14.211 114.889 14.3299 115.365 14.4241 115.815C14.4938 116.131 14.5552 116.434 14.6167 116.733C14.461 116.393 14.1455 115.733 14.1127 115.68C13.5964 114.861 12.1253 113.59 11.0804 113.857C10.9093 113.908 10.7507 113.994 10.6149 114.11C10.4791 114.225 10.369 114.368 10.2918 114.529C10.2146 114.69 10.172 114.866 10.1666 115.044C10.1613 115.223 10.1934 115.4 10.2609 115.565C10.5232 116.278 11.3427 116.737 12.0311 116.95C12.7892 117.18 14.4692 116.971 14.6782 116.95C14.7765 117.45 14.8708 117.942 14.9527 118.405C15.2355 120.007 15.4076 121.351 15.5182 122.294C15.5387 122.462 15.5551 122.613 15.5674 122.753H12.3179L13.3382 142.61H19.2102L20.2305 122.753H17.2023C17.2228 122.708 17.2474 122.663 17.2679 122.613C17.6777 121.749 18.2595 120.503 18.8824 118.983C19.079 118.503 19.2921 117.987 19.4847 117.45C19.6896 117.495 21.3491 117.831 22.1236 117.659C22.8284 117.5 23.6766 117.102 23.9921 116.405C24.0716 116.245 24.1163 116.069 24.1234 115.89C24.1305 115.711 24.0998 115.532 24.0333 115.365C23.9668 115.199 23.8661 115.048 23.7376 114.923C23.609 114.798 23.4556 114.701 23.2873 114.639C22.2629 114.295 20.7017 115.459 20.128 116.233C20.0953 116.283 19.7838 116.819 19.5913 117.159C19.6732 116.942 19.7552 116.75 19.8371 116.508C20.001 116.061 20.1485 115.61 20.3124 115.127C20.3821 114.893 20.4559 114.656 20.5255 114.414C20.5952 114.172 20.6525 113.918 20.7181 113.668C20.8574 113.082 20.9722 112.484 21.0705 111.878C21.4598 112.017 22.853 112.504 23.5742 112.451C24.2954 112.398 25.2132 112.14 25.623 111.501C25.7272 111.355 25.7996 111.189 25.8355 111.014C25.8714 110.839 25.87 110.658 25.8313 110.483C25.7927 110.308 25.7177 110.144 25.6112 110C25.5047 109.856 25.3691 109.736 25.2132 109.648C24.2544 109.153 22.5334 110.058 21.8532 110.747C21.8081 110.788 21.3737 111.328 21.1402 111.632C21.1975 111.267 21.2549 110.906 21.3 110.534C21.4352 109.464 21.5376 108.374 21.6401 107.292C21.6729 106.956 21.7097 106.628 21.7466 106.297C21.8818 106.35 23.525 106.96 24.3363 106.903C25.0534 106.854 25.9754 106.587 26.3852 105.952C26.4888 105.806 26.5608 105.64 26.5963 105.465C26.6319 105.289 26.6304 105.108 26.5918 104.933C26.5532 104.759 26.4784 104.594 26.3722 104.449C26.2661 104.305 26.1309 104.185 25.9754 104.096C25.0124 103.604 23.2955 104.506 22.6112 105.194C22.558 105.248 21.9351 106.014 21.7917 106.235C21.8695 105.506 21.9515 104.78 22.0662 104.067C22.2115 103.099 22.4182 102.141 22.685 101.199C22.7505 101.224 24.4634 101.871 25.2911 101.814C26.0082 101.76 26.9097 101.498 27.3399 100.859C27.4427 100.712 27.5134 100.545 27.5474 100.369C27.5815 100.193 27.5781 100.012 27.5375 99.837C27.4969 99.6623 27.4201 99.4981 27.3119 99.3551C27.2037 99.2121 27.0667 99.0934 26.9097 99.0068C25.9508 98.511 24.2298 99.4166 23.5455 100.105C23.5004 100.15 23.0251 100.744 22.8038 101.035L22.7505 101.006C23.0447 100.071 23.4232 99.1646 23.8815 98.2979C24.1274 97.8185 24.3896 97.3719 24.6519 96.9416C24.9592 97.0973 26.3688 97.7816 27.1104 97.8103C27.8521 97.839 28.7495 97.6751 29.2371 97.085C29.3556 96.9508 29.4445 96.793 29.4979 96.6221C29.5514 96.4512 29.5682 96.271 29.5473 96.0932C29.5265 95.9153 29.4683 95.7439 29.3768 95.59C29.2852 95.4361 29.1622 95.3033 29.0158 95.2001C28.1144 94.6018 26.3073 95.3189 25.5533 95.9213C25.5124 95.9541 25.1436 96.331 24.8567 96.6097C24.9797 96.4171 25.1026 96.2204 25.2255 96.0401C25.6763 95.3599 26.1311 94.7616 26.5368 94.2412C26.7744 93.9421 26.9916 93.6799 27.1965 93.4217C27.5776 93.4217 29.1019 93.3685 29.7698 93.0529C30.4377 92.7374 31.1671 92.176 31.3269 91.4139C31.37 91.2396 31.3758 91.0583 31.3442 90.8817C31.3125 90.705 31.244 90.537 31.1431 90.3886C31.0422 90.2402 30.9112 90.1147 30.7586 90.0202C30.6061 89.9257 30.4353 89.8645 30.2574 89.8404C29.1839 89.7256 27.9095 91.1967 27.5161 92.0777C27.4833 92.1555 27.1063 93.4053 27.1063 93.4053H27.1268C26.926 93.6348 26.7171 93.8848 26.4794 94.1634C26.0696 94.6797 25.5902 95.2657 25.1231 95.9377C24.6088 96.6573 24.138 97.4072 23.7135 98.1832C23.2345 99.0476 22.8328 99.9526 22.5129 100.888V100.925C22.5129 100.609 22.5129 99.7239 22.5129 99.6542C22.39 98.6995 21.5868 96.9252 20.5255 96.7285C20.3482 96.7 20.1669 96.7094 19.9934 96.7559C19.82 96.8024 19.6583 96.885 19.519 96.9984C19.3797 97.1117 19.266 97.2533 19.1852 97.4137C19.1044 97.5741 19.0585 97.7497 19.0504 97.9291C18.9889 98.6872 19.5421 99.4494 20.0789 99.9288C20.6853 100.47 22.3654 100.994 22.5006 101.035C22.1967 101.996 21.9585 102.976 21.7876 103.969C21.6852 104.547 21.5991 105.133 21.5212 105.719C21.5212 105.444 21.5212 105.198 21.5212 105.166C21.3983 104.211 20.5993 102.437 19.538 102.24C19.3608 102.212 19.1797 102.222 19.0065 102.269C18.8333 102.315 18.6719 102.398 18.5328 102.511C18.3936 102.625 18.2799 102.766 18.1989 102.926C18.118 103.086 18.0716 103.261 18.0628 103.44C18.0014 104.199 18.5505 104.961 19.0872 105.44C19.624 105.92 21.0582 106.403 21.4352 106.522L21.3491 107.202C21.2221 108.284 21.0951 109.366 20.9394 110.423C20.882 110.796 20.8165 111.16 20.7509 111.525C20.7509 111.283 20.7509 111.078 20.7509 111.05C20.628 110.091 19.8248 108.317 18.7635 108.12C18.5863 108.092 18.4052 108.102 18.232 108.149C18.0588 108.196 17.8974 108.278 17.7583 108.391C17.6192 108.505 17.5054 108.646 17.4245 108.806C17.3435 108.966 17.2971 109.141 17.2884 109.321C17.2269 110.083 17.776 110.841 18.3169 111.324C18.8578 111.808 20.1444 112.238 20.5952 112.382C20.5173 112.754 20.4395 113.127 20.3452 113.484C20.2756 113.73 20.2264 113.967 20.1444 114.205C20.0625 114.443 19.9887 114.68 19.915 114.914C19.7511 115.361 19.5872 115.824 19.4192 116.254C19.3044 116.553 19.1856 116.84 19.0709 117.127C19.1282 116.754 19.2307 116.028 19.2307 115.967C19.22 115.119 18.9914 114.288 18.5668 113.553C18.5682 113.459 18.5613 113.364 18.5464 113.271C18.5241 113.093 18.4646 112.921 18.3719 112.768C18.2791 112.614 18.155 112.482 18.0078 112.38C17.8605 112.277 17.6934 112.207 17.5172 112.174C17.341 112.14 17.1597 112.144 16.9851 112.185C15.9402 112.464 15.2805 114.295 15.2314 115.258C15.2314 115.315 15.2641 115.934 15.2928 116.323C15.2436 116.098 15.1945 115.877 15.1371 115.643C15.0265 115.184 14.9035 114.725 14.7724 114.234C14.7028 113.996 14.629 113.758 14.5593 113.521C14.4897 113.283 14.3913 113.033 14.3053 112.787C14.1004 112.226 13.8627 111.664 13.6128 111.103C14.0225 111.005 15.4444 110.64 16.0181 110.202C16.5918 109.763 17.1982 109.046 17.19 108.284C17.1952 108.105 17.1625 107.926 17.0943 107.761C17.026 107.595 16.9236 107.445 16.7938 107.322C16.6639 107.198 16.5095 107.103 16.3406 107.043C16.1717 106.983 15.992 106.959 15.8132 106.973C14.7396 107.091 13.8054 108.8 13.6128 109.747C13.6128 109.804 13.5349 110.497 13.5062 110.878C13.3546 110.542 13.203 110.206 13.035 109.874C12.5556 108.907 12.0434 107.944 11.5312 106.981L11.0681 106.096C11.2116 106.063 12.9203 105.665 13.5636 105.174C14.1373 104.735 14.7396 104.014 14.7355 103.252C14.7376 103.06 14.6962 102.869 14.6144 102.695C14.5327 102.521 14.4127 102.368 14.2634 102.246C14.1142 102.125 13.9394 102.039 13.7523 101.995C13.5651 101.95 13.3704 101.949 13.1825 101.99C12.1089 102.109 11.1788 103.817 10.9821 104.76C10.9821 104.834 10.8796 105.829 10.8674 106.083C10.5313 105.436 10.1994 104.785 9.90031 104.129C9.48837 103.245 9.13654 102.335 8.84721 101.404C8.91278 101.404 10.6994 100.994 11.355 100.478C11.9286 100.039 12.5351 99.3223 12.5269 98.5602C12.5315 98.3809 12.4983 98.2027 12.4296 98.0371C12.3608 97.8714 12.258 97.7222 12.1277 97.5989C11.9975 97.4756 11.8428 97.3811 11.6737 97.3215C11.5045 97.2619 11.3247 97.2386 11.146 97.253C10.0724 97.3719 9.14225 99.0806 8.94966 100.023C8.94966 100.085 8.86361 100.843 8.83902 101.207H8.78165C8.51226 100.27 8.32713 99.3096 8.22847 98.3389C8.1711 97.8021 8.14242 97.2858 8.12603 96.7859C8.46614 96.7449 10.0191 96.5359 10.6625 96.1467C11.3058 95.7574 11.9614 95.1304 12.0393 94.3724C12.0635 94.1945 12.05 94.0135 11.9999 93.8411C11.9497 93.6688 11.8639 93.5089 11.748 93.3718C11.6322 93.2346 11.4888 93.1234 11.3272 93.0452C11.1656 92.967 10.9894 92.9235 10.81 92.9177C9.72821 92.9177 8.61775 94.5158 8.31862 95.4296C8.31862 95.4828 8.19569 96.0073 8.12193 96.3884C8.12193 96.163 8.12193 95.9295 8.12193 95.7123C8.12193 94.8928 8.1752 94.147 8.22847 93.4873C8.26125 93.1103 8.29403 92.7702 8.33501 92.4547C8.64643 92.2375 9.89622 91.3565 10.2773 90.7255C10.6584 90.0944 10.9616 89.2257 10.6871 88.5168C10.6276 88.3474 10.5331 88.1924 10.4096 88.0621C10.2861 87.9318 10.1365 87.829 9.97054 87.7605C9.80457 87.692 9.626 87.6594 9.44654 87.6648C9.26707 87.6701 9.09077 87.7133 8.92917 87.7916C7.97032 88.2874 7.69987 90.2174 7.87607 91.1721C7.87607 91.2541 8.25306 92.512 8.28584 92.5038C8.24076 92.8112 8.19979 93.139 8.16291 93.4955C8.09735 94.1552 8.02769 94.9051 8.0072 95.7246C7.97721 96.6075 7.9991 97.4914 8.07276 98.3717C8.14756 99.3582 8.31076 100.336 8.56038 101.293V101.33C8.39238 101.06 7.89246 100.33 7.84739 100.281C7.21635 99.5518 5.5691 98.511 4.56927 98.9331C4.40632 99.0079 4.26092 99.1161 4.14253 99.2508C4.02414 99.3854 3.9354 99.5435 3.88207 99.7147C3.82874 99.8859 3.81202 100.066 3.83299 100.244C3.85396 100.423 3.91216 100.594 4.00379 100.748C4.38897 101.375 5.26587 101.724 5.97886 101.826ZM16.686 115.979C17.2392 116.578 18.6529 117.278 18.8373 117.368C18.6447 117.84 18.4521 118.299 18.2636 118.729C17.6162 120.224 17.0343 121.441 16.5918 122.29C16.5016 122.458 16.4238 122.609 16.3541 122.749H16.2804C16.2804 122.585 16.2353 122.404 16.2107 122.2C16.0796 121.249 15.8706 119.893 15.551 118.282C15.4526 117.77 15.3338 117.229 15.2109 116.672C15.7152 116.469 16.2077 116.238 16.686 115.979Z" fill="white"/>
<path opacity="0.3" d="M24.4971 96.7532C24.4971 96.7532 24.8413 95.4952 24.8536 95.4133C24.9847 94.4585 24.6815 92.5449 23.7062 92.0655C23.5427 91.9916 23.3655 91.9531 23.1861 91.9525C23.0067 91.9519 22.8292 91.9892 22.6652 92.0619C22.5012 92.1346 22.3544 92.2412 22.2344 92.3745C22.1144 92.5079 22.0239 92.6651 21.9688 92.8358C21.7107 93.5488 22.0385 94.4298 22.4319 95.0322C22.8908 95.7452 24.493 96.7532 24.4971 96.7532Z" fill="white"/>
<path opacity="0.3" d="M5.32375 96.3391C6.09821 96.6751 7.99542 96.6342 7.99542 96.6342C7.99542 96.6342 7.58566 95.4049 7.55287 95.3188C7.14311 94.446 5.82367 93.0118 4.75418 93.1553C4.57714 93.1845 4.40821 93.2506 4.2583 93.3492C4.10839 93.4478 3.98085 93.5768 3.88392 93.7278C3.78698 93.8788 3.72281 94.0485 3.69555 94.2258C3.66829 94.4032 3.67855 94.5843 3.72567 94.7574C3.90596 95.4991 4.66403 96.0482 5.32375 96.3391Z" fill="white"/>
<path d="M134.524 8.03882H17.999V85.0664H134.524V8.03882Z" fill="white"/>
<mask id="mask0_17_968" style="mask-type:luminance" maskUnits="userSpaceOnUse" x="18" y="8" width="117" height="78">
<path d="M134.525 8.03882H18.0005V85.0664H134.525V8.03882Z" fill="white"/>
</mask>
<g mask="url(#mask0_17_968)">
<path d="M134.525 8.03882H18.0005V85.0664H134.525V8.03882Z" fill="#263238"/>
<path opacity="0.8" d="M134.525 8.03882H18.0005V85.0664H134.525V8.03882Z" fill="white"/>
</g>
<path d="M134.524 8.03882H17.999V85.0664H134.524V8.03882Z" stroke="#263238" stroke-linecap="round" stroke-linejoin="round"/>
<path d="M131.544 16.6274H50.2593V82.7102H131.544V16.6274Z" fill="white"/>
<path d="M73.2809 22.7658H61.4961V46.6961H73.2809V22.7658Z" fill="#0091BF"/>
<path d="M131.655 22.9052H119.87V34.8006H131.655V22.9052Z" fill="#0091BF"/>
<path d="M96.5793 22.9052H84.7944V34.8006H96.5793V22.9052Z" fill="#0091BF"/>
<path d="M73.2441 58.8004H50.1538V70.6959H73.2441V58.8004Z" fill="#0091BF"/>
<path d="M134.524 8.03882H17.999V15.5252H134.524V8.03882Z" fill="#263238" stroke="#263238" stroke-linecap="round" stroke-linejoin="round"/>
<path d="M131.544 16.6274H50.2593V82.7102H131.544V16.6274Z" stroke="#263238" stroke-linecap="round" stroke-linejoin="round"/>
<path d="M61.6836 23.2329V82.489" stroke="#263238" stroke-linecap="round" stroke-linejoin="round"/>
<path d="M73.3262 23.2329V82.489" stroke="#263238" stroke-linecap="round" stroke-linejoin="round"/>
<path d="M84.9717 23.2329V82.489" stroke="#263238" stroke-linecap="round" stroke-linejoin="round"/>
<path d="M96.6128 23.2329V82.489" stroke="#263238" stroke-linecap="round" stroke-linejoin="round"/>
<path d="M108.258 23.2329V82.489" stroke="#263238" stroke-linecap="round" stroke-linejoin="round"/>
<path d="M119.899 23.2329V82.489" stroke="#263238" stroke-linecap="round" stroke-linejoin="round"/>
<path d="M50.2593 23.0157H131.544" stroke="#263238" stroke-linecap="round" stroke-linejoin="round"/>
<path d="M50.2593 34.9114H131.544" stroke="#263238" stroke-linecap="round" stroke-linejoin="round"/>
<path d="M50.2593 46.8066H131.544" stroke="#263238" stroke-linecap="round" stroke-linejoin="round"/>
<path d="M50.2593 58.7023H131.544" stroke="#263238" stroke-linecap="round" stroke-linejoin="round"/>
<path d="M50.2593 70.5935H131.544" stroke="#263238" stroke-linecap="round" stroke-linejoin="round"/>
<path opacity="0.28" d="M23.1576 21.262C23.5197 21.262 23.8132 20.9685 23.8132 20.6064C23.8132 20.2443 23.5197 19.9507 23.1576 19.9507C22.7955 19.9507 22.502 20.2443 22.502 20.6064C22.502 20.9685 22.7955 21.262 23.1576 21.262Z" fill="black"/>
<path opacity="0.28" d="M26.7596 21.262C27.1217 21.262 27.4153 20.9685 27.4153 20.6064C27.4153 20.2443 27.1217 19.9507 26.7596 19.9507C26.3975 19.9507 26.104 20.2443 26.104 20.6064C26.104 20.9685 26.3975 21.262 26.7596 21.262Z" fill="black"/>
<path opacity="0.28" d="M30.3573 21.262C30.7194 21.262 31.0129 20.9685 31.0129 20.6064C31.0129 20.2443 30.7194 19.9507 30.3573 19.9507C29.9952 19.9507 29.7017 20.2443 29.7017 20.6064C29.7017 20.9685 29.9952 21.262 30.3573 21.262Z" fill="black"/>
<path opacity="0.28" d="M34.6149 20.6063C34.6158 20.7361 34.578 20.8633 34.5065 20.9717C34.4349 21.08 34.3328 21.1647 34.2131 21.2149C34.0933 21.2652 33.9614 21.2788 33.8339 21.2539C33.7065 21.2291 33.5893 21.167 33.4972 21.0754C33.4051 20.9839 33.3422 20.8671 33.3166 20.7398C33.291 20.6125 33.3037 20.4805 33.3532 20.3605C33.4027 20.2404 33.4868 20.1378 33.5947 20.0656C33.7026 19.9933 33.8295 19.9548 33.9593 19.9548C34.1325 19.9548 34.2986 20.0233 34.4215 20.1453C34.5443 20.2674 34.6139 20.4331 34.6149 20.6063Z" fill="black"/>
<path opacity="0.28" d="M37.557 21.262C37.9191 21.262 38.2126 20.9685 38.2126 20.6064C38.2126 20.2443 37.9191 19.9507 37.557 19.9507C37.1949 19.9507 36.9014 20.2443 36.9014 20.6064C36.9014 20.9685 37.1949 21.262 37.557 21.262Z" fill="black"/>
<path opacity="0.28" d="M41.159 21.262C41.5211 21.262 41.8147 20.9685 41.8147 20.6064C41.8147 20.2443 41.5211 19.9507 41.159 19.9507C40.797 19.9507 40.5034 20.2443 40.5034 20.6064C40.5034 20.9685 40.797 21.262 41.159 21.262Z" fill="black"/>
<path opacity="0.28" d="M44.7611 21.262C45.1232 21.262 45.4167 20.9685 45.4167 20.6064C45.4167 20.2443 45.1232 19.9507 44.7611 19.9507C44.399 19.9507 44.1055 20.2443 44.1055 20.6064C44.1055 20.9685 44.399 21.262 44.7611 21.262Z" fill="black"/>
<path opacity="0.28" d="M23.1576 24.5566C23.5197 24.5566 23.8132 24.2631 23.8132 23.901C23.8132 23.5389 23.5197 23.2454 23.1576 23.2454C22.7955 23.2454 22.502 23.5389 22.502 23.901C22.502 24.2631 22.7955 24.5566 23.1576 24.5566Z" fill="black"/>
<path opacity="0.28" d="M26.7596 24.5566C27.1217 24.5566 27.4153 24.2631 27.4153 23.901C27.4153 23.5389 27.1217 23.2454 26.7596 23.2454C26.3975 23.2454 26.104 23.5389 26.104 23.901C26.104 24.2631 26.3975 24.5566 26.7596 24.5566Z" fill="black"/>
<path opacity="0.28" d="M30.3573 24.5566C30.7194 24.5566 31.0129 24.2631 31.0129 23.901C31.0129 23.5389 30.7194 23.2454 30.3573 23.2454C29.9952 23.2454 29.7017 23.5389 29.7017 23.901C29.7017 24.2631 29.9952 24.5566 30.3573 24.5566Z" fill="black"/>
<path opacity="0.28" d="M34.6149 23.9009C34.6158 24.0308 34.578 24.1579 34.5065 24.2663C34.4349 24.3746 34.3328 24.4593 34.2131 24.5095C34.0933 24.5598 33.9614 24.5734 33.8339 24.5485C33.7065 24.5237 33.5893 24.4616 33.4972 24.3701C33.4051 24.2785 33.3422 24.1617 33.3166 24.0344C33.291 23.9071 33.3037 23.7751 33.3532 23.6551C33.4027 23.535 33.4868 23.4324 33.5947 23.3602C33.7026 23.288 33.8295 23.2494 33.9593 23.2494C34.1325 23.2494 34.2986 23.3179 34.4215 23.44C34.5443 23.562 34.6139 23.7277 34.6149 23.9009Z" fill="black"/>
<path opacity="0.28" d="M37.557 24.5566C37.9191 24.5566 38.2126 24.2631 38.2126 23.901C38.2126 23.5389 37.9191 23.2454 37.557 23.2454C37.1949 23.2454 36.9014 23.5389 36.9014 23.901C36.9014 24.2631 37.1949 24.5566 37.557 24.5566Z" fill="black"/>
<path opacity="0.28" d="M41.159 24.5566C41.5211 24.5566 41.8147 24.2631 41.8147 23.901C41.8147 23.5389 41.5211 23.2454 41.159 23.2454C40.797 23.2454 40.5034 23.5389 40.5034 23.901C40.5034 24.2631 40.797 24.5566 41.159 24.5566Z" fill="black"/>
<path opacity="0.28" d="M44.7611 24.5566C45.1232 24.5566 45.4167 24.2631 45.4167 23.901C45.4167 23.5389 45.1232 23.2454 44.7611 23.2454C44.399 23.2454 44.1055 23.5389 44.1055 23.901C44.1055 24.2631 44.399 24.5566 44.7611 24.5566Z" fill="black"/>
<path opacity="0.28" d="M23.1576 27.851C23.5197 27.851 23.8132 27.5575 23.8132 27.1954C23.8132 26.8333 23.5197 26.5398 23.1576 26.5398C22.7955 26.5398 22.502 26.8333 22.502 27.1954C22.502 27.5575 22.7955 27.851 23.1576 27.851Z" fill="black"/>
<path opacity="0.28" d="M26.7596 27.851C27.1217 27.851 27.4153 27.5575 27.4153 27.1954C27.4153 26.8333 27.1217 26.5398 26.7596 26.5398C26.3975 26.5398 26.104 26.8333 26.104 27.1954C26.104 27.5575 26.3975 27.851 26.7596 27.851Z" fill="black"/>
<path opacity="0.28" d="M30.3573 27.851C30.7194 27.851 31.0129 27.5575 31.0129 27.1954C31.0129 26.8333 30.7194 26.5398 30.3573 26.5398C29.9952 26.5398 29.7017 26.8333 29.7017 27.1954C29.7017 27.5575 29.9952 27.851 30.3573 27.851Z" fill="black"/>
<path opacity="0.28" d="M34.615 27.2075C34.615 27.3372 34.5765 27.4639 34.5045 27.5718C34.4324 27.6796 34.33 27.7636 34.2102 27.8132C34.0904 27.8628 33.9586 27.8758 33.8314 27.8505C33.7043 27.8252 33.5874 27.7628 33.4957 27.6711C33.4041 27.5794 33.3416 27.4626 33.3163 27.3354C33.291 27.2082 33.304 27.0764 33.3536 26.9566C33.4032 26.8368 33.4873 26.7344 33.5951 26.6624C33.7029 26.5903 33.8297 26.5519 33.9593 26.5519C34.1332 26.5519 34.3 26.621 34.4229 26.7439C34.5459 26.8669 34.615 27.0336 34.615 27.2075Z" fill="black"/>
<path opacity="0.28" d="M37.557 27.851C37.9191 27.851 38.2126 27.5575 38.2126 27.1954C38.2126 26.8333 37.9191 26.5398 37.557 26.5398C37.1949 26.5398 36.9014 26.8333 36.9014 27.1954C36.9014 27.5575 37.1949 27.851 37.557 27.851Z" fill="black"/>
<path opacity="0.28" d="M41.159 27.851C41.5211 27.851 41.8147 27.5575 41.8147 27.1954C41.8147 26.8333 41.5211 26.5398 41.159 26.5398C40.797 26.5398 40.5034 26.8333 40.5034 27.1954C40.5034 27.5575 40.797 27.851 41.159 27.851Z" fill="black"/>
<path opacity="0.28" d="M44.7611 27.851C45.1232 27.851 45.4167 27.5575 45.4167 27.1954C45.4167 26.8333 45.1232 26.5398 44.7611 26.5398C44.399 26.5398 44.1055 26.8333 44.1055 27.1954C44.1055 27.5575 44.399 27.851 44.7611 27.851Z" fill="black"/>
<path opacity="0.28" d="M23.8132 30.4858C23.8132 30.6155 23.7748 30.7423 23.7027 30.8501C23.6307 30.9579 23.5283 31.0419 23.4085 31.0915C23.2887 31.1412 23.1569 31.1542 23.0297 31.1289C22.9025 31.1036 22.7857 31.0411 22.694 30.9494C22.6023 30.8577 22.5398 30.7409 22.5146 30.6137C22.4893 30.4866 22.5022 30.3547 22.5519 30.2349C22.6015 30.1151 22.6855 30.0127 22.7933 29.9407C22.9011 29.8687 23.0279 29.8302 23.1576 29.8302C23.3315 29.8302 23.4982 29.8993 23.6212 30.0222C23.7441 30.1452 23.8132 30.3119 23.8132 30.4858Z" fill="black"/>
<path opacity="0.28" d="M27.4152 30.4858C27.4152 30.6155 27.3768 30.7423 27.3048 30.8501C27.2327 30.9579 27.1303 31.0419 27.0105 31.0915C26.8907 31.1412 26.7589 31.1542 26.6317 31.1289C26.5045 31.1036 26.3877 31.0411 26.296 30.9494C26.2043 30.8577 26.1419 30.7409 26.1166 30.6137C26.0913 30.4866 26.1043 30.3547 26.1539 30.2349C26.2035 30.1151 26.2876 30.0127 26.3954 29.9407C26.5032 29.8687 26.63 29.8302 26.7596 29.8302C26.9335 29.8302 27.1003 29.8993 27.2232 30.0222C27.3462 30.1452 27.4152 30.3119 27.4152 30.4858Z" fill="black"/>
<path opacity="0.28" d="M31.0129 30.4858C31.0129 30.6155 30.9745 30.7423 30.9024 30.8501C30.8304 30.9579 30.728 31.0419 30.6082 31.0915C30.4884 31.1412 30.3566 31.1542 30.2294 31.1289C30.1022 31.1036 29.9854 31.0411 29.8937 30.9494C29.802 30.8577 29.7396 30.7409 29.7143 30.6137C29.689 30.4866 29.7019 30.3547 29.7516 30.2349C29.8012 30.1151 29.8852 30.0127 29.993 29.9407C30.1009 29.8687 30.2276 29.8302 30.3573 29.8302C30.5312 29.8302 30.6979 29.8993 30.8209 30.0222C30.9438 30.1452 31.0129 30.3119 31.0129 30.4858Z" fill="black"/>
<path opacity="0.28" d="M34.615 30.4858C34.615 30.6155 34.5765 30.7423 34.5045 30.8501C34.4324 30.9579 34.33 31.0419 34.2102 31.0915C34.0904 31.1412 33.9586 31.1542 33.8314 31.1289C33.7043 31.1036 33.5874 31.0411 33.4957 30.9494C33.4041 30.8577 33.3416 30.7409 33.3163 30.6137C33.291 30.4866 33.304 30.3547 33.3536 30.2349C33.4032 30.1151 33.4873 30.0127 33.5951 29.9407C33.7029 29.8687 33.8297 29.8302 33.9593 29.8302C34.1332 29.8302 34.3 29.8993 34.4229 30.0222C34.5459 30.1452 34.615 30.3119 34.615 30.4858Z" fill="black"/>
<path opacity="0.28" d="M38.2126 30.4858C38.2126 30.6155 38.1742 30.7423 38.1021 30.8501C38.0301 30.9579 37.9277 31.0419 37.8079 31.0915C37.6881 31.1412 37.5563 31.1542 37.4291 31.1289C37.3019 31.1036 37.1851 31.0411 37.0934 30.9494C37.0017 30.8577 36.9393 30.7409 36.914 30.6137C36.8887 30.4866 36.9017 30.3547 36.9513 30.2349C37.0009 30.1151 37.0849 30.0127 37.1928 29.9407C37.3006 29.8687 37.4273 29.8302 37.557 29.8302C37.7309 29.8302 37.8976 29.8993 38.0206 30.0222C38.1435 30.1452 38.2126 30.3119 38.2126 30.4858Z" fill="black"/>
<path opacity="0.28" d="M41.8147 30.4858C41.8147 30.6155 41.7762 30.7423 41.7042 30.8501C41.6321 30.9579 41.5297 31.0419 41.4099 31.0915C41.2901 31.1412 41.1583 31.1542 41.0311 31.1289C40.904 31.1036 40.7871 31.0411 40.6954 30.9494C40.6038 30.8577 40.5413 30.7409 40.516 30.6137C40.4907 30.4866 40.5037 30.3547 40.5533 30.2349C40.6029 30.1151 40.687 30.0127 40.7948 29.9407C40.9026 29.8687 41.0294 29.8302 41.159 29.8302C41.3329 29.8302 41.4997 29.8993 41.6226 30.0222C41.7456 30.1452 41.8147 30.3119 41.8147 30.4858Z" fill="black"/>
<path opacity="0.28" d="M45.4123 30.4858C45.4123 30.6157 45.3738 30.7426 45.3015 30.8505C45.2293 30.9584 45.1267 31.0424 45.0066 31.0919C44.8866 31.1414 44.7546 31.1542 44.6273 31.1285C44.5 31.1029 44.3832 31.0401 44.2916 30.948C44.2001 30.8559 44.138 30.7387 44.1132 30.6112C44.0883 30.4838 44.1019 30.3518 44.1522 30.2321C44.2024 30.1124 44.2871 30.0103 44.3954 29.9387C44.5038 29.8672 44.631 29.8294 44.7608 29.8302C44.934 29.8313 45.0997 29.9008 45.2217 30.0237C45.3438 30.1465 45.4123 30.3127 45.4123 30.4858Z" fill="black"/>
<path opacity="0.28" d="M23.8132 33.7843C23.8132 33.914 23.7748 34.0407 23.7027 34.1485C23.6307 34.2564 23.5283 34.3404 23.4085 34.39C23.2887 34.4396 23.1569 34.4526 23.0297 34.4273C22.9025 34.402 22.7857 34.3396 22.694 34.2479C22.6023 34.1562 22.5398 34.0394 22.5146 33.9122C22.4893 33.785 22.5022 33.6532 22.5519 33.5334C22.6015 33.4136 22.6855 33.3112 22.7933 33.2392C22.9011 33.1671 23.0279 33.1287 23.1576 33.1287C23.3315 33.1287 23.4982 33.1977 23.6212 33.3207C23.7441 33.4436 23.8132 33.6104 23.8132 33.7843Z" fill="black"/>
<path opacity="0.28" d="M27.4152 33.7843C27.4152 33.914 27.3768 34.0407 27.3048 34.1485C27.2327 34.2564 27.1303 34.3404 27.0105 34.39C26.8907 34.4396 26.7589 34.4526 26.6317 34.4273C26.5045 34.402 26.3877 34.3396 26.296 34.2479C26.2043 34.1562 26.1419 34.0394 26.1166 33.9122C26.0913 33.785 26.1043 33.6532 26.1539 33.5334C26.2035 33.4136 26.2876 33.3112 26.3954 33.2392C26.5032 33.1671 26.63 33.1287 26.7596 33.1287C26.9335 33.1287 27.1003 33.1977 27.2232 33.3207C27.3462 33.4436 27.4152 33.6104 27.4152 33.7843Z" fill="black"/>
<path opacity="0.28" d="M31.0129 33.7843C31.0129 33.914 30.9745 34.0407 30.9024 34.1485C30.8304 34.2564 30.728 34.3404 30.6082 34.39C30.4884 34.4396 30.3566 34.4526 30.2294 34.4273C30.1022 34.402 29.9854 34.3396 29.8937 34.2479C29.802 34.1562 29.7396 34.0394 29.7143 33.9122C29.689 33.785 29.7019 33.6532 29.7516 33.5334C29.8012 33.4136 29.8852 33.3112 29.993 33.2392C30.1009 33.1671 30.2276 33.1287 30.3573 33.1287C30.4435 33.1281 30.529 33.1447 30.6088 33.1775C30.6886 33.2102 30.7611 33.2585 30.8221 33.3195C30.8831 33.3805 30.9314 33.453 30.9641 33.5328C30.9969 33.6126 31.0135 33.6981 31.0129 33.7843Z" fill="black"/>
<path opacity="0.28" d="M34.615 33.7843C34.615 33.914 34.5765 34.0407 34.5045 34.1485C34.4324 34.2564 34.33 34.3404 34.2102 34.39C34.0904 34.4396 33.9586 34.4526 33.8314 34.4273C33.7043 34.402 33.5874 34.3396 33.4957 34.2479C33.4041 34.1562 33.3416 34.0394 33.3163 33.9122C33.291 33.785 33.304 33.6532 33.3536 33.5334C33.4032 33.4136 33.4873 33.3112 33.5951 33.2392C33.7029 33.1671 33.8297 33.1287 33.9593 33.1287C34.1332 33.1287 34.3 33.1977 34.4229 33.3207C34.5459 33.4436 34.615 33.6104 34.615 33.7843Z" fill="black"/>
<path opacity="0.28" d="M38.2126 33.7843C38.2126 33.914 38.1742 34.0407 38.1021 34.1485C38.0301 34.2564 37.9277 34.3404 37.8079 34.39C37.6881 34.4396 37.5563 34.4526 37.4291 34.4273C37.3019 34.402 37.1851 34.3396 37.0934 34.2479C37.0017 34.1562 36.9393 34.0394 36.914 33.9122C36.8887 33.785 36.9017 33.6532 36.9513 33.5334C37.0009 33.4136 37.0849 33.3112 37.1928 33.2392C37.3006 33.1671 37.4273 33.1287 37.557 33.1287C37.6432 33.1281 37.7287 33.1447 37.8085 33.1775C37.8883 33.2102 37.9608 33.2585 38.0218 33.3195C38.0828 33.3805 38.1311 33.453 38.1638 33.5328C38.1966 33.6126 38.2132 33.6981 38.2126 33.7843Z" fill="black"/>
<path opacity="0.28" d="M41.8147 33.7843C41.8147 33.914 41.7762 34.0407 41.7042 34.1485C41.6321 34.2564 41.5297 34.3404 41.4099 34.39C41.2901 34.4396 41.1583 34.4526 41.0311 34.4273C40.904 34.402 40.7871 34.3396 40.6954 34.2479C40.6038 34.1562 40.5413 34.0394 40.516 33.9122C40.4907 33.785 40.5037 33.6532 40.5533 33.5334C40.6029 33.4136 40.687 33.3112 40.7948 33.2392C40.9026 33.1671 41.0294 33.1287 41.159 33.1287C41.3329 33.1287 41.4997 33.1977 41.6226 33.3207C41.7456 33.4436 41.8147 33.6104 41.8147 33.7843Z" fill="black"/>
<path opacity="0.28" d="M45.4123 33.7843C45.4123 33.9141 45.3738 34.0411 45.3015 34.149C45.2293 34.2569 45.1267 34.3409 45.0066 34.3904C44.8866 34.4399 44.7546 34.4526 44.6273 34.427C44.5 34.4014 44.3832 34.3385 44.2916 34.2464C44.2001 34.1543 44.138 34.0371 44.1132 33.9097C44.0883 33.7822 44.1019 33.6503 44.1522 33.5305C44.2024 33.4108 44.2871 33.3087 44.3954 33.2372C44.5038 33.1656 44.631 33.1279 44.7608 33.1287C44.8467 33.1287 44.9318 33.1457 45.0111 33.1787C45.0904 33.2117 45.1624 33.26 45.2229 33.321C45.2835 33.3819 45.3314 33.4542 45.3639 33.5337C45.3964 33.6132 45.4129 33.6984 45.4123 33.7843Z" fill="black"/>
<path opacity="0.28" d="M23.8132 37.0787C23.8132 37.2084 23.7748 37.3351 23.7027 37.443C23.6307 37.5508 23.5283 37.6348 23.4085 37.6844C23.2887 37.7341 23.1569 37.747 23.0297 37.7217C22.9025 37.6964 22.7857 37.634 22.694 37.5423C22.6023 37.4506 22.5398 37.3338 22.5146 37.2066C22.4893 37.0794 22.5022 36.9476 22.5519 36.8278C22.6015 36.708 22.6855 36.6056 22.7933 36.5336C22.9011 36.4615 23.0279 36.4231 23.1576 36.4231C23.3315 36.4231 23.4982 36.4922 23.6212 36.6151C23.7441 36.7381 23.8132 36.9048 23.8132 37.0787Z" fill="black"/>
<path opacity="0.28" d="M27.4152 37.0787C27.4152 37.2084 27.3768 37.3351 27.3048 37.443C27.2327 37.5508 27.1303 37.6348 27.0105 37.6844C26.8907 37.7341 26.7589 37.747 26.6317 37.7217C26.5045 37.6964 26.3877 37.634 26.296 37.5423C26.2043 37.4506 26.1419 37.3338 26.1166 37.2066C26.0913 37.0794 26.1043 36.9476 26.1539 36.8278C26.2035 36.708 26.2876 36.6056 26.3954 36.5336C26.5032 36.4615 26.63 36.4231 26.7596 36.4231C26.9335 36.4231 27.1003 36.4922 27.2232 36.6151C27.3462 36.7381 27.4152 36.9048 27.4152 37.0787Z" fill="black"/>
<path opacity="0.28" d="M31.0129 37.0787C31.0129 37.2084 30.9745 37.3352 30.9024 37.443C30.8304 37.5508 30.728 37.6348 30.6082 37.6844C30.4884 37.7341 30.3566 37.7471 30.2294 37.7218C30.1022 37.6965 29.9854 37.634 29.8937 37.5423C29.802 37.4506 29.7396 37.3338 29.7143 37.2066C29.689 37.0795 29.7019 36.9476 29.7516 36.8278C29.8012 36.708 29.8852 36.6056 29.993 36.5336C30.1009 36.4616 30.2276 36.4231 30.3573 36.4231C30.4435 36.4226 30.529 36.4391 30.6088 36.4719C30.6886 36.5047 30.7611 36.5529 30.8221 36.6139C30.8831 36.6749 30.9314 36.7474 30.9641 36.8272C30.9969 36.907 31.0135 36.9925 31.0129 37.0787Z" fill="black"/>
<path opacity="0.28" d="M34.615 37.0787C34.615 37.2084 34.5765 37.3351 34.5045 37.443C34.4324 37.5508 34.33 37.6348 34.2102 37.6844C34.0904 37.7341 33.9586 37.747 33.8314 37.7217C33.7043 37.6964 33.5874 37.634 33.4957 37.5423C33.4041 37.4506 33.3416 37.3338 33.3163 37.2066C33.291 37.0794 33.304 36.9476 33.3536 36.8278C33.4032 36.708 33.4873 36.6056 33.5951 36.5336C33.7029 36.4615 33.8297 36.4231 33.9593 36.4231C34.1332 36.4231 34.3 36.4922 34.4229 36.6151C34.5459 36.7381 34.615 36.9048 34.615 37.0787Z" fill="black"/>
<path opacity="0.28" d="M38.2126 37.0787C38.2126 37.2084 38.1742 37.3352 38.1021 37.443C38.0301 37.5508 37.9277 37.6348 37.8079 37.6844C37.6881 37.7341 37.5563 37.7471 37.4291 37.7218C37.3019 37.6965 37.1851 37.634 37.0934 37.5423C37.0017 37.4506 36.9393 37.3338 36.914 37.2066C36.8887 37.0795 36.9017 36.9476 36.9513 36.8278C37.0009 36.708 37.0849 36.6056 37.1928 36.5336C37.3006 36.4616 37.4273 36.4231 37.557 36.4231C37.6432 36.4226 37.7287 36.4391 37.8085 36.4719C37.8883 36.5047 37.9608 36.5529 38.0218 36.6139C38.0828 36.6749 38.1311 36.7474 38.1638 36.8272C38.1966 36.907 38.2132 36.9925 38.2126 37.0787Z" fill="black"/>
<path opacity="0.28" d="M41.8147 37.0787C41.8147 37.2084 41.7762 37.3351 41.7042 37.443C41.6321 37.5508 41.5297 37.6348 41.4099 37.6844C41.2901 37.7341 41.1583 37.747 41.0311 37.7217C40.904 37.6964 40.7871 37.634 40.6954 37.5423C40.6038 37.4506 40.5413 37.3338 40.516 37.2066C40.4907 37.0794 40.5037 36.9476 40.5533 36.8278C40.6029 36.708 40.687 36.6056 40.7948 36.5336C40.9026 36.4615 41.0294 36.4231 41.159 36.4231C41.3329 36.4231 41.4997 36.4922 41.6226 36.6151C41.7456 36.7381 41.8147 36.9048 41.8147 37.0787Z" fill="black"/>
<path opacity="0.28" d="M45.4123 37.0787C45.4123 37.2086 45.3738 37.3355 45.3015 37.4434C45.2293 37.5513 45.1267 37.6353 45.0066 37.6848C44.8866 37.7343 44.7546 37.7471 44.6273 37.7214C44.5 37.6958 44.3832 37.633 44.2916 37.5409C44.2001 37.4488 44.138 37.3316 44.1132 37.2041C44.0883 37.0767 44.1019 36.9447 44.1522 36.825C44.2024 36.7053 44.2871 36.6031 44.3954 36.5316C44.5038 36.4601 44.631 36.4223 44.7608 36.4231C44.8467 36.4231 44.9318 36.4401 45.0111 36.4731C45.0904 36.5061 45.1624 36.5544 45.2229 36.6154C45.2835 36.6763 45.3314 36.7486 45.3639 36.8281C45.3964 36.9077 45.4129 36.9928 45.4123 37.0787Z" fill="black"/>
<path d="M22.5474 44.3889H32.6071" stroke="#263238" stroke-linecap="round" stroke-linejoin="round"/>
<path d="M22.5474 51.1829H32.6071" stroke="#263238" stroke-linecap="round" stroke-linejoin="round"/>
<path d="M22.5474 57.9768H32.6071" stroke="#263238" stroke-linecap="round" stroke-linejoin="round"/>
<path d="M103.101 27.617C103.101 27.617 101.872 30.8459 102.122 31.2762C102.372 31.7065 103.015 32.78 102.671 33.6405C102.327 34.5011 100.962 34.6486 101.135 35.337C101.307 36.0254 102.253 36.5417 102.253 36.5417C102.253 36.5417 103.274 41.127 103.704 41.7293C104.134 42.3317 106.457 41.9875 106.457 41.9875L106.63 44.3108L113.518 43.8806L113.26 39.7501L112.915 27.0146L103.101 27.617Z" fill="white" stroke="#263238" stroke-linecap="round" stroke-linejoin="round"/>
<path d="M115.841 26.142C115.442 25.5806 114.925 25.1126 114.327 24.7702C113.73 24.4278 113.065 24.2192 112.378 24.1587C112.378 24.1587 110.621 22.6549 108.867 22.6549C107.113 22.6549 106.363 23.5318 105.236 23.5318C104.109 23.5318 103.355 22.155 101.475 24.1587C99.5938 26.1625 101.979 28.2933 101.979 28.2933C102.214 28.5424 102.506 28.7319 102.83 28.8459C103.153 28.9599 103.499 28.9952 103.839 28.9489C103.761 29.33 103.601 30.1782 103.536 30.8051C103.45 31.6656 104.999 32.6122 104.999 32.6122C104.949 33.1871 104.978 33.7661 105.085 34.3332C105.257 34.7635 105.687 34.8495 105.945 34.5053C106.203 34.1611 106.375 32.5261 106.634 33.2146C106.892 33.903 107.924 39.066 108.613 39.6684C109.301 40.2707 112.403 39.9265 113.264 39.7544C114.124 39.5823 115.759 35.9682 116.542 33.8169C117.324 31.6656 116.96 27.863 115.841 26.142Z" fill="#263238" stroke="#263238" stroke-linecap="round" stroke-linejoin="round"/>
<path d="M105.891 33.1574C106.005 33.9574 106.075 34.7631 106.1 35.5709C106.1 36.5174 105.469 37.0419 105.891 37.464C106.313 37.886 106.624 37.673 106.94 36.9354C107.279 36.0678 107.419 35.1352 107.35 34.2063C107.256 33.4729 107.149 31.8953 105.891 33.1574Z" fill="white" stroke="#263238" stroke-linecap="round" stroke-linejoin="round"/>
<path d="M98.8844 81.5054C98.8844 81.5054 96.7331 95.8471 95.0735 109.976C93.414 124.105 93.6189 143.822 93.6189 143.822L97.9952 143.798C97.9952 143.798 102.962 116.204 104.002 113.09C105.043 109.976 108.571 96.892 108.571 96.892C108.571 96.892 110.44 111.844 111.063 112.873C111.685 113.901 120.131 143.99 120.131 143.99L124.704 143.933L120.196 111.447L117.701 81.534L98.8844 81.5054Z" fill="#263238" stroke="#263238" stroke-linecap="round" stroke-linejoin="round"/>
<path d="M116.615 91.9995L110.505 94.3147L108.571 96.8921" stroke="white" stroke-width="0.75" stroke-linecap="round" stroke-linejoin="round"/>
<path d="M101.917 85.2301H107.366" stroke="white" stroke-width="0.75" stroke-linecap="round" stroke-linejoin="round"/>
<path d="M117.275 85.2301H115.128" stroke="white" stroke-width="0.75" stroke-linecap="round" stroke-linejoin="round"/>
<path d="M93.3853 143.99L92.6273 145.039C92.6273 145.039 86.3251 147.609 86.3251 147.842C86.3251 148.076 86.2677 148.252 86.7922 148.252H94.9015L95.7784 147.961V148.252H98.1099L98.1673 143.937L93.3853 143.99Z" fill="#263238"/>
<path d="M120.163 143.99L119.405 145.039C119.405 145.039 113.107 147.609 113.107 147.842C113.107 148.076 113.046 148.252 113.57 148.252H121.684L122.556 147.961V148.252H124.892L124.949 143.937L120.163 143.99Z" fill="#263238"/>
<path d="M104.995 44.0407L103.102 47.4827C103.102 47.4827 107.834 46.1059 110.416 46.1059C112.235 46.1383 114.049 46.311 115.841 46.6222L114.477 43.8317C114.477 43.8317 108.092 42.5778 104.995 44.0407Z" fill="#0091BF" stroke="#263238" stroke-linecap="round" stroke-linejoin="round"/>
<path d="M122.692 49.1338L128.515 72.8141C128.599 73.155 128.61 73.5096 128.547 73.855C128.485 74.2005 128.351 74.5289 128.153 74.8191C127.956 75.1093 127.7 75.3547 127.401 75.5394C127.103 75.7242 126.769 75.8441 126.421 75.8914L113.874 77.6084L114.173 73.5558L120.475 70.5563L119.123 63.8034C119.123 63.8034 120.541 49.3059 122.692 49.1338Z" fill="#0091BF" stroke="#263238" stroke-linecap="round" stroke-linejoin="round"/>
<path d="M103.679 46.5155C102.004 46.8535 100.374 47.3871 98.8232 48.1054C97.983 48.5236 97.1213 48.897 96.2417 49.2241C96.2417 49.2241 98.4667 78.0756 98.4667 79.5467C98.4667 81.0178 98.3807 81.0956 98.8765 81.5259C99.3723 81.9561 102.064 82.1528 106.797 82.0667C111.53 81.9807 115.747 82.0422 116.177 82.0422C116.525 82.0172 116.862 81.9107 117.161 81.7314C117.46 81.552 117.712 81.3047 117.898 81.0095C118.414 80.2351 122.598 49.4986 122.684 49.1544C122.77 48.8102 116.181 46.8188 115.574 46.6426C112.202 45.6468 107.678 45.6796 103.679 46.5155Z" fill="#0091BF" stroke="#263238" stroke-linecap="round" stroke-linejoin="round"/>
<path d="M114.222 69.0033C113.678 69.4949 113.099 69.9455 112.488 70.3514" stroke="#263238" stroke-linecap="round" stroke-linejoin="round"/>
<path d="M120.541 57.7595C120.541 57.7595 119.344 63.0455 115.853 67.262" stroke="#263238" stroke-linecap="round" stroke-linejoin="round"/>
<path d="M121.081 70.6425C121.081 70.6425 122.343 72.4126 125.429 72.6175" stroke="#263238" stroke-linecap="round" stroke-linejoin="round"/>
<path d="M120.475 70.5648C120.682 71.2084 121.017 71.8032 121.461 72.3131C121.905 72.8231 122.447 73.2376 123.056 73.5315" stroke="#263238" stroke-linecap="round" stroke-linejoin="round"/>
<path d="M96.2298 49.2117L84.0721 53.0225L72.0045 37.9841L69.6606 39.9387L80.4743 60.7425C80.8069 61.3846 81.3425 61.8987 81.9976 62.2048C82.6528 62.5109 83.3908 62.5918 84.0967 62.4348L96.9961 59.5787C96.9961 59.5787 98.586 55.2352 96.2298 49.2117Z" fill="#0091BF" stroke="#263238" stroke-linecap="round" stroke-linejoin="round"/>
<path d="M83.6863 53.5144C83.6863 53.5144 82.5021 55.0961 82.6332 56.7925" stroke="#263238" stroke-linecap="round" stroke-linejoin="round"/>
<path d="M81.7109 54.8339C81.7109 54.8339 81.1823 57.2023 82.1206 58.6529" stroke="#263238" stroke-linecap="round" stroke-linejoin="round"/>
<path d="M96.9961 59.5789C96.9961 59.5789 100.016 63.1151 102.385 64.2994" stroke="#263238" stroke-linecap="round" stroke-linejoin="round"/>
<path d="M97.7739 61.4147C97.7739 61.4147 99.4867 65.3689 102.912 67.2087" stroke="#263238" stroke-linecap="round" stroke-linejoin="round"/>
<path d="M70.7007 42.0206L73.3068 40.3282" stroke="#263238" stroke-linecap="round" stroke-linejoin="round"/>
<path d="M72.004 37.9842C72.004 37.9842 72.8236 36.968 72.8236 36.0296C72.8236 35.0912 72.1679 33.9808 72.4507 33.2145C72.7334 32.4483 73.9504 31.5263 72.9178 31.2435C71.8852 30.9608 71.0411 31.5263 70.9468 32.2761C70.8526 33.026 70.9468 33.1203 70.9468 33.1203C70.9468 33.1203 69.82 30.8666 69.0701 30.1167C68.3203 29.3668 67.7589 28.5227 67.2876 28.5227C66.8164 28.5227 66.3493 28.8013 66.632 29.2726C66.9148 29.7438 68.3203 31.9934 68.3203 31.9934L68.603 32.9318C68.603 32.9318 67.0049 33.026 66.8164 33.3088C66.6279 33.5915 66.7263 34.4356 66.255 34.997C65.7838 35.5584 65.8781 36.1238 66.0665 36.6893C66.255 37.2548 66.8164 38.1891 67.1934 38.1891C67.425 38.1868 67.6516 38.1216 67.849 38.0006L69.6397 39.9388L72.004 37.9842Z" fill="white" stroke="#263238" stroke-linecap="round" stroke-linejoin="round"/>
<path d="M67.87 38.0006L66.9316 36.5951" stroke="#263238" stroke-linecap="round" stroke-linejoin="round"/>
</svg>
