<svg width="162" height="830" viewBox="0 0 162 830" fill="none" xmlns="http://www.w3.org/2000/svg">
<path d="M0 23.0941C0 20.4294 0.890679 18.6529 2.67204 16.8765C4.4534 15.1 6.23475 15.1 8.01611 15.1C9.79747 15.1 12.4695 15.9882 13.3602 16.8765C15.1415 18.6529 16.0322 20.4294 16.0322 23.0941V35.5294C16.0322 38.1941 15.1415 39.9706 13.3602 41.7471C11.5788 43.5236 9.79747 43.5235 8.01611 43.5235C6.23475 43.5235 4.4534 42.6353 2.67204 41.7471C0.890679 39.9706 0 38.1941 0 35.5294V23.0941ZM12.4695 23.0941C12.4695 20.4294 10.6882 18.6529 8.90679 18.6529C6.23475 18.6529 5.34408 20.4294 5.34408 23.0941V35.5294C5.34408 38.1941 7.12543 39.9706 8.90679 39.9706C11.5788 39.9706 12.4695 38.1941 12.4695 35.5294V23.0941Z" fill="#0F4753"/>
<path d="M1.78125 70.1706V65.7295L6.23465 63.0648H10.688V91.4883H6.23465V67.5059L1.78125 70.1706Z" fill="#0F4753"/>
<path d="M1.78125 118.135V113.694L6.23465 111.03H10.688V139.453H6.23465V115.471L1.78125 118.135Z" fill="#0F4753"/>
<path d="M1.78125 165.212V160.771L6.23465 158.106H10.688V186.53H6.23465V162.547L1.78125 165.212Z" fill="#0F4753"/>
<path d="M0 214.065C0 211.4 0.890679 209.624 2.67204 207.847C4.4534 206.071 6.23475 206.071 8.01611 206.071C9.79747 206.071 12.4695 206.959 13.3602 207.847C15.1415 209.624 16.0322 211.4 16.0322 214.065V226.5C16.0322 229.165 15.1415 230.941 13.3602 232.718C11.5788 234.494 9.79747 234.494 8.01611 234.494C6.23475 234.494 4.4534 233.606 2.67204 232.718C0.890679 230.941 0 229.165 0 226.5V214.065ZM12.4695 214.065C12.4695 211.4 10.6882 209.624 8.90679 209.624C6.23475 209.624 5.34408 211.4 5.34408 214.065V226.5C5.34408 229.165 7.12543 230.941 8.90679 230.941C11.5788 230.941 12.4695 229.165 12.4695 226.5V214.065Z" fill="#0F4753"/>
<path d="M0 262.03C0 259.365 0.890679 257.588 2.67204 255.812C4.4534 254.035 6.23475 254.036 8.01611 254.036C9.79747 254.036 12.4695 254.924 13.3602 255.812C15.1415 257.588 16.0322 259.365 16.0322 262.03V274.465C16.0322 277.13 15.1415 278.906 13.3602 280.683C12.4695 281.571 10.6881 282.459 8.01611 282.459C6.23475 282.459 4.4534 281.571 2.67204 280.683C0.890679 278.906 0 277.13 0 274.465V262.03ZM12.4695 262.03C12.4695 259.365 10.6882 257.588 8.90679 257.588C6.23475 257.588 5.34408 259.365 5.34408 262.03V274.465C5.34408 277.13 7.12543 278.906 8.90679 278.906C11.5788 278.906 12.4695 277.13 12.4695 274.465V262.03Z" fill="#0F4753"/>
<path d="M1.78125 309.106V304.665L6.23465 302H10.688V330.424H6.23465V306.441L1.78125 309.106Z" fill="#0F4753"/>
<path d="M1.78125 357.071V352.63L6.23465 349.965H10.688V378.389H6.23465V353.518L1.78125 357.071Z" fill="#0F4753"/>
<path d="M0 405.036C0 402.371 0.890679 400.594 2.67204 398.818C4.4534 397.042 6.23475 397.042 8.01611 397.042C9.79747 397.042 12.4695 397.93 13.3602 398.818C15.1415 400.594 16.0322 402.371 16.0322 405.036V417.471C16.0322 420.136 15.1415 421.912 13.3602 423.689C11.5788 425.465 9.79747 425.465 8.01611 425.465C6.23475 425.465 4.4534 424.577 2.67204 423.689C0.890679 422.8 0 420.136 0 417.471V405.036ZM12.4695 405.924C12.4695 403.259 10.6882 401.483 8.90679 401.483C6.23475 401.483 5.34408 403.259 5.34408 405.924V418.359C5.34408 421.024 7.12543 422.8 8.90679 422.8C11.5788 422.8 12.4695 421.024 12.4695 418.359V405.924Z" fill="#0F4753"/>
<path d="M1.78125 500.077V495.636L6.23465 492.971H10.688V521.395H6.23465V497.412L1.78125 500.077Z" fill="#0F4753"/>
<path d="M0 548.93C0 546.265 0.890679 544.489 2.67204 542.712C4.4534 540.936 6.23475 540.936 8.01611 540.936C9.79747 540.936 12.4695 541.824 13.3602 542.712C15.1415 544.489 16.0322 546.265 16.0322 548.93V561.365C16.0322 564.03 15.1415 565.806 13.3602 567.583C11.5788 569.359 9.79747 569.359 8.01611 569.359C6.23475 569.359 4.4534 568.471 2.67204 567.583C0.890679 565.806 0 564.03 0 561.365L0 548.93ZM12.4695 548.93C12.4695 546.265 10.6882 544.489 8.90679 544.489C6.23475 544.489 5.34408 546.265 5.34408 548.93V561.365C5.34408 564.03 7.12543 565.806 8.90679 565.806C11.5788 565.806 12.4695 564.03 12.4695 561.365V548.93Z" fill="#0F4753"/>
<path d="M41.8613 129.683C41.8613 127.906 42.752 127.018 43.6427 126.13C44.5334 125.241 45.424 125.241 47.2054 125.241C48.9868 125.241 49.8774 125.241 50.7681 126.13C51.6588 127.018 52.5495 127.906 52.5495 129.683V137.677C52.5495 139.453 51.6588 140.341 50.7681 141.23C49.8774 142.118 48.9868 142.118 47.2054 143.006C45.424 143.006 44.5334 142.118 43.6427 141.23C42.752 140.341 41.8613 139.453 41.8613 137.677V129.683ZM48.9868 129.683C48.9868 127.906 48.0961 127.018 46.3147 127.018C44.5334 127.018 43.6427 127.906 43.6427 129.683V136.788C43.6427 139.453 44.5334 140.341 46.3147 140.341C48.0961 140.341 48.9868 139.453 48.9868 137.677V129.683Z" fill="#0F4753"/>
<path d="M42.752 158.994V156.33L45.424 154.553H48.096V172.318H45.424V157.218L42.752 158.994Z" fill="#0F4753"/>
<path d="M42.752 189.194V186.53L45.424 184.753H48.096V202.518H45.424V187.418L42.752 189.194Z" fill="#0F4753"/>
<path d="M42.752 219.394V216.73L45.424 214.953H48.096V232.718H45.424V217.618L42.752 219.394Z" fill="#0F4753"/>
<path d="M41.8613 249.595C41.8613 247.818 42.752 246.93 43.6427 246.042C44.5334 245.153 45.424 245.153 47.2054 245.153C48.9868 245.153 49.8774 245.153 50.7681 246.042C51.6588 246.93 52.5495 247.818 52.5495 249.595V257.589C52.5495 259.365 51.6588 260.253 50.7681 261.142C49.8774 262.03 48.9868 262.03 47.2054 262.918C45.424 262.918 44.5334 262.03 43.6427 261.142C42.752 260.253 41.8613 259.365 41.8613 257.589V249.595ZM48.9868 249.595C48.9868 247.818 48.0961 246.93 46.3147 246.93C44.5334 246.93 43.6427 247.818 43.6427 249.595V256.7C43.6427 258.477 44.5334 259.365 46.3147 259.365C48.0961 259.365 48.9868 258.477 48.9868 256.7V249.595Z" fill="#0F4753"/>
<path d="M41.8614 278.906C41.8614 277.13 42.7521 276.241 43.6427 275.353C43.6427 274.465 45.4241 273.577 46.3148 273.577C48.0961 273.577 48.9868 273.577 49.8775 274.465C50.7682 275.353 51.6589 276.241 51.6589 278.018V286.012C51.6589 287.788 50.7682 288.677 49.8775 289.565C48.9868 290.453 48.0961 290.453 46.3148 291.341C44.5334 291.341 43.6427 290.453 42.7521 289.565C41.8614 288.677 40.9707 287.788 40.9707 286.012V278.906H41.8614ZM48.9868 278.906C48.9868 277.13 48.0961 276.241 46.3148 276.241C44.5334 276.241 43.6427 277.13 43.6427 278.906V286.012C43.6427 287.788 44.5334 288.677 46.3148 288.677C48.0961 288.677 48.9868 287.788 48.9868 286.012V278.906Z" fill="#0F4753"/>
<path d="M41.8613 309.106C41.8613 307.33 42.752 306.441 43.6427 305.553C44.5334 304.665 45.424 304.665 47.2054 304.665C48.9868 304.665 49.8774 304.665 50.7681 305.553C51.6588 306.441 52.5495 307.33 52.5495 309.106V317.1C52.5495 318.877 51.6588 319.765 50.7681 320.653C49.8774 321.541 48.9868 321.541 47.2054 322.43C45.424 322.43 44.5334 321.541 43.6427 320.653C42.752 319.765 41.8613 318.877 41.8613 317.1V309.106ZM48.9868 309.106C48.9868 307.33 48.0961 306.441 46.3147 306.441C44.5334 306.441 43.6427 307.33 43.6427 309.106V316.212C43.6427 317.988 44.5334 318.877 46.3147 318.877C48.0961 318.877 48.9868 317.988 48.9868 316.212V309.106Z" fill="#0F4753"/>
<path d="M42.752 338.418V335.753L45.424 333.977H48.096V351.742H45.424V336.641L42.752 338.418Z" fill="#0F4753"/>
<path d="M42.752 367.73V365.065L45.424 363.289H48.096V381.053H45.424V365.953L42.752 367.73Z" fill="#0F4753"/>
<path d="M42.752 397.93V395.265L45.424 393.489H48.096V411.253H45.424V396.153L42.752 397.93Z" fill="#0F4753"/>
<path d="M41.8613 428.13C41.8613 426.353 42.752 425.465 43.6427 424.577C44.5334 423.689 45.424 423.689 47.2054 423.689C48.9868 423.689 49.8774 423.689 50.7681 424.577C51.6588 425.465 52.5495 426.353 52.5495 428.13V436.124C52.5495 437.9 51.6588 438.789 50.7681 439.677C49.8774 440.565 48.9868 440.565 47.2054 441.453C45.424 441.453 44.5334 440.565 43.6427 439.677C42.752 438.789 41.8613 437.9 41.8613 436.124V428.13ZM48.9868 428.13C48.9868 426.353 48.0961 425.465 46.3147 425.465C44.5334 425.465 43.6427 426.353 43.6427 428.13V435.236C43.6427 437.012 44.5334 437.9 46.3147 437.9C48.0961 437.9 48.9868 437.012 48.9868 435.236V428.13Z" fill="#0F4753"/>
<path d="M41.8613 458.33C41.8613 456.553 42.752 455.665 43.6427 454.777C44.5334 453.889 45.424 453.889 47.2054 453.889C48.9868 453.889 49.8774 453.889 50.7681 454.777C51.6588 455.665 52.5495 456.553 52.5495 458.33V466.324C52.5495 468.1 51.6588 468.989 50.7681 469.877C49.8774 470.765 48.9868 470.765 47.2054 471.653C45.424 471.653 44.5334 470.765 43.6427 469.877C42.752 468.989 41.8613 468.1 41.8613 466.324V458.33ZM48.9868 458.33C48.9868 456.553 48.0961 455.665 46.3147 455.665C44.5334 455.665 43.6427 456.553 43.6427 458.33V465.436C43.6427 467.212 44.5334 468.1 46.3147 468.1C48.0961 468.1 48.9868 467.212 48.9868 465.436V458.33Z" fill="#0F4753"/>
<path d="M42.752 487.642V484.977L45.424 483.2H48.096V500.965H45.424V485.865L42.752 487.642Z" fill="#0F4753"/>
<path d="M42.752 516.953V514.289L45.424 512.512H48.096V530.277H45.424V515.177L42.752 516.953Z" fill="#0F4753"/>
<path d="M41.8613 547.153C41.8613 545.377 42.752 544.489 43.6427 543.601C44.5334 542.712 45.424 542.712 47.2054 542.712C48.9868 542.712 49.8774 542.712 50.7681 543.601C51.6588 544.489 52.5495 545.377 52.5495 547.153V555.148C52.5495 556.924 51.6588 557.812 50.7681 558.7C49.8774 559.589 48.9868 559.589 47.2054 560.477C45.424 560.477 44.5334 559.589 43.6427 558.7C42.752 557.812 41.8613 556.924 41.8613 555.148V547.153ZM48.9868 548.042C48.9868 546.265 48.0961 545.377 46.3147 545.377C44.5334 545.377 43.6427 546.265 43.6427 548.042V555.148C43.6427 556.924 44.5334 557.812 46.3147 557.812C48.0961 557.812 48.9868 556.924 48.9868 555.148V548.042Z" fill="#0F4753"/>
<path d="M42.752 606.665V604.001L45.424 602.224H48.096V619.989H45.424V604.889L42.752 606.665Z" fill="#0F4753"/>
<path d="M41.8613 636.865C41.8613 635.089 42.752 634.2 43.6427 633.312C44.5334 632.424 45.424 632.424 47.2054 632.424C48.9868 632.424 49.8774 632.424 50.7681 633.312C51.6588 634.2 52.5495 635.089 52.5495 636.865V644.859C52.5495 646.636 51.6588 647.524 50.7681 648.412C49.8774 649.3 48.9868 649.3 47.2054 650.189C45.424 650.189 44.5334 649.3 43.6427 648.412C42.752 647.524 41.8613 646.636 41.8613 644.859V636.865ZM48.9868 636.865C48.9868 635.089 48.0961 634.2 46.3147 634.2C44.5334 634.2 43.6427 635.089 43.6427 636.865V643.971C43.6427 645.747 44.5334 646.636 46.3147 646.636C48.0961 646.636 48.9868 645.747 48.9868 643.971V636.865Z" fill="#0F4753"/>
<path d="M42.752 666.177V663.512L45.424 661.736H48.096V679.501H45.424V664.401L42.752 666.177Z" fill="#0F4753"/>
<path d="M42.752 696.377V693.712L45.424 691.936H48.096V709.701H45.424V694.601L42.752 696.377Z" fill="#0F4753"/>
<path d="M41.8613 726.577C41.8613 724.801 42.752 723.912 43.6427 723.024C44.5334 722.136 45.424 722.136 47.2054 722.136C48.9868 722.136 49.8774 722.136 50.7681 723.024C51.6588 723.912 52.5495 724.801 52.5495 726.577V734.571C52.5495 736.348 51.6588 737.236 50.7681 738.124C49.8774 739.012 48.9868 739.012 47.2054 739.901C45.424 739.901 44.5334 739.012 43.6427 738.124C42.752 737.236 41.8613 736.348 41.8613 734.571V726.577ZM48.9868 726.577C48.9868 724.801 48.0961 723.912 46.3147 723.912C44.5334 723.912 43.6427 724.801 43.6427 726.577V733.683C43.6427 735.459 44.5334 736.348 46.3147 736.348C48.0961 736.348 48.9868 735.459 48.9868 733.683V726.577Z" fill="#0F4753"/>
<path d="M42.752 786.089V783.424L45.424 781.648H48.096V799.412H45.424V784.312L42.752 786.089Z" fill="#0F4753"/>
<path d="M41.8613 816.289C41.8613 814.512 42.752 813.624 43.6427 812.736C44.5334 811.848 45.424 811.848 47.2054 811.848C48.9868 811.848 49.8774 811.848 50.7681 812.736C51.6588 813.624 52.5495 814.512 52.5495 816.289V824.283C52.5495 826.059 51.6588 826.948 50.7681 827.836C49.8774 828.724 48.9868 828.724 47.2054 829.612C45.424 829.612 44.5334 828.724 43.6427 827.836C42.752 826.948 41.8613 826.059 41.8613 824.283V816.289ZM48.9868 816.289C48.9868 814.512 48.0961 813.624 46.3147 813.624C44.5334 813.624 43.6427 814.512 43.6427 816.289V823.395C43.6427 825.171 44.5334 826.059 46.3147 826.059C48.0961 826.059 48.9868 825.171 48.9868 823.395V816.289Z" fill="#0F4753"/>
<path d="M81.9414 201.63C81.9414 198.965 82.8321 197.188 84.6134 195.412C86.3948 193.635 88.1762 193.635 89.9575 193.635C91.7389 193.635 94.4109 194.524 95.3016 195.412C97.083 197.188 97.9736 198.965 97.9736 201.63V214.065C97.9736 216.73 97.083 218.506 95.3016 220.282C93.5202 222.059 91.7389 222.059 89.9575 222.059C88.1762 222.059 86.3948 221.171 84.6134 220.282C82.8321 218.506 81.9414 216.73 81.9414 214.065V201.63ZM94.4109 201.63C94.4109 198.965 92.6296 197.188 90.8482 197.188C88.1762 197.188 87.2855 198.965 87.2855 201.63V214.065C87.2855 216.73 89.0668 218.506 90.8482 218.506C93.5202 218.506 94.4109 216.73 94.4109 214.065V201.63Z" fill="#0F4753"/>
<path d="M84.6135 248.706V244.265L89.0669 241.6H93.5203V270.024H88.1762V246.041L84.6135 248.706Z" fill="#0F4753"/>
<path d="M84.6135 296.671V292.23L89.0669 289.565H93.5203V317.988H88.1762V294.006L84.6135 296.671Z" fill="#0F4753"/>
<path d="M84.6135 344.636V340.194L89.0669 337.53H93.5203V365.953H88.1762V341.971L84.6135 344.636Z" fill="#0F4753"/>
<path d="M81.9414 392.6C81.9414 389.936 82.8321 388.159 84.6134 386.383C86.3948 384.606 88.1762 384.606 89.9575 384.606C91.7389 384.606 94.4109 385.494 95.3016 386.383C97.083 388.159 97.9736 389.936 97.9736 392.6V405.036C97.9736 407.7 97.083 409.477 95.3016 411.253C93.5202 413.03 91.7389 413.03 89.9575 413.03C88.1762 413.03 86.3948 412.141 84.6134 411.253C82.8321 409.477 81.9414 407.7 81.9414 405.036V392.6ZM94.4109 392.6C94.4109 389.936 92.6296 388.159 90.8482 388.159C88.1762 388.159 87.2855 389.936 87.2855 392.6V405.036C87.2855 407.7 89.0668 409.477 90.8482 409.477C93.5202 409.477 94.4109 407.7 94.4109 405.036V392.6Z" fill="#0F4753"/>
<path d="M81.9414 440.565C81.9414 437.9 82.8321 436.124 84.6134 434.347C86.3948 432.571 88.1762 432.571 89.9575 432.571C91.7389 432.571 94.4109 433.459 95.3016 434.347C97.083 436.124 97.9736 437.9 97.9736 440.565V453C97.9736 455.665 97.083 457.441 95.3016 459.218C93.5202 460.994 91.7389 460.994 89.9575 460.994C88.1762 460.994 86.3948 460.106 84.6134 459.218C82.8321 457.441 81.9414 455.665 81.9414 453V440.565ZM94.4109 440.565C94.4109 437.9 92.6296 436.124 90.8482 436.124C88.1762 436.124 87.2855 437.9 87.2855 440.565V453C87.2855 455.665 89.0668 457.441 90.8482 457.441C93.5202 457.441 94.4109 455.665 94.4109 453V440.565Z" fill="#0F4753"/>
<path d="M84.6135 487.642V483.2L89.0669 480.536H93.5203V508.959H88.1762V484.977L84.6135 487.642Z" fill="#0F4753"/>
<path d="M84.6135 535.606V531.165L89.0669 528.5H93.5203V556.924H88.1762V532.942L84.6135 535.606Z" fill="#0F4753"/>
<path d="M81.9414 583.571C81.9414 580.906 82.8321 579.13 84.6134 577.353C86.3948 575.577 88.1762 575.577 89.9575 575.577C91.7389 575.577 94.4109 576.465 95.3016 577.353C97.083 579.13 97.9736 580.906 97.9736 583.571V596.006C97.9736 598.671 97.083 600.447 95.3016 602.224C93.5202 604 91.7389 604 89.9575 604C88.1762 604 86.3948 603.112 84.6134 602.224C82.8321 600.447 81.9414 598.671 81.9414 596.006V583.571ZM94.4109 584.459C94.4109 581.794 92.6296 580.018 90.8482 580.018C88.1762 580.018 87.2855 581.794 87.2855 584.459V596.894C87.2855 599.559 89.0668 601.336 90.8482 601.336C93.5202 601.336 94.4109 599.559 94.4109 596.894V584.459Z" fill="#0F4753"/>
<path d="M84.6135 678.612V674.171L89.0669 671.506H93.5203V699.93H88.1762V675.948L84.6135 678.612Z" fill="#0F4753"/>
<path d="M81.9414 727.465C81.9414 724.8 82.8321 723.024 84.6134 721.248C86.3948 719.471 88.1762 719.471 89.9575 719.471C91.7389 719.471 94.4109 720.359 95.3016 721.248C97.083 723.024 97.9736 724.8 97.9736 727.465V739.9C97.9736 742.565 97.083 744.342 95.3016 746.118C93.5202 747.895 91.7389 747.895 89.9575 747.895C88.1762 747.895 86.3948 747.006 84.6134 746.118C82.8321 744.342 81.9414 742.565 81.9414 739.9V727.465ZM94.4109 727.465C94.4109 724.8 92.6296 723.024 90.8482 723.024C88.1762 723.024 87.2855 724.8 87.2855 727.465V739.9C87.2855 742.565 89.0668 744.342 90.8482 744.342C93.5202 744.342 94.4109 742.565 94.4109 739.9V727.465Z" fill="#0F4753"/>
<path d="M119.351 4.44118C119.351 2.66471 120.241 1.77646 121.132 0.888223C122.023 -1.35666e-05 122.913 0 124.695 0C126.476 0 127.367 -1.35666e-05 128.257 0.888223C129.148 1.77646 130.039 2.66471 130.039 4.44118V12.4353C130.039 14.2118 129.148 15.1 128.257 15.9882C127.367 16.8765 126.476 16.8765 124.695 17.7647C122.913 17.7647 122.023 16.8765 121.132 15.9882C120.241 15.1 119.351 14.2118 119.351 12.4353V4.44118ZM127.367 4.44118C127.367 2.66471 126.476 1.77648 124.695 1.77648C122.913 1.77648 122.023 2.66471 122.023 4.44118V11.5471C122.023 13.3235 122.913 14.2118 124.695 14.2118C126.476 14.2118 127.367 13.3235 127.367 11.5471V4.44118Z" fill="#0F4753"/>
<path d="M121.132 33.7529V31.0882L123.804 29.3118H126.476V47.0765H123.804V31.9765L121.132 33.7529Z" fill="#0F4753"/>
<path d="M121.132 63.0647V60.4L123.804 58.6235H126.476V76.3883H123.804V61.2882L121.132 63.0647Z" fill="#0F4753"/>
<path d="M121.132 93.2648V90.6001L123.804 88.8236H126.476V106.588H123.804V91.4883L121.132 93.2648Z" fill="#0F4753"/>
<path d="M119.351 123.465C119.351 121.688 120.241 120.8 121.132 119.912C122.023 119.024 122.913 119.024 124.695 119.024C126.476 119.024 127.367 119.024 128.257 119.912C129.148 120.8 130.039 121.688 130.039 123.465V131.459C130.039 133.235 129.148 134.124 128.257 135.012C127.367 135.9 126.476 135.9 124.695 136.788C122.913 136.788 122.023 135.9 121.132 135.012C120.241 134.124 119.351 133.235 119.351 131.459V123.465ZM127.367 123.465C127.367 121.688 126.476 120.8 124.695 120.8C122.913 120.8 122.023 121.688 122.023 123.465V131.459C122.023 133.235 122.913 134.124 124.695 134.124C126.476 134.124 127.367 133.235 127.367 131.459V123.465Z" fill="#0F4753"/>
<path d="M119.351 153.665C119.351 151.888 120.241 151 121.132 150.112C122.023 149.224 122.913 149.224 124.695 149.224C126.476 149.224 127.367 149.224 128.257 150.112C129.148 151 130.039 151.888 130.039 153.665V161.659C130.039 163.435 129.148 164.324 128.257 165.212C127.367 166.1 126.476 166.1 124.695 166.988C122.913 166.988 122.023 166.1 121.132 165.212C120.241 164.324 119.351 163.435 119.351 161.659V153.665ZM127.367 153.665C127.367 151.888 126.476 151 124.695 151C122.913 151 122.023 151.888 122.023 153.665V160.771C122.023 162.547 122.913 163.435 124.695 163.435C126.476 163.435 127.367 162.547 127.367 160.771V153.665Z" fill="#0F4753"/>
<path d="M119.351 182.977C119.351 181.2 120.241 180.312 121.132 179.424C122.023 178.535 122.913 178.535 124.695 178.535C126.476 178.535 127.367 178.535 128.257 179.424C129.148 180.312 130.039 181.2 130.039 182.977V190.971C130.039 192.747 129.148 193.635 128.257 194.524C127.367 195.412 126.476 195.412 124.695 196.3C122.913 196.3 122.023 195.412 121.132 194.524C120.241 193.635 119.351 192.747 119.351 190.971V182.977ZM127.367 182.977C127.367 181.2 126.476 180.312 124.695 180.312C122.913 180.312 122.023 181.2 122.023 182.977V190.082C122.023 191.859 122.913 192.747 124.695 192.747C126.476 192.747 127.367 191.859 127.367 190.082V182.977Z" fill="#0F4753"/>
<path d="M121.132 212.288V209.624L123.804 207.847H126.476V225.612H123.804V210.512L121.132 212.288Z" fill="#0F4753"/>
<path d="M121.132 242.488V239.824L123.804 238.047H126.476V255.812H123.804V240.712L121.132 242.488Z" fill="#0F4753"/>
<path d="M121.132 271.8V269.136L123.804 267.359H126.476V285.124H123.804V270.024L121.132 271.8Z" fill="#0F4753"/>
<path d="M119.351 302C119.351 300.224 120.241 299.336 121.132 298.447C122.023 297.559 122.913 297.559 124.695 297.559C126.476 297.559 127.367 297.559 128.257 298.447C129.148 299.336 130.039 300.224 130.039 302V309.994C130.039 311.771 129.148 312.659 128.257 313.547C127.367 314.436 126.476 314.435 124.695 315.324C122.913 315.324 122.023 314.436 121.132 313.547C120.241 312.659 119.351 311.771 119.351 309.994V302ZM127.367 302.888C127.367 301.112 126.476 300.224 124.695 300.224C122.913 300.224 122.023 301.112 122.023 302.888V309.994C122.023 311.771 122.913 312.659 124.695 312.659C126.476 312.659 127.367 311.771 127.367 309.994V302.888Z" fill="#0F4753"/>
<path d="M119.351 332.2C119.351 330.424 120.241 329.535 121.132 328.647C122.023 327.759 122.913 327.759 124.695 327.759C126.476 327.759 127.367 327.759 128.257 328.647C129.148 329.535 130.039 330.424 130.039 332.2V340.194C130.039 341.971 129.148 342.859 128.257 343.747C127.367 344.636 126.476 344.635 124.695 345.524C122.913 345.524 122.023 344.636 121.132 343.747C120.241 342.859 119.351 341.971 119.351 340.194V332.2ZM127.367 332.2C127.367 330.424 126.476 329.536 124.695 329.536C122.913 329.536 122.023 330.424 122.023 332.2V339.306C122.023 341.083 122.913 341.971 124.695 341.971C126.476 341.971 127.367 341.083 127.367 339.306V332.2Z" fill="#0F4753"/>
<path d="M121.132 361.512V358.847L123.804 357.071H126.476V374.836H123.804V359.735L121.132 361.512Z" fill="#0F4753"/>
<path d="M121.132 391.712V389.047L123.804 387.271H126.476V405.036H123.804V389.936L121.132 391.712Z" fill="#0F4753"/>
<path d="M119.351 421.912C119.351 420.136 120.241 419.247 121.132 418.359C122.023 417.471 122.913 417.471 124.695 417.471C126.476 417.471 127.367 417.471 128.257 418.359C129.148 419.247 130.039 420.136 130.039 421.912V429.906C130.039 431.683 129.148 432.571 128.257 433.459C127.367 434.347 126.476 434.347 124.695 435.236C122.913 435.236 122.023 434.347 121.132 433.459C120.241 432.571 119.351 431.683 119.351 429.906V421.912ZM127.367 421.912C127.367 420.136 126.476 419.247 124.695 419.247C122.913 419.247 122.023 420.136 122.023 421.912V429.018C122.023 430.794 122.913 431.683 124.695 431.683C126.476 431.683 127.367 430.794 127.367 429.018V421.912Z" fill="#0F4753"/>
<path d="M121.132 481.424V478.759L123.804 476.983H126.476V494.747H123.804V479.647L121.132 481.424Z" fill="#0F4753"/>
<path d="M119.351 511.624C119.351 509.847 120.241 508.959 121.132 508.071C122.023 507.183 122.913 507.183 124.695 507.183C126.476 507.183 127.367 507.183 128.257 508.071C129.148 508.959 130.039 509.847 130.039 511.624V519.618C130.039 521.394 129.148 522.283 128.257 523.171C127.367 524.059 126.476 524.059 124.695 524.947C122.913 524.947 122.023 524.059 121.132 523.171C120.241 522.283 119.351 521.394 119.351 519.618V511.624ZM127.367 511.624C127.367 509.847 126.476 508.959 124.695 508.959C122.913 508.959 122.023 509.847 122.023 511.624V518.73C122.023 520.506 122.913 521.394 124.695 521.394C126.476 521.394 127.367 520.506 127.367 518.73V511.624Z" fill="#0F4753"/>
<path d="M121.132 540.936V538.271L123.804 536.494H126.476V554.259H123.804V539.159L121.132 540.936Z" fill="#0F4753"/>
<path d="M121.132 570.248V567.583L123.804 565.806H126.476V583.571H123.804V568.471L121.132 570.248Z" fill="#0F4753"/>
<path d="M119.351 600.448C119.351 598.671 120.241 597.783 121.132 596.895C122.023 596.006 122.913 596.006 124.695 596.006C126.476 596.006 127.367 596.006 128.257 596.895C129.148 597.783 130.039 598.671 130.039 600.448V608.442C130.039 610.218 129.148 611.106 128.257 611.995C127.367 612.883 126.476 612.883 124.695 613.771C122.913 613.771 122.023 612.883 121.132 611.995C120.241 611.106 119.351 610.218 119.351 608.442V600.448ZM127.367 601.336C127.367 599.559 126.476 598.671 124.695 598.671C122.913 598.671 122.023 599.559 122.023 601.336V608.442C122.023 610.218 122.913 611.106 124.695 611.106C126.476 611.106 127.367 610.218 127.367 608.442V601.336Z" fill="#0F4753"/>
<path d="M121.132 659.959V657.295L123.804 655.518H126.476V673.283H123.804V658.183L121.132 659.959Z" fill="#0F4753"/>
<path d="M119.351 690.159C119.351 688.383 120.241 687.495 121.132 686.606C122.023 685.718 122.913 685.718 124.695 685.718C126.476 685.718 127.367 685.718 128.257 686.606C129.148 687.495 130.039 688.383 130.039 690.159V698.153C130.039 699.93 129.148 700.818 128.257 701.706C127.367 702.595 126.476 702.595 124.695 703.483C122.913 703.483 122.023 702.595 121.132 701.706C120.241 700.818 119.351 699.93 119.351 698.153V690.159ZM127.367 690.159C127.367 688.383 126.476 687.495 124.695 687.495C122.913 687.495 122.023 688.383 122.023 690.159V697.265C122.023 699.042 122.913 699.93 124.695 699.93C126.476 699.93 127.367 699.042 127.367 697.265V690.159Z" fill="#0F4753"/>
<path d="M145.181 23.0942C145.181 20.4295 146.071 18.653 147.853 16.8765C149.634 15.1001 151.415 15.1001 153.197 15.1001C154.978 15.1001 157.65 15.9883 158.541 16.8765C160.322 18.653 161.213 20.4295 161.213 23.0942V35.5295C161.213 38.1942 160.322 39.9707 158.541 41.7472C156.759 43.5236 154.978 43.5236 153.197 43.5236C151.415 43.5236 149.634 42.6354 147.853 41.7472C146.071 39.9707 145.181 38.1942 145.181 35.5295V23.0942ZM157.65 23.0942C157.65 20.4295 155.869 18.653 154.087 18.653C151.415 18.653 150.525 20.4295 150.525 23.0942V35.5295C150.525 38.1942 152.306 39.9707 154.087 39.9707C156.759 39.9707 157.65 38.1942 157.65 35.5295V23.0942Z" fill="#0F4753"/>
<path d="M147.853 70.1707V65.7295L152.306 63.0648H156.759V91.4884H151.415V67.506L147.853 70.1707Z" fill="#0F4753"/>
<path d="M147.853 118.135V113.694L152.306 111.03H156.759V139.453H151.415V115.471L147.853 118.135Z" fill="#0F4753"/>
<path d="M147.853 165.212V160.771L151.415 158.106H155.869V186.53H151.415V162.547L147.853 165.212Z" fill="#0F4753"/>
<path d="M145.181 214.065C145.181 211.4 146.071 209.624 147.853 207.847C149.634 206.071 151.415 206.071 153.197 206.071C154.978 206.071 157.65 206.959 158.541 207.847C160.322 209.624 161.213 211.4 161.213 214.065V226.5C161.213 229.165 160.322 230.941 158.541 232.718C156.759 234.494 154.978 234.494 153.197 234.494C151.415 234.494 149.634 233.606 147.853 232.718C146.071 230.941 145.181 229.165 145.181 226.5V214.065ZM157.65 214.065C157.65 211.4 155.869 209.624 154.087 209.624C151.415 209.624 150.525 211.4 150.525 214.065V226.5C150.525 229.165 152.306 230.941 154.087 230.941C156.759 230.941 157.65 229.165 157.65 226.5V214.065Z" fill="#0F4753"/>
<path d="M145.181 262.03C145.181 259.365 146.071 257.588 147.853 255.812C149.634 254.036 151.415 254.036 153.197 254.036C154.978 254.036 157.65 254.924 158.541 255.812C160.322 257.588 161.213 259.365 161.213 262.03V274.465C161.213 277.13 160.322 278.906 158.541 280.683C156.759 282.459 154.978 282.459 153.197 282.459C151.415 282.459 149.634 281.571 147.853 280.683C146.071 278.906 145.181 277.13 145.181 274.465V262.03ZM157.65 262.03C157.65 259.365 155.869 257.588 154.087 257.588C151.415 257.588 150.525 259.365 150.525 262.03V274.465C150.525 277.13 152.306 278.906 154.087 278.906C156.759 278.906 157.65 277.13 157.65 274.465V262.03Z" fill="#0F4753"/>
<path d="M147.853 309.106V304.665L152.306 302H156.759V330.424H151.415V306.441L147.853 309.106Z" fill="#0F4753"/>
<path d="M147.853 357.071V352.63L152.306 349.965H156.759V378.389H151.415V353.518L147.853 357.071Z" fill="#0F4753"/>
<path d="M145.181 405.036C145.181 402.371 146.071 400.595 147.853 398.818C149.634 397.042 151.415 397.042 153.197 397.042C154.978 397.042 157.65 397.93 158.541 398.818C160.322 400.595 161.213 402.371 161.213 405.036V417.471C161.213 420.136 160.322 421.912 158.541 423.689C156.759 425.465 154.978 425.465 153.197 425.465C151.415 425.465 149.634 424.577 147.853 423.689C146.071 421.912 145.181 420.136 145.181 417.471V405.036ZM157.65 405.924C157.65 403.259 155.869 401.483 154.087 401.483C151.415 401.483 150.525 403.259 150.525 405.924V418.359C150.525 421.024 152.306 422.8 154.087 422.8C156.759 422.8 157.65 421.024 157.65 418.359V405.924Z" fill="#0F4753"/>
<path d="M147.853 500.077V495.636L152.306 492.971H156.759V521.395H151.415V497.412L147.853 500.077Z" fill="#0F4753"/>
<path d="M145.181 548.93C145.181 546.265 146.071 544.489 147.853 542.712C149.634 540.936 151.415 540.936 153.197 540.936C154.978 540.936 157.65 541.824 158.541 542.712C160.322 544.489 161.213 546.265 161.213 548.93V561.365C161.213 564.03 160.322 565.806 158.541 567.583C156.759 569.359 154.978 569.359 153.197 569.359C151.415 569.359 149.634 568.471 147.853 567.583C146.071 565.806 145.181 564.03 145.181 561.365V548.93ZM157.65 548.93C157.65 546.265 155.869 544.489 154.087 544.489C151.415 544.489 150.525 546.265 150.525 548.93V561.365C150.525 564.03 152.306 565.806 154.087 565.806C156.759 565.806 157.65 564.03 157.65 561.365V548.93Z" fill="#0F4753"/>
<path d="M1.78125 357.071V352.63L6.23465 349.965H10.688V378.389H6.23465V353.518L1.78125 357.071Z" fill="#155E6D"/>
<path d="M41.8613 636.865C41.8613 635.089 42.752 634.2 43.6427 633.312C44.5334 632.424 45.424 632.424 47.2054 632.424C48.9868 632.424 49.8774 632.424 50.7681 633.312C51.6588 634.2 52.5495 635.089 52.5495 636.865V644.859C52.5495 646.636 51.6588 647.524 50.7681 648.412C49.8774 649.3 48.9868 649.3 47.2054 650.189C45.424 650.189 44.5334 649.3 43.6427 648.412C42.752 647.524 41.8613 646.636 41.8613 644.859V636.865ZM48.9868 636.865C48.9868 635.089 48.0961 634.2 46.3147 634.2C44.5334 634.2 43.6427 635.089 43.6427 636.865V643.971C43.6427 645.747 44.5334 646.636 46.3147 646.636C48.0961 646.636 48.9868 645.747 48.9868 643.971V636.865Z" fill="#155E6D"/>
<path d="M84.6143 248.706V244.265L89.0677 241.6H93.521V270.024H88.177V246.041L84.6143 248.706Z" fill="#155E6D"/>
<path d="M81.9414 727.465C81.9414 724.8 82.8321 723.024 84.6134 721.248C86.3948 719.471 88.1762 719.471 89.9575 719.471C91.7389 719.471 94.4109 720.359 95.3016 721.248C97.083 723.024 97.9736 724.8 97.9736 727.465V739.901C97.9736 742.565 97.083 744.342 95.3016 746.118C93.5202 747.895 91.7389 747.895 89.9575 747.895C88.1762 747.895 86.3948 747.006 84.6134 746.118C82.8321 744.342 81.9414 742.565 81.9414 739.901V727.465ZM94.4109 727.465C94.4109 724.8 92.6296 723.024 90.8482 723.024C88.1762 723.024 87.2855 724.8 87.2855 727.465V739.901C87.2855 742.565 89.0668 744.342 90.8482 744.342C93.5202 744.342 94.4109 742.565 94.4109 739.901V727.465Z" fill="#155E6D"/>
<path d="M145.181 405.036C145.181 402.371 146.071 400.594 147.853 398.818C149.634 397.041 151.415 397.042 153.197 397.042C154.978 397.042 157.65 397.93 158.541 398.818C160.322 400.594 161.213 402.371 161.213 405.036V417.471C161.213 420.136 160.322 421.912 158.541 423.689C156.759 425.465 154.978 425.465 153.197 425.465C151.415 425.465 149.634 424.577 147.853 423.689C146.071 421.912 145.181 420.136 145.181 417.471V405.036ZM157.65 405.924C157.65 403.259 155.869 401.483 154.087 401.483C151.415 401.483 150.525 403.259 150.525 405.924V418.359C150.525 421.024 152.306 422.8 154.087 422.8C156.759 422.8 157.65 421.024 157.65 418.359V405.924Z" fill="#155E6D"/>
<path d="M145.181 548.93C145.181 546.265 146.071 544.489 147.853 542.712C149.634 540.936 151.415 540.936 153.197 540.936C154.978 540.936 157.65 541.824 158.541 542.712C160.322 544.489 161.213 546.265 161.213 548.93V561.365C161.213 564.03 160.322 565.806 158.541 567.583C156.759 569.359 154.978 569.359 153.197 569.359C151.415 569.359 149.634 568.471 147.853 567.583C146.071 565.806 145.181 564.03 145.181 561.365V548.93ZM157.65 548.93C157.65 546.265 155.869 544.489 154.087 544.489C151.415 544.489 150.525 546.265 150.525 548.93V561.365C150.525 564.03 152.306 565.806 154.087 565.806C156.759 565.806 157.65 564.03 157.65 561.365V548.93Z" fill="#155E6D"/>
</svg>
