<svg width="162" height="815" viewBox="0 0 162 815" fill="none" xmlns="http://www.w3.org/2000/svg">
<path d="M0 7.9941C0 5.3294 0.890679 3.55292 2.67204 1.77644C4.4534 -2.71333e-05 6.23475 0 8.01611 0C9.79747 0 12.4695 0.888209 13.3602 1.77644C15.1415 3.55292 16.0322 5.3294 16.0322 7.9941V20.4294C16.0322 23.0941 15.1415 24.8706 13.3602 26.6471C11.5788 28.4235 9.79747 28.4235 8.01611 28.4235C6.23475 28.4235 4.4534 27.5353 2.67204 26.6471C0.890679 24.8706 0 23.0941 0 20.4294V7.9941ZM12.4695 7.9941C12.4695 5.3294 10.6882 3.55292 8.90679 3.55292C6.23475 3.55292 5.34408 5.3294 5.34408 7.9941V20.4294C5.34408 23.0941 7.12543 24.8706 8.90679 24.8706C11.5788 24.8706 12.4695 23.0941 12.4695 20.4294V7.9941Z" fill="#0F4753"/>
<path d="M1.78125 55.0706V50.6294L6.23465 47.9647H10.688V76.3883H6.23465V52.4059L1.78125 55.0706Z" fill="#0F4753"/>
<path d="M1.78125 103.035V98.5942L6.23465 95.9295H10.688V124.353H6.23465V100.371L1.78125 103.035Z" fill="#0F4753"/>
<path d="M1.78125 150.112V145.671L6.23465 143.006H10.688V171.43H6.23465V147.447L1.78125 150.112Z" fill="#0F4753"/>
<path d="M0 198.965C0 196.3 0.890679 194.524 2.67204 192.747C4.4534 190.971 6.23475 190.971 8.01611 190.971C9.79747 190.971 12.4695 191.859 13.3602 192.747C15.1415 194.524 16.0322 196.3 16.0322 198.965V211.4C16.0322 214.065 15.1415 215.841 13.3602 217.618C11.5788 219.394 9.79747 219.394 8.01611 219.394C6.23475 219.394 4.4534 218.506 2.67204 217.618C0.890679 215.841 0 214.065 0 211.4V198.965ZM12.4695 198.965C12.4695 196.3 10.6882 194.524 8.90679 194.524C6.23475 194.524 5.34408 196.3 5.34408 198.965V211.4C5.34408 214.065 7.12543 215.841 8.90679 215.841C11.5788 215.841 12.4695 214.065 12.4695 211.4V198.965Z" fill="#0F4753"/>
<path d="M0 246.93C0 244.265 0.890679 242.488 2.67204 240.712C4.4534 238.935 6.23475 238.936 8.01611 238.936C9.79747 238.936 12.4695 239.824 13.3602 240.712C15.1415 242.488 16.0322 244.265 16.0322 246.93V259.365C16.0322 262.03 15.1415 263.806 13.3602 265.583C12.4695 266.471 10.6881 267.359 8.01611 267.359C6.23475 267.359 4.4534 266.471 2.67204 265.583C0.890679 263.806 0 262.03 0 259.365V246.93ZM12.4695 246.93C12.4695 244.265 10.6882 242.488 8.90679 242.488C6.23475 242.488 5.34408 244.265 5.34408 246.93V259.365C5.34408 262.03 7.12543 263.806 8.90679 263.806C11.5788 263.806 12.4695 262.03 12.4695 259.365V246.93Z" fill="#0F4753"/>
<path d="M41.8613 114.582C41.8613 112.806 42.752 111.918 43.6427 111.029C44.5334 110.141 45.424 110.141 47.2054 110.141C48.9868 110.141 49.8774 110.141 50.7681 111.029C51.6588 111.918 52.5495 112.806 52.5495 114.582V122.577C52.5495 124.353 51.6588 125.241 50.7681 126.129C49.8774 127.018 48.9868 127.018 47.2054 127.906C45.424 127.906 44.5334 127.018 43.6427 126.129C42.752 125.241 41.8613 124.353 41.8613 122.577V114.582ZM48.9868 114.582C48.9868 112.806 48.0961 111.918 46.3147 111.918C44.5334 111.918 43.6427 112.806 43.6427 114.582V121.688C43.6427 124.353 44.5334 125.241 46.3147 125.241C48.0961 125.241 48.9868 124.353 48.9868 122.577V114.582Z" fill="#0F4753"/>
<path d="M42.7519 143.894V141.229L45.424 139.453H48.096V157.218H45.424V142.118L42.7519 143.894Z" fill="#0F4753"/>
<path d="M42.7519 174.094V171.429L45.424 169.653H48.096V187.418H45.424V172.318L42.7519 174.094Z" fill="#0F4753"/>
<path d="M42.7519 204.294V201.63L45.424 199.853H48.096V217.618H45.424V202.518L42.7519 204.294Z" fill="#0F4753"/>
<path d="M41.8613 234.494C41.8613 232.718 42.752 231.83 43.6427 230.941C44.5334 230.053 45.424 230.053 47.2054 230.053C48.9868 230.053 49.8774 230.053 50.7681 230.941C51.6588 231.83 52.5495 232.718 52.5495 234.494V242.488C52.5495 244.265 51.6588 245.153 50.7681 246.041C49.8774 246.93 48.9868 246.93 47.2054 247.818C45.424 247.818 44.5334 246.93 43.6427 246.041C42.752 245.153 41.8613 244.265 41.8613 242.488V234.494ZM48.9868 234.494C48.9868 232.718 48.0961 231.83 46.3147 231.83C44.5334 231.83 43.6427 232.718 43.6427 234.494V241.6C43.6427 243.377 44.5334 244.265 46.3147 244.265C48.0961 244.265 48.9868 243.377 48.9868 241.6V234.494Z" fill="#0F4753"/>
<path d="M41.8614 263.806C41.8614 262.03 42.752 261.141 43.6427 260.253C43.6427 259.365 45.4241 258.477 46.3148 258.477C48.0961 258.477 48.9868 258.477 49.8775 259.365C50.7682 260.253 51.6588 261.141 51.6588 262.918V270.912C51.6588 272.688 50.7682 273.577 49.8775 274.465C48.9868 275.353 48.0961 275.353 46.3148 276.241C44.5334 276.241 43.6427 275.353 42.752 274.465C41.8614 273.577 40.9707 272.688 40.9707 270.912V263.806H41.8614ZM48.9868 263.806C48.9868 262.03 48.0961 261.141 46.3148 261.141C44.5334 261.141 43.6427 262.03 43.6427 263.806V270.912C43.6427 272.688 44.5334 273.577 46.3148 273.577C48.0961 273.577 48.9868 272.688 48.9868 270.912V263.806Z" fill="#0F4753"/>
<path d="M41.8613 294.006C41.8613 292.23 42.752 291.341 43.6427 290.453C44.5334 289.565 45.424 289.565 47.2054 289.565C48.9868 289.565 49.8774 289.565 50.7681 290.453C51.6588 291.341 52.5495 292.23 52.5495 294.006V302C52.5495 303.777 51.6588 304.665 50.7681 305.553C49.8774 306.441 48.9868 306.441 47.2054 307.33C45.424 307.33 44.5334 306.441 43.6427 305.553C42.752 304.665 41.8613 303.777 41.8613 302V294.006ZM48.9868 294.006C48.9868 292.23 48.0961 291.341 46.3147 291.341C44.5334 291.341 43.6427 292.23 43.6427 294.006V301.112C43.6427 302.888 44.5334 303.777 46.3147 303.777C48.0961 303.777 48.9868 302.888 48.9868 301.112V294.006Z" fill="#0F4753"/>
<path d="M42.7519 323.318V320.653L45.424 318.877H48.096V336.641H45.424V321.541L42.7519 323.318Z" fill="#0F4753"/>
<path d="M42.7519 352.63V349.965L45.424 348.188H48.096V365.953H45.424V350.853L42.7519 352.63Z" fill="#0F4753"/>
<path d="M42.7519 591.565V588.9L45.424 587.124H48.096V604.889H45.424V589.789L42.7519 591.565Z" fill="#0F4753"/>
<path d="M41.8613 621.765C41.8613 619.988 42.752 619.1 43.6427 618.212C44.5334 617.324 45.424 617.324 47.2054 617.324C48.9868 617.324 49.8774 617.324 50.7681 618.212C51.6588 619.1 52.5495 619.988 52.5495 621.765V629.759C52.5495 631.536 51.6588 632.424 50.7681 633.312C49.8774 634.2 48.9868 634.2 47.2054 635.088C45.424 635.088 44.5334 634.2 43.6427 633.312C42.752 632.424 41.8613 631.536 41.8613 629.759V621.765ZM48.9868 621.765C48.9868 619.988 48.0961 619.1 46.3147 619.1C44.5334 619.1 43.6427 619.988 43.6427 621.765V628.871C43.6427 630.647 44.5334 631.535 46.3147 631.535C48.0961 631.535 48.9868 630.647 48.9868 628.871V621.765Z" fill="#0F4753"/>
<path d="M42.7519 651.077V648.412L45.424 646.636H48.096V664.4H45.424V649.3L42.7519 651.077Z" fill="#0F4753"/>
<path d="M42.7519 681.277V678.612L45.424 676.836H48.096V694.601H45.424V679.501L42.7519 681.277Z" fill="#0F4753"/>
<path d="M41.8613 711.477C41.8613 709.7 42.752 708.812 43.6427 707.924C44.5334 707.036 45.424 707.036 47.2054 707.036C48.9868 707.036 49.8774 707.036 50.7681 707.924C51.6588 708.812 52.5495 709.7 52.5495 711.477V719.471C52.5495 721.248 51.6588 722.136 50.7681 723.024C49.8774 723.912 48.9868 723.912 47.2054 724.8C45.424 724.8 44.5334 723.912 43.6427 723.024C42.752 722.136 41.8613 721.248 41.8613 719.471V711.477ZM48.9868 711.477C48.9868 709.7 48.0961 708.812 46.3147 708.812C44.5334 708.812 43.6427 709.7 43.6427 711.477V718.583C43.6427 720.359 44.5334 721.248 46.3147 721.248C48.0961 721.248 48.9868 720.359 48.9868 718.583V711.477Z" fill="#0F4753"/>
<path d="M42.7519 770.989V768.324L45.424 766.547H48.096V784.312H45.424V769.212L42.7519 770.989Z" fill="#0F4753"/>
<path d="M41.8613 801.189C41.8613 799.412 42.752 798.524 43.6427 797.636C44.5334 796.747 45.424 796.748 47.2054 796.748C48.9868 796.748 49.8774 796.747 50.7681 797.636C51.6588 798.524 52.5495 799.412 52.5495 801.189V809.183C52.5495 810.959 51.6588 811.847 50.7681 812.736C49.8774 813.624 48.9868 813.624 47.2054 814.512C45.424 814.512 44.5334 813.624 43.6427 812.736C42.752 811.847 41.8613 810.959 41.8613 809.183V801.189ZM48.9868 801.189C48.9868 799.412 48.0961 798.524 46.3147 798.524C44.5334 798.524 43.6427 799.412 43.6427 801.189V808.295C43.6427 810.071 44.5334 810.959 46.3147 810.959C48.0961 810.959 48.9868 810.071 48.9868 808.295V801.189Z" fill="#0F4753"/>
<path d="M81.9414 186.53C81.9414 183.865 82.8321 182.088 84.6134 180.312C86.3948 178.535 88.1762 178.535 89.9575 178.535C91.7389 178.535 94.4109 179.424 95.3016 180.312C97.083 182.088 97.9736 183.865 97.9736 186.53V198.965C97.9736 201.63 97.083 203.406 95.3016 205.182C93.5202 206.959 91.7389 206.959 89.9575 206.959C88.1762 206.959 86.3948 206.071 84.6134 205.182C82.8321 203.406 81.9414 201.63 81.9414 198.965V186.53ZM94.4109 186.53C94.4109 183.865 92.6296 182.088 90.8482 182.088C88.1762 182.088 87.2855 183.865 87.2855 186.53V198.965C87.2855 201.63 89.0668 203.406 90.8482 203.406C93.5202 203.406 94.4109 201.63 94.4109 198.965V186.53Z" fill="#0F4753"/>
<path d="M84.6135 233.606V229.165L89.0669 226.5H93.5203V254.924H88.1762V230.941L84.6135 233.606Z" fill="#0F4753"/>
<path d="M84.6135 281.571V277.13L89.0669 274.465H93.5203V302.888H88.1762V278.906L84.6135 281.571Z" fill="#0F4753"/>
<path d="M84.6135 329.536V325.094L89.0669 322.43H93.5203V350.853H88.1762V326.871L84.6135 329.536Z" fill="#0F4753"/>
<path d="M121.132 346.412V343.747L123.804 341.971H126.476V359.736H123.804V344.635L121.132 346.412Z" fill="#0F4753"/>
<path d="M121.132 376.612V373.947L123.804 372.171H126.476V389.936H123.804V374.836L121.132 376.612Z" fill="#0F4753"/>
<path d="M119.351 406.812C119.351 405.036 120.241 404.147 121.132 403.259C122.023 402.371 122.913 402.371 124.695 402.371C126.476 402.371 127.367 402.371 128.257 403.259C129.148 404.147 130.039 405.036 130.039 406.812V414.806C130.039 416.583 129.148 417.471 128.257 418.359C127.367 419.247 126.476 419.247 124.695 420.136C122.913 420.136 122.023 419.247 121.132 418.359C120.241 417.471 119.351 416.583 119.351 414.806V406.812ZM127.367 406.812C127.367 405.036 126.476 404.147 124.695 404.147C122.913 404.147 122.023 405.036 122.023 406.812V413.918C122.023 415.694 122.913 416.583 124.695 416.583C126.476 416.583 127.367 415.694 127.367 413.918V406.812Z" fill="#0F4753"/>
<path d="M121.132 466.324V463.659L123.804 461.883H126.476V479.647H123.804V464.547L121.132 466.324Z" fill="#0F4753"/>
<path d="M119.351 496.524C119.351 494.747 120.241 493.859 121.132 492.971C122.023 492.083 122.913 492.083 124.695 492.083C126.476 492.083 127.367 492.083 128.257 492.971C129.148 493.859 130.039 494.747 130.039 496.524V504.518C130.039 506.294 129.148 507.183 128.257 508.071C127.367 508.959 126.476 508.959 124.695 509.847C122.913 509.847 122.023 508.959 121.132 508.071C120.241 507.183 119.351 506.294 119.351 504.518V496.524ZM127.367 496.524C127.367 494.747 126.476 493.859 124.695 493.859C122.913 493.859 122.023 494.747 122.023 496.524V503.63C122.023 505.406 122.913 506.294 124.695 506.294C126.476 506.294 127.367 505.406 127.367 503.63V496.524Z" fill="#0F4753"/>
<path d="M121.132 525.836V523.171L123.804 521.394H126.476V539.159H123.804V524.059L121.132 525.836Z" fill="#0F4753"/>
<path d="M121.132 555.148V552.483L123.804 550.706H126.476V568.471H123.804V553.371L121.132 555.148Z" fill="#0F4753"/>
<path d="M119.351 585.348C119.351 583.571 120.241 582.683 121.132 581.795C122.023 580.906 122.913 580.906 124.695 580.906C126.476 580.906 127.367 580.906 128.257 581.795C129.148 582.683 130.039 583.571 130.039 585.348V593.342C130.039 595.118 129.148 596.006 128.257 596.895C127.367 597.783 126.476 597.783 124.695 598.671C122.913 598.671 122.023 597.783 121.132 596.895C120.241 596.006 119.351 595.118 119.351 593.342V585.348ZM127.367 586.236C127.367 584.459 126.476 583.571 124.695 583.571C122.913 583.571 122.023 584.459 122.023 586.236V593.342C122.023 595.118 122.913 596.006 124.695 596.006C126.476 596.006 127.367 595.118 127.367 593.342V586.236Z" fill="#0F4753"/>
<path d="M121.132 644.859V642.195L123.804 640.418H126.476V658.183H123.804V643.083L121.132 644.859Z" fill="#0F4753"/>
<path d="M119.351 675.059C119.351 673.283 120.241 672.395 121.132 671.506C122.023 670.618 122.913 670.618 124.695 670.618C126.476 670.618 127.367 670.618 128.257 671.506C129.148 672.395 130.039 673.283 130.039 675.059V683.053C130.039 684.83 129.148 685.718 128.257 686.606C127.367 687.494 126.476 687.495 124.695 688.383C122.913 688.383 122.023 687.494 121.132 686.606C120.241 685.718 119.351 684.83 119.351 683.053V675.059ZM127.367 675.059C127.367 673.283 126.476 672.394 124.695 672.394C122.913 672.394 122.023 673.283 122.023 675.059V682.165C122.023 683.942 122.913 684.83 124.695 684.83C126.476 684.83 127.367 683.942 127.367 682.165V675.059Z" fill="#0F4753"/>
<path d="M145.181 389.936C145.181 387.271 146.071 385.495 147.853 383.718C149.634 381.942 151.415 381.942 153.197 381.942C154.978 381.942 157.65 382.83 158.541 383.718C160.322 385.495 161.213 387.271 161.213 389.936V402.371C161.213 405.036 160.322 406.812 158.541 408.589C156.759 410.365 154.978 410.365 153.197 410.365C151.415 410.365 149.634 409.477 147.853 408.589C146.071 406.812 145.181 405.036 145.181 402.371V389.936ZM157.65 390.824C157.65 388.159 155.869 386.383 154.087 386.383C151.415 386.383 150.525 388.159 150.525 390.824V403.259C150.525 405.924 152.306 407.7 154.087 407.7C156.759 407.7 157.65 405.924 157.65 403.259V390.824Z" fill="#0F4753"/>
<path d="M147.853 484.977V480.536L152.306 477.871H156.759V506.295H151.415V482.312L147.853 484.977Z" fill="#0F4753"/>
<path d="M145.181 533.83C145.181 531.165 146.071 529.389 147.853 527.612C149.634 525.836 151.415 525.836 153.197 525.836C154.978 525.836 157.65 526.724 158.541 527.612C160.322 529.389 161.213 531.165 161.213 533.83V546.265C161.213 548.93 160.322 550.706 158.541 552.483C156.759 554.259 154.978 554.259 153.197 554.259C151.415 554.259 149.634 553.371 147.853 552.483C146.071 550.706 145.181 548.93 145.181 546.265V533.83ZM157.65 533.83C157.65 531.165 155.869 529.389 154.087 529.389C151.415 529.389 150.525 531.165 150.525 533.83V546.265C150.525 548.93 152.306 550.706 154.087 550.706C156.759 550.706 157.65 548.93 157.65 546.265V533.83Z" fill="#0F4753"/>
<path d="M41.8613 621.765C41.8613 619.988 42.752 619.1 43.6427 618.212C44.5334 617.324 45.424 617.324 47.2054 617.324C48.9868 617.324 49.8774 617.324 50.7681 618.212C51.6588 619.1 52.5495 619.988 52.5495 621.765V629.759C52.5495 631.536 51.6588 632.424 50.7681 633.312C49.8774 634.2 48.9868 634.2 47.2054 635.089C45.424 635.089 44.5334 634.2 43.6427 633.312C42.752 632.424 41.8613 631.536 41.8613 629.759V621.765ZM48.9868 621.765C48.9868 619.988 48.0961 619.1 46.3147 619.1C44.5334 619.1 43.6427 619.988 43.6427 621.765V628.871C43.6427 630.647 44.5334 631.536 46.3147 631.536C48.0961 631.536 48.9868 630.647 48.9868 628.871V621.765Z" fill="#155E6D"/>
<path d="M84.6143 233.606V229.165L89.0677 226.5H93.521V254.924H88.177V230.941L84.6143 233.606Z" fill="#155E6D"/>
<path d="M145.181 389.936C145.181 387.271 146.071 385.494 147.853 383.718C149.634 381.941 151.415 381.941 153.197 381.941C154.978 381.941 157.65 382.83 158.541 383.718C160.322 385.494 161.213 387.271 161.213 389.936V402.371C161.213 405.036 160.322 406.812 158.541 408.589C156.759 410.365 154.978 410.365 153.197 410.365C151.415 410.365 149.634 409.477 147.853 408.589C146.071 406.812 145.181 405.036 145.181 402.371V389.936ZM157.65 390.824C157.65 388.159 155.869 386.383 154.087 386.383C151.415 386.383 150.525 388.159 150.525 390.824V403.259C150.525 405.924 152.306 407.7 154.087 407.7C156.759 407.7 157.65 405.924 157.65 403.259V390.824Z" fill="#155E6D"/>
<path d="M145.181 533.83C145.181 531.165 146.071 529.389 147.853 527.612C149.634 525.836 151.415 525.836 153.197 525.836C154.978 525.836 157.65 526.724 158.541 527.612C160.322 529.389 161.213 531.165 161.213 533.83V546.265C161.213 548.93 160.322 550.706 158.541 552.483C156.759 554.259 154.978 554.259 153.197 554.259C151.415 554.259 149.634 553.371 147.853 552.483C146.071 550.706 145.181 548.93 145.181 546.265V533.83ZM157.65 533.83C157.65 531.165 155.869 529.389 154.087 529.389C151.415 529.389 150.525 531.165 150.525 533.83V546.265C150.525 548.93 152.306 550.706 154.087 550.706C156.759 550.706 157.65 548.93 157.65 546.265V533.83Z" fill="#155E6D"/>
</svg>
