<svg width="493" height="396" viewBox="0 0 493 396" fill="none" xmlns="http://www.w3.org/2000/svg">
<path d="M492.3 193.953C492.3 203.553 491.3 213.153 489 222.453C488.2 225.553 487.3 228.553 486.3 231.553C486 232.453 485.7 233.253 485.4 234.153C485.1 234.853 484.9 235.553 484.6 236.253C484.5 236.453 484.5 236.653 484.4 236.853C484.1 237.553 483.8 238.253 483.5 239.053C483.5 239.153 483.4 239.253 483.4 239.353C483.1 240.053 482.8 240.753 482.5 241.453C482.4 241.753 482.2 242.053 482.1 242.353C481.8 242.953 481.5 243.553 481.2 244.153C480.9 244.753 480.6 245.453 480.2 246.053C480.1 246.253 480 246.553 479.8 246.753C479.5 247.253 479.2 247.853 479 248.353C478.8 248.753 478.5 249.253 478.3 249.653C477.2 251.653 476.1 253.553 475 255.453C474.5 256.253 474.1 257.053 473.6 257.753C473.5 257.953 473.4 258.153 473.3 258.353C472.7 259.253 472.2 260.153 471.6 260.953C471.1 261.653 470.7 262.353 470.2 263.053C469.8 263.653 469.4 264.253 468.9 264.953C468.8 265.053 468.7 265.253 468.6 265.353C468.2 265.953 467.7 266.653 467.2 267.253C466.6 268.053 466.1 268.853 465.5 269.553C465.4 269.753 465.3 269.853 465.1 270.053C464.5 270.953 463.8 271.853 463.1 272.653C462.7 273.153 462.3 273.653 461.9 274.253C461.2 275.153 460.4 276.153 459.7 277.053C459 277.953 458.3 278.853 457.5 279.753C457.4 279.853 457.3 279.953 457.3 280.053C456.6 280.953 455.9 281.853 455.1 282.653C454.9 282.953 454.7 283.153 454.4 283.453C453.7 284.253 453 285.053 452.4 285.853C450.4 288.153 448.5 290.453 446.5 292.753C442.4 297.453 438.3 302.053 434.1 306.653C430.6 310.453 427 314.253 423.4 317.953C406 335.853 387.1 352.553 366.6 365.853C364.1 367.453 361.5 369.153 358.9 370.653C358 371.253 357 371.753 356.1 372.353C355.9 372.453 355.8 372.553 355.6 372.653C354.6 373.253 353.6 373.753 352.7 374.253C351.7 374.853 350.7 375.353 349.7 375.853C349.2 376.053 348.8 376.353 348.3 376.553C346.3 377.553 344.3 378.553 342.3 379.553C341.2 380.053 340.1 380.553 339 381.053C338 381.553 337 381.953 336 382.453C335.6 382.653 335.2 382.853 334.8 382.953C333.9 383.353 332.9 383.753 332 384.153C330.2 384.853 328.4 385.553 326.5 386.253C325.8 386.553 325.1 386.753 324.4 387.053C324 387.153 323.6 387.353 323.2 387.453C322.5 387.653 321.9 387.853 321.2 388.053C320.6 388.253 320 388.453 319.5 388.553C319.5 388.553 319.5 388.553 319.4 388.553C318.3 388.953 317.1 389.253 316 389.553C314.2 390.053 312.4 390.553 310.6 391.053C309.4 391.353 308.2 391.653 307 391.953C305.9 392.253 304.7 392.453 303.6 392.653C303.5 392.653 303.4 392.653 303.3 392.653C302.1 392.853 300.9 393.153 299.7 393.353C299.1 393.453 298.5 393.553 297.9 393.653C297.3 393.753 296.7 393.853 296.1 393.953C295.6 394.053 295 394.153 294.4 394.153C293.7 394.253 293.1 394.353 292.4 394.453C285.3 395.353 278.2 395.753 271 395.653C270.6 395.653 270.1 395.653 269.7 395.653C263.2 395.553 256.8 395.053 250.3 394.253C249.8 394.153 249.4 394.153 248.9 394.053C248.1 393.953 247.3 393.853 246.5 393.753C245.9 393.653 245.2 393.553 244.6 393.453C241.9 393.053 239.3 392.553 236.6 392.053C236 391.953 235.4 391.853 234.8 391.653C233 391.253 231.2 390.853 229.5 390.453C228.3 390.153 227.1 389.853 226 389.553C225.4 389.453 224.8 389.253 224.2 389.053C223.6 388.953 223 388.753 222.4 388.553C220.1 387.953 217.7 387.253 215.4 386.553C212.7 385.753 210 384.853 207.3 383.953C206.3 383.653 205.3 383.253 204.4 382.953C201.4 381.853 198.4 380.753 195.4 379.553C194.9 379.353 194.3 379.153 193.8 378.853C193.4 378.653 192.9 378.453 192.5 378.253C192.2 378.153 191.9 377.953 191.6 377.853C189.7 376.953 187.6 375.953 185.3 374.753C184.9 374.553 184.5 374.353 184.1 374.153C182.7 373.453 181.3 372.653 179.8 371.853C176.7 370.153 173.3 368.253 169.8 366.153C129.8 342.653 65.2 365.853 24.2 331.653C23.5 330.753 22.8 329.953 22.1 329.053C21.6 328.353 21 327.653 20.5 326.953C20 326.353 19.5 325.653 19.1 325.053C18.7 324.453 18.3 323.953 17.9 323.353C17.5 322.853 17.1 322.253 16.8 321.753C16.8 321.753 16.8 321.653 16.7 321.653C16.3 320.953 15.8 320.353 15.4 319.653C15 319.053 14.6 318.353 14.2 317.653C14 317.353 13.8 317.053 13.6 316.753C13.2 316.053 12.7 315.253 12.3 314.553C11.8 313.753 11.4 312.953 10.9 312.053C10.1 310.653 9.4 309.153 8.7 307.653C8.5 307.253 8.3 306.853 8.2 306.553C6.8 303.553 5.5 300.453 4.5 297.253C4.1 296.153 3.8 295.053 3.4 293.953C3 292.553 2.6 291.053 2.2 289.653C2.1 289.353 2.1 289.053 2 288.753C1.8 287.953 1.6 287.253 1.5 286.453C1.3 285.353 1.1 284.353 0.9 283.253C0.9 282.953 0.8 282.753 0.8 282.453C0.7 281.953 0.6 281.353 0.6 280.753C0.5 280.053 0.4 279.453 0.4 278.753C0.4 278.553 0.3 278.353 0.3 278.053C0.2 277.453 0.2 276.953 0.2 276.353C0.2 276.253 0.2 276.253 0.2 276.253C0.2 275.553 0.1 274.853 0.1 274.253C0.1 274.153 0.1 274.153 0.1 274.053C0.1 273.353 0.1 272.653 0 271.953C0 271.653 0 271.453 0 271.153C0 270.753 0 270.353 0 269.953C0 268.953 3.7998e-07 267.853 0.1 266.853C0.1 266.153 0.2 265.453 0.3 264.853C0.4 263.553 0.6 262.153 0.8 260.853C0.9 260.153 1 259.453 1.1 258.853C1.3 257.453 1.6 256.153 2 254.753C2.9 251.153 4.1 247.753 5.5 244.553C6.6 242.053 7.8 239.553 9.1 237.253C9.2 237.053 9.3 236.853 9.4 236.653C14.8 227.153 22.1 218.753 30.4 210.953C31.3 210.153 32.2 209.253 33.1 208.453C34.1 207.553 35 206.753 36 205.853C36.1 205.853 36.1 205.753 36.2 205.653C37.8 204.253 39.3 202.953 40.9 201.653C43.3 199.553 45.8 197.553 48.3 195.553C48.4 195.453 48.5 195.453 48.5 195.353C50.7 193.653 52.8 191.953 55 190.253C58.4 187.653 61.8 185.053 65.2 182.353C66.1 181.653 67 180.953 67.8 180.253C68.8 179.453 69.7 178.753 70.7 177.953C79.7 170.753 100 144.453 124.6 105.353C126 103.853 127.4 102.253 128.7 100.753C129.4 100.053 130 99.2532 130.6 98.5532C139.7 88.1532 148.2 77.6532 157.7 67.7532C160 65.3532 162.2 63.0532 164.6 60.7532C166.6 58.8532 168.6 56.9532 170.7 55.1532C173.1 53.0532 175.6 50.9532 178.2 48.9532C181.8 46.1532 185.5 43.5532 189.5 41.0532C190.5 40.4532 191.4 39.8532 192.4 39.2532C292.1 -22.7468 365.5 -2.4468 414.5 39.2532C418.2 42.3532 421.7 45.6532 425.2 49.0532C427.3 51.0532 429.3 53.1532 431.2 55.2532C431.4 55.4532 431.6 55.7532 431.8 55.9532C433.2 57.4532 434.5 58.8532 435.8 60.3532C436.2 60.7532 436.6 61.2532 436.9 61.6532C437.5 62.3532 438 62.9532 438.6 63.6532C439.3 64.4532 440 65.2532 440.7 66.1532C441.1 66.6532 441.6 67.1532 442 67.7532C444.7 71.1532 447.3 74.5532 449.8 77.9532C450.3 78.6532 450.8 79.3532 451.3 80.0532C454.7 84.8532 457.9 89.6532 460.8 94.5532C461.2 95.2532 461.6 95.9532 462 96.6532C462.4 97.3532 462.8 98.0532 463.2 98.7532C463.6 99.4532 464 100.153 464.4 100.753C464.8 101.453 465.2 102.153 465.6 102.853C466 103.553 466.4 104.253 466.7 104.953C467.1 105.653 467.5 106.353 467.8 106.953C468.2 107.653 468.5 108.353 468.9 108.953C469.3 109.653 469.6 110.253 470 110.953C470.3 111.653 470.7 112.253 471 112.953C471.3 113.653 471.7 114.253 472 114.953C473.3 117.553 474.5 120.153 475.7 122.753C476.3 124.053 476.9 125.353 477.4 126.653C479.9 132.353 482 137.853 483.8 142.953V143.053C484 143.553 484.1 144.053 484.3 144.453C484.5 144.953 484.6 145.453 484.8 145.953C484.9 146.353 485 146.753 485.2 147.053C485.4 147.653 485.6 148.153 485.7 148.753C485.9 149.353 486.1 149.953 486.2 150.553C486.5 151.653 486.9 152.753 487.2 153.953C487.5 154.853 487.7 155.853 488 156.853C488 157.053 488.1 157.253 488.1 157.353C488.1 157.453 488.2 157.653 488.2 157.753C488.3 158.353 488.5 158.853 488.6 159.453C489 160.953 489.3 162.453 489.6 163.953C489.8 164.753 489.9 165.553 490.1 166.353C490.1 166.453 490.2 166.653 490.2 166.853C490.3 167.653 490.5 168.353 490.6 169.153C490.8 170.153 491 171.253 491.1 172.253C491.2 173.053 491.3 173.853 491.5 174.653C491.5 174.753 491.5 174.853 491.5 175.053C491.6 175.553 491.6 176.153 491.7 176.653C491.8 177.053 491.8 177.553 491.9 177.953C492.1 179.553 492.2 181.153 492.4 182.753C492.4 183.153 492.5 183.453 492.5 183.853C492.5 184.453 492.6 185.053 492.6 185.653C492.6 186.353 492.7 186.953 492.7 187.653C492.7 188.153 492.8 188.653 492.8 189.253C492.8 190.053 492.8 190.753 492.9 191.553C492.2 192.153 492.3 193.053 492.3 193.953Z" fill="#0091BF" fill-opacity="0.5"/>
<path opacity="0.2" d="M42.7 210.453C42.5 210.153 42.5 210.253 42.7 210.453V210.453Z" fill="#263238"/>
<path d="M386.9 220.953H156.2V318.053H386.9V220.953Z" fill="#0091BF" stroke="#263238" stroke-miterlimit="10" stroke-linecap="round" stroke-linejoin="round"/>
<path d="M182.7 226.753H161V238.753H182.7V226.753Z" fill="white" stroke="#263238" stroke-miterlimit="10"/>
<path d="M381.6 285.353H347.4V297.353H381.6V285.353Z" fill="white" stroke="#263238" stroke-miterlimit="10"/>
<path d="M381.6 241.753H360.5V253.753H381.6V241.753Z" fill="white" stroke="#263238" stroke-miterlimit="10"/>
<path d="M182.7 270.553H161V282.553H182.7V270.553Z" fill="white" stroke="#263238" stroke-miterlimit="10"/>
<path d="M178.6 256.053H161V268.053H178.6V256.053Z" fill="white" stroke="#263238" stroke-miterlimit="10"/>
<path d="M173 241.453H161V253.453H173V241.453Z" fill="white" stroke="#263238" stroke-miterlimit="10"/>
<path d="M188.4 241.453H176.4V253.453H188.4V241.453Z" fill="white" stroke="#263238" stroke-miterlimit="10"/>
<path d="M203.7 241.453H191.7V253.453H203.7V241.453Z" fill="white" stroke="#263238" stroke-miterlimit="10"/>
<path d="M219 241.453H207V253.453H219V241.453Z" fill="white" stroke="#263238" stroke-miterlimit="10"/>
<path d="M234.4 241.453H222.4V253.453H234.4V241.453Z" fill="white" stroke="#263238" stroke-miterlimit="10"/>
<path d="M249.7 241.453H237.7V253.453H249.7V241.453Z" fill="white" stroke="#263238" stroke-miterlimit="10"/>
<path d="M265 241.453H253V253.453H265V241.453Z" fill="white" stroke="#263238" stroke-miterlimit="10"/>
<path d="M280.4 241.453H268.4V253.453H280.4V241.453Z" fill="white" stroke="#263238" stroke-miterlimit="10"/>
<path d="M295.7 241.453H283.7V253.453H295.7V241.453Z" fill="white" stroke="#263238" stroke-miterlimit="10"/>
<path d="M311 241.453H299V253.453H311V241.453Z" fill="white" stroke="#263238" stroke-miterlimit="10"/>
<path d="M326.4 241.453H314.4V253.453H326.4V241.453Z" fill="white" stroke="#263238" stroke-miterlimit="10"/>
<path d="M341.7 241.453H329.7V253.453H341.7V241.453Z" fill="white" stroke="#263238" stroke-miterlimit="10"/>
<path d="M357 241.453H345V253.453H357V241.453Z" fill="white" stroke="#263238" stroke-miterlimit="10"/>
<path d="M173 300.153H161V312.153H173V300.153Z" fill="white" stroke="#263238" stroke-miterlimit="10"/>
<path d="M188.4 300.153H176.4V312.153H188.4V300.153Z" fill="white" stroke="#263238" stroke-miterlimit="10"/>
<path d="M203.7 300.153H191.7V312.153H203.7V300.153Z" fill="white" stroke="#263238" stroke-miterlimit="10"/>
<path d="M221.7 300.153H207V312.153H221.7V300.153Z" fill="white" stroke="#263238" stroke-miterlimit="10"/>
<path d="M298.3 300.153H225V312.153H298.3V300.153Z" fill="white" stroke="#263238" stroke-miterlimit="10"/>
<path d="M335 300.153H323V312.153H335V300.153Z" fill="white" stroke="#263238" stroke-miterlimit="10"/>
<path d="M350.4 300.153H338.4V312.153H350.4V300.153Z" fill="white" stroke="#263238" stroke-miterlimit="10"/>
<path d="M365.7 300.153H353.7V312.153H365.7V300.153Z" fill="white" stroke="#263238" stroke-miterlimit="10"/>
<path d="M320.1 300.153H301.4V312.153H320.1V300.153Z" fill="white" stroke="#263238" stroke-miterlimit="10"/>
<path d="M381.5 300.153H369.5V312.153H381.5V300.153Z" fill="white" stroke="#263238" stroke-miterlimit="10"/>
<path d="M194 256.053H182V268.053H194V256.053Z" fill="white" stroke="#263238" stroke-miterlimit="10"/>
<path d="M209.4 256.053H197.4V268.053H209.4V256.053Z" fill="white" stroke="#263238" stroke-miterlimit="10"/>
<path d="M224.7 256.053H212.7V268.053H224.7V256.053Z" fill="white" stroke="#263238" stroke-miterlimit="10"/>
<path d="M240 256.053H228V268.053H240V256.053Z" fill="white" stroke="#263238" stroke-miterlimit="10"/>
<path d="M255.4 256.053H243.4V268.053H255.4V256.053Z" fill="white" stroke="#263238" stroke-miterlimit="10"/>
<path d="M270.7 256.053H258.7V268.053H270.7V256.053Z" fill="white" stroke="#263238" stroke-miterlimit="10"/>
<path d="M286 256.053H274V268.053H286V256.053Z" fill="white" stroke="#263238" stroke-miterlimit="10"/>
<path d="M301.4 256.053H289.4V268.053H301.4V256.053Z" fill="white" stroke="#263238" stroke-miterlimit="10"/>
<path d="M316.7 256.053H304.7V268.053H316.7V256.053Z" fill="white" stroke="#263238" stroke-miterlimit="10"/>
<path d="M332 256.053H320V268.053H332V256.053Z" fill="white" stroke="#263238" stroke-miterlimit="10"/>
<path d="M347.4 256.053H335.4V268.053H347.4V256.053Z" fill="white" stroke="#263238" stroke-miterlimit="10"/>
<path d="M362.7 256.053H350.7V268.053H362.7V256.053Z" fill="white" stroke="#263238" stroke-miterlimit="10"/>
<path d="M381.6 256.053V282.753H369.5V268.053H366V256.053H381.6Z" fill="white" stroke="#263238" stroke-miterlimit="10"/>
<path d="M197.5 270.753H185.5V282.753H197.5V270.753Z" fill="white" stroke="#263238" stroke-miterlimit="10"/>
<path d="M212.9 270.753H200.9V282.753H212.9V270.753Z" fill="white" stroke="#263238" stroke-miterlimit="10"/>
<path d="M228.2 270.753H216.2V282.753H228.2V270.753Z" fill="white" stroke="#263238" stroke-miterlimit="10"/>
<path d="M243.5 270.753H231.5V282.753H243.5V270.753Z" fill="white" stroke="#263238" stroke-miterlimit="10"/>
<path d="M258.9 270.753H246.9V282.753H258.9V270.753Z" fill="white" stroke="#263238" stroke-miterlimit="10"/>
<path d="M274.2 270.753H262.2V282.753H274.2V270.753Z" fill="white" stroke="#263238" stroke-miterlimit="10"/>
<path d="M289.5 270.753H277.5V282.753H289.5V270.753Z" fill="white" stroke="#263238" stroke-miterlimit="10"/>
<path d="M304.9 270.753H292.9V282.753H304.9V270.753Z" fill="white" stroke="#263238" stroke-miterlimit="10"/>
<path d="M320.2 270.753H308.2V282.753H320.2V270.753Z" fill="white" stroke="#263238" stroke-miterlimit="10"/>
<path d="M335.5 270.753H323.5V282.753H335.5V270.753Z" fill="white" stroke="#263238" stroke-miterlimit="10"/>
<path d="M350.9 270.753H338.9V282.753H350.9V270.753Z" fill="white" stroke="#263238" stroke-miterlimit="10"/>
<path d="M366.2 270.753H354.2V282.753H366.2V270.753Z" fill="white" stroke="#263238" stroke-miterlimit="10"/>
<path d="M191 285.353H179V297.353H191V285.353Z" fill="white" stroke="#263238" stroke-miterlimit="10"/>
<path d="M206.4 285.353H194.4V297.353H206.4V285.353Z" fill="white" stroke="#263238" stroke-miterlimit="10"/>
<path d="M221.7 285.353H209.7V297.353H221.7V285.353Z" fill="white" stroke="#263238" stroke-miterlimit="10"/>
<path d="M237 285.353H225V297.353H237V285.353Z" fill="white" stroke="#263238" stroke-miterlimit="10"/>
<path d="M252.4 285.353H240.4V297.353H252.4V285.353Z" fill="white" stroke="#263238" stroke-miterlimit="10"/>
<path d="M267.7 285.353H255.7V297.353H267.7V285.353Z" fill="white" stroke="#263238" stroke-miterlimit="10"/>
<path d="M283 285.353H271V297.353H283V285.353Z" fill="white" stroke="#263238" stroke-miterlimit="10"/>
<path d="M298.4 285.353H286.4V297.353H298.4V285.353Z" fill="white" stroke="#263238" stroke-miterlimit="10"/>
<path d="M313.7 285.353H301.7V297.353H313.7V285.353Z" fill="white" stroke="#263238" stroke-miterlimit="10"/>
<path d="M329 285.353H317V297.353H329V285.353Z" fill="white" stroke="#263238" stroke-miterlimit="10"/>
<path d="M344.4 285.353H332.4V297.353H344.4V285.353Z" fill="white" stroke="#263238" stroke-miterlimit="10"/>
<path d="M197.5 227.553H185.5V239.553H197.5V227.553Z" fill="white" stroke="#263238" stroke-miterlimit="10"/>
<path d="M212.9 227.553H200.9V239.553H212.9V227.553Z" fill="white" stroke="#263238" stroke-miterlimit="10"/>
<path d="M228.2 227.553H216.2V239.553H228.2V227.553Z" fill="white" stroke="#263238" stroke-miterlimit="10"/>
<path d="M243.5 227.553H231.5V239.553H243.5V227.553Z" fill="white" stroke="#263238" stroke-miterlimit="10"/>
<path d="M258.9 227.553H246.9V239.553H258.9V227.553Z" fill="white" stroke="#263238" stroke-miterlimit="10"/>
<path d="M274.2 227.553H262.2V239.553H274.2V227.553Z" fill="white" stroke="#263238" stroke-miterlimit="10"/>
<path d="M289.5 227.553H277.5V239.553H289.5V227.553Z" fill="white" stroke="#263238" stroke-miterlimit="10"/>
<path d="M304.9 227.553H292.9V239.553H304.9V227.553Z" fill="white" stroke="#263238" stroke-miterlimit="10"/>
<path d="M320.2 227.553H308.2V239.553H320.2V227.553Z" fill="white" stroke="#263238" stroke-miterlimit="10"/>
<path d="M335.5 227.553H323.5V239.553H335.5V227.553Z" fill="white" stroke="#263238" stroke-miterlimit="10"/>
<path d="M350.9 227.553H338.9V239.553H350.9V227.553Z" fill="white" stroke="#263238" stroke-miterlimit="10"/>
<path d="M366.2 227.553H354.2V239.553H366.2V227.553Z" fill="white" stroke="#263238" stroke-miterlimit="10"/>
<path d="M381.5 227.553H369.5V239.553H381.5V227.553Z" fill="white" stroke="#263238" stroke-miterlimit="10"/>
<path d="M175.6 285.353H161V297.353H175.6V285.353Z" fill="white" stroke="#263238" stroke-miterlimit="10"/>
<path d="M156.2 221.553L161 219.953H383.8L386.9 221.553H156.2Z" fill="#263238"/>
<path opacity="0.2" d="M320.9 388.153L316.2 359.953C315.2 355.753 313 351.953 309.8 348.853C300.5 339.853 288.1 330.653 287.6 318.853C286.8 300.853 284 301.353 284.3 296.953C284.3 296.753 285.7 294.853 287.5 290.353C288.1 288.953 288.5 286.753 288.9 285.053C289.3 283.253 291.1 281.953 292.9 282.253C294.2 282.453 295.4 282.953 296.3 283.853C298 285.553 298.8 287.953 298.8 290.353C298.9 292.753 298.3 295.053 297.8 297.453C299.5 301.253 300.3 305.753 300.8 309.853C301.9 306.553 302.7 303.253 303.7 299.953C303.9 299.853 303.8 299.553 304.1 299.453C302.6 296.253 303.9 296.353 300.9 289.253C295.9 277.253 290.3 265.653 286.3 250.653C286 249.453 286 247.553 286.4 246.453C287.9 242.153 292.3 243.153 294.2 245.653C294.7 246.353 295.1 247.053 295.4 247.853C297.4 253.253 301.8 261.453 305 266.253L315.9 282.853C315.9 282.853 319.7 279.753 320.3 278.353C320.9 276.953 321.2 265.653 321.2 265.653C321.2 265.653 320.3 267.753 318.4 267.653C317 267.553 314.2 268.353 312.2 266.153C310.6 264.353 310.6 261.553 312 259.653L316.9 252.953C316.9 252.953 320.2 250.053 324.6 252.053C329 254.053 333.3 258.153 333.3 258.153C333.3 258.153 337.4 257.953 340.9 259.653C344.4 261.353 348 266.153 348 266.153C348 266.153 352.1 266.353 353.9 267.753C354.4 268.053 360.6 277.753 358.3 285.253C357 289.753 356.1 296.253 355.5 298.053L352.4 342.153L358.5 371.153L345.4 378.453C340.6 381.153 335.5 383.453 330.3 385.253L320.9 388.153Z" fill="black"/>
<path d="M358.2 336.653L358.3 292.453C358.8 290.653 359.2 284.153 360.2 279.553C361.9 271.853 355.1 262.653 354.6 262.353C352.7 261.153 348.6 261.153 348.6 261.153C348.6 261.153 344.6 256.553 341 255.153C337.4 253.753 333.3 254.153 333.3 254.153C333.3 254.153 328.8 250.353 324.2 248.653C319.7 246.953 316.5 250.053 316.5 250.053L312 257.053C310.7 259.153 310.9 261.853 312.6 263.553C314.7 265.653 317.5 264.653 318.9 264.653C320.8 264.653 321.5 262.453 321.5 262.453C321.5 262.453 322 273.753 321.5 275.153C321 276.553 317.4 279.953 317.4 279.953L305.4 264.153C301.9 259.553 297 251.553 294.6 246.353C294.2 245.553 293.8 244.853 293.3 244.253C291.2 241.853 286.7 241.153 285.5 245.553C285.2 246.753 285.3 248.653 285.7 249.753C290.7 264.553 297.1 275.653 302.9 287.353C306.4 294.253 305.1 294.153 306.8 297.353C306.6 297.453 306.7 297.753 306.5 297.853C305.7 301.253 305.1 304.553 304.2 307.953C303.4 303.953 302.3 299.453 300.4 295.753C300.8 293.353 301.2 291.053 300.9 288.653C300.7 286.253 299.8 283.853 297.9 282.353C297 281.553 295.7 281.053 294.4 280.953C292.5 280.853 290.8 282.153 290.6 284.053C290.3 285.853 290.1 287.953 289.6 289.453C288.1 294.053 286.8 296.053 286.8 296.253C286.8 300.753 289.6 299.953 291.6 317.953C293.2 331.953 311.2 341.153 321 351.253L331.4 384.153C343.5 379.253 355.1 373.053 366.3 365.853L358.2 336.653Z" fill="white"/>
<mask id="mask0_17_1371" style="mask-type:luminance" maskUnits="userSpaceOnUse" x="285" y="242" width="82" height="143">
<path d="M358.2 336.653L358.3 292.453C358.8 290.653 359.2 284.153 360.2 279.553C361.9 271.853 355.1 262.653 354.6 262.353C352.7 261.153 348.6 261.153 348.6 261.153C348.6 261.153 344.6 256.553 341 255.153C337.4 253.753 333.3 254.153 333.3 254.153C333.3 254.153 328.8 250.353 324.2 248.653C319.7 246.953 316.5 250.053 316.5 250.053L312 257.053C310.7 259.153 310.9 261.853 312.6 263.553C314.7 265.653 317.5 264.653 318.9 264.653C320.8 264.653 321.5 262.453 321.5 262.453C321.5 262.453 322 273.753 321.5 275.153C321 276.553 317.4 279.953 317.4 279.953L305.4 264.153C301.9 259.553 297 251.553 294.6 246.353C294.2 245.553 293.8 244.853 293.3 244.253C291.2 241.853 286.7 241.153 285.5 245.553C285.2 246.753 285.3 248.653 285.7 249.753C290.7 264.553 297.1 275.653 302.9 287.353C306.4 294.253 305.1 294.153 306.8 297.353C306.6 297.453 306.7 297.753 306.5 297.853C305.7 301.253 305.1 304.553 304.2 307.953C303.4 303.953 302.3 299.453 300.4 295.753C300.8 293.353 301.2 291.053 300.9 288.653C300.7 286.253 299.8 283.853 297.9 282.353C297 281.553 295.7 281.053 294.4 280.953C292.5 280.853 290.8 282.153 290.6 284.053C290.3 285.853 290.1 287.953 289.6 289.453C288.1 294.053 286.8 296.053 286.8 296.253C286.8 300.753 289.6 299.953 291.6 317.953C293.2 331.953 311.2 341.153 321 351.253L331.4 384.153C343.5 379.253 355.1 373.053 366.3 365.853L358.2 336.653Z" fill="white"/>
</mask>
<g mask="url(#mask0_17_1371)">
<path d="M353.1 276.553C353.6 275.253 354.3 273.953 355.4 273.053C356.5 272.153 358.3 272.153 359.2 273.153C358.5 270.853 357.7 268.553 356.8 266.353C356.2 264.653 355.4 262.853 354 261.653C352.6 260.453 350.2 260.253 349 261.653C349.9 266.853 350 272.253 349.3 277.453C348.9 280.253 348.5 283.553 350.4 285.653C350.9 286.053 351.8 285.353 351.5 284.753C351.3 284.453 350.8 284.453 350.5 284.453C351.2 281.853 352 279.153 353.1 276.553Z" fill="#0091BF"/>
<path d="M353.1 276.553C353.6 275.253 354.3 273.953 355.4 273.053C356.5 272.153 358.3 272.153 359.2 273.153C358.5 270.853 357.7 268.553 356.8 266.353C356.2 264.653 355.4 262.853 354 261.653C352.6 260.453 350.2 260.253 349 261.653C349.9 266.853 350 272.253 349.3 277.453C348.9 280.253 348.5 283.553 350.4 285.653C350.9 286.053 351.8 285.353 351.5 284.753C351.3 284.453 350.8 284.453 350.5 284.453C351.2 281.853 352 279.153 353.1 276.553Z" fill="#0091BF"/>
<path opacity="0.5" d="M353.1 276.553C353.6 275.253 354.3 273.953 355.4 273.053C356.5 272.153 358.3 272.153 359.2 273.153C358.5 270.853 357.7 268.553 356.8 266.353C356.2 264.653 355.4 262.853 354 261.653C352.6 260.453 350.2 260.253 349 261.653C349.9 266.853 350 272.253 349.3 277.453C348.9 280.253 348.5 283.553 350.4 285.653C350.9 286.053 351.8 285.353 351.5 284.753C351.3 284.453 350.8 284.453 350.5 284.453C351.2 281.853 352 279.153 353.1 276.553Z" fill="white"/>
<path d="M337.1 271.853C337.2 273.753 337.2 275.753 337.6 277.553C338.1 279.453 339.1 281.253 340.8 282.153C339.8 278.453 340.3 274.453 340.9 270.653C341.2 268.353 341.6 266.053 341.9 263.653C342 262.853 342.1 262.053 342.6 261.353C343.1 260.653 344 260.253 344.7 260.553C343.7 261.153 342.4 260.353 341.8 259.353C341.2 258.353 341 257.153 340.3 256.253C339 254.553 336.1 254.153 334.1 254.653C334.8 260.453 336.9 265.953 337.1 271.853Z" fill="#0091BF"/>
<path d="M337.1 271.853C337.2 273.753 337.2 275.753 337.6 277.553C338.1 279.453 339.1 281.253 340.8 282.153C339.8 278.453 340.3 274.453 340.9 270.653C341.2 268.353 341.6 266.053 341.9 263.653C342 262.853 342.1 262.053 342.6 261.353C343.1 260.653 344 260.253 344.7 260.553C343.7 261.153 342.4 260.353 341.8 259.353C341.2 258.353 341 257.153 340.3 256.253C339 254.553 336.1 254.153 334.1 254.653C334.8 260.453 336.9 265.953 337.1 271.853Z" fill="#0091BF"/>
<g opacity="0.5">
<path d="M337.1 271.853C337.2 273.753 337.2 275.753 337.6 277.553C338.1 279.453 339.1 281.253 340.8 282.153C339.8 278.453 340.3 274.453 340.9 270.653C341.2 268.353 341.6 266.053 341.9 263.653C342 262.853 342.1 262.053 342.6 261.353C343.1 260.653 344 260.253 344.7 260.553C343.7 261.153 342.4 260.353 341.8 259.353C341.2 258.353 341 257.153 340.3 256.253C339 254.553 336.1 254.153 334.1 254.653C334.8 260.453 336.9 265.953 337.1 271.853Z" fill="white"/>
</g>
<path d="M320.8 256.353C320.2 255.853 319.9 255.053 319.7 254.253C319.5 253.453 319.2 252.653 318.5 252.253C315.4 254.153 317.1 259.953 314 261.853C313.4 262.253 312.6 262.453 312.3 263.053C312 263.653 312.2 264.353 312.6 264.853C313 265.353 313.7 265.553 314.3 265.653C316.8 266.053 319.4 264.853 320.8 262.853C322 261.153 322.9 258.453 322.3 256.453C321.9 256.653 321.3 256.753 320.8 256.353Z" fill="#0091BF"/>
<path d="M288.9 293.753C288.8 293.953 288.8 294.253 289 294.353C289.3 294.553 289.6 294.253 289.8 293.953C291.1 292.153 293.6 291.253 295.8 292.053C296.6 292.053 296.9 290.853 296.4 290.153C295.9 289.453 295 289.453 294.2 289.453C293.4 289.453 292.5 289.453 291.8 289.053C291 288.553 290.6 287.453 290.8 286.553C290.2 288.953 289.5 291.353 288.9 293.753Z" fill="#0091BF"/>
<g opacity="0.5">
<path d="M320.8 256.353C320.2 255.853 319.9 255.053 319.7 254.253C319.5 253.453 319.2 252.653 318.5 252.253C315.4 254.153 317.1 259.953 314 261.853C313.4 262.253 312.6 262.453 312.3 263.053C312 263.653 312.2 264.353 312.6 264.853C313 265.353 313.7 265.553 314.3 265.653C316.8 266.053 319.4 264.853 320.8 262.853C322 261.153 322.9 258.453 322.3 256.453C321.9 256.653 321.3 256.753 320.8 256.353Z" fill="white"/>
<path d="M288.9 293.753C288.8 293.953 288.8 294.253 289 294.353C289.3 294.553 289.6 294.253 289.8 293.953C291.1 292.153 293.6 291.253 295.8 292.053C296.6 292.053 296.9 290.853 296.4 290.153C295.9 289.453 295 289.453 294.2 289.453C293.4 289.453 292.5 289.453 291.8 289.053C291 288.553 290.6 287.453 290.8 286.553C290.2 288.953 289.5 291.353 288.9 293.753Z" fill="white"/>
</g>
<path d="M329.6 255.653C327.9 255.453 326 255.353 324.5 254.453C322.6 253.353 321.3 250.953 319.1 250.853C317.1 250.753 315.7 252.553 314.6 254.153C314.5 251.753 316.3 249.453 318.5 248.553C320.8 247.653 323.4 247.953 325.7 248.853C328 249.753 330 251.253 331.9 252.753C332.7 253.353 333.5 253.953 334 254.753C336.4 258.653 331.1 255.853 329.6 255.653Z" fill="#0091BF"/>
<path opacity="0.5" d="M329.6 255.653C327.9 255.453 326 255.353 324.5 254.453C322.6 253.353 321.3 250.953 319.1 250.853C317.1 250.753 315.7 252.553 314.6 254.153C314.5 251.753 316.3 249.453 318.5 248.553C320.8 247.653 323.4 247.953 325.7 248.853C328 249.753 330 251.253 331.9 252.753C332.7 253.353 333.5 253.953 334 254.753C336.4 258.653 331.1 255.853 329.6 255.653Z" fill="white"/>
</g>
<mask id="mask1_17_1371" style="mask-type:luminance" maskUnits="userSpaceOnUse" x="285" y="242" width="82" height="143">
<path d="M358.2 336.653L358.3 292.453C358.8 290.653 359.2 284.153 360.2 279.553C361.9 271.853 355.1 262.653 354.6 262.353C352.7 261.153 348.6 261.153 348.6 261.153C348.6 261.153 344.6 256.553 341 255.153C337.4 253.753 333.3 254.153 333.3 254.153C333.3 254.153 328.8 250.353 324.2 248.653C319.7 246.953 316.5 250.053 316.5 250.053L312 257.053C310.7 259.153 310.9 261.853 312.6 263.553C314.7 265.653 317.5 264.653 318.9 264.653C320.8 264.653 321.5 262.453 321.5 262.453C321.5 262.453 322 273.753 321.5 275.153C321 276.553 317.4 279.953 317.4 279.953L305.4 264.153C301.9 259.553 297 251.553 294.6 246.353C294.2 245.553 293.8 244.853 293.3 244.253C291.2 241.853 286.7 241.153 285.5 245.553C285.2 246.753 285.3 248.653 285.7 249.753C290.7 264.553 297.1 275.653 302.9 287.353C306.4 294.253 305.1 294.153 306.8 297.353C306.6 297.453 306.7 297.753 306.5 297.853C305.7 301.253 305.1 304.553 304.2 307.953C303.4 303.953 302.3 299.453 300.4 295.753C300.8 293.353 301.2 291.053 300.9 288.653C300.7 286.253 299.8 283.853 297.9 282.353C297 281.553 295.7 281.053 294.4 280.953C292.5 280.853 290.8 282.153 290.6 284.053C290.3 285.853 290.1 287.953 289.6 289.453C288.1 294.053 286.8 296.053 286.8 296.253C286.8 300.753 289.6 299.953 291.6 317.953C293.2 331.953 311.2 341.153 321 351.253L331.4 384.153C343.5 379.253 355.1 373.053 366.3 365.853L358.2 336.653Z" fill="white"/>
</mask>
<g mask="url(#mask1_17_1371)">
<path d="M298.3 312.453C298.4 312.253 298.5 312.053 298.6 311.753C298.4 311.953 298.3 312.153 298.3 312.453Z" fill="#0091BF"/>
<path d="M301.3 296.953C301.1 294.453 301.5 292.053 301.4 289.553C301.3 287.053 300.7 284.453 298.9 282.753C296.3 280.353 289.3 281.553 291.6 286.153C292.3 287.453 294 288.053 295.3 287.553C296.6 286.953 297.3 285.153 296.5 283.953C299.4 288.253 299.1 294.453 295.9 298.553C299.6 301.753 300.7 307.453 298.7 311.853C299.1 311.553 299.9 311.453 300.3 311.853C301 312.353 301.2 313.353 301.6 314.153C301.9 314.953 302.6 315.753 303.5 315.753C304.7 312.853 304.3 309.453 303.5 306.353C302.7 303.153 301.5 300.153 301.3 296.953Z" fill="#0091BF"/>
<path d="M327.2 250.553C325.8 249.453 324.2 248.753 322.5 248.553L327.2 250.553Z" fill="#0091BF"/>
<path d="M338.9 281.853C338.5 280.153 337.7 278.553 337.3 276.853C336.2 272.953 336.9 268.753 336.4 264.753C335.8 259.553 333 254.653 329 251.253L327.2 250.453C328.9 251.753 330.2 253.653 330.8 255.653C332.2 260.453 332.6 265.453 333.2 270.353C334.1 277.953 335.5 285.553 337.4 292.953C338.5 289.453 339.8 285.653 338.9 281.853Z" fill="#0091BF"/>
<path d="M319.9 264.053C321.1 263.053 321.8 261.553 322 259.953C322.2 258.553 322.1 257.153 321.9 255.753C321.8 256.353 321 256.853 320.3 256.653C319.4 256.453 318.9 255.653 318.4 254.953C318.3 255.353 318.2 255.753 318 256.253C318 256.053 317.9 255.753 317.9 255.553L317.4 256.153C318.1 258.153 318.8 260.453 317.7 262.353C317.2 263.253 316.3 263.853 315.4 264.453C316.8 265.353 318.6 265.053 319.9 264.053Z" fill="#0091BF"/>
<path d="M321.8 255.253C321.8 255.453 321.8 255.553 321.9 255.753C321.9 255.553 321.9 255.453 321.8 255.253Z" fill="#0091BF"/>
<path d="M316.6 275.453C313.1 268.553 309.6 261.653 305.7 254.953C303.4 251.053 301.1 247.153 298.1 243.753C296.8 242.253 292.9 238.753 290.8 241.053C289.4 242.553 291.2 245.353 289.5 246.953C289.9 246.953 291.9 246.753 292.1 247.053C296.5 252.453 298.9 259.453 298.8 266.453C300.2 265.353 302.1 266.853 303.2 268.253C310 276.953 316.3 286.053 322.2 295.353C321.1 291.253 321 286.853 319.8 282.753C319 280.353 317.8 277.853 316.6 275.453Z" fill="#0091BF"/>
<path d="M357.3 292.253C359 287.753 360.3 283.153 360.4 278.453C360.5 274.153 359.5 269.653 357.3 265.953C356.7 265.053 354.3 261.153 353 261.453C350.7 262.053 353.7 266.053 354.3 267.153C356.3 270.953 358.4 275.053 358.3 279.453C358.2 282.853 356.8 285.953 355.7 289.153C354.9 291.353 354.3 293.753 354.3 296.053C354.1 296.353 354 296.553 353.8 296.853C352.2 298.853 350.1 300.553 347.5 300.953C348.5 297.953 349.4 294.953 350.4 291.953C350.7 290.853 350.9 289.453 350.3 288.653C350.5 288.253 350.601 287.853 350.601 287.353C350.601 286.553 350.1 285.753 349.8 285.053C348.5 282.153 348.9 278.853 349.2 275.653C349.6 271.753 349.801 267.753 348.601 263.953C347.501 260.253 344.801 256.753 341.101 255.453C341.401 255.753 341.701 256.153 342.101 256.453L340.8 255.553C341.6 257.153 342.401 258.853 343.101 260.453C342.801 260.853 342.5 261.253 342.2 261.653C343.5 260.953 345.1 261.953 345.7 263.253C346.3 264.553 346.1 266.153 346 267.553C345.2 275.653 345.6 283.853 347.2 291.853C347.1 293.753 346.7 295.553 345.8 297.153C344.8 298.853 342.8 300.153 340.8 299.853C341.2 297.953 340.5 295.653 338.9 294.553C336.9 297.353 338.1 301.653 338.4 304.853C338.9 309.653 339.6 314.453 340.7 319.253C341 315.153 341.9 311.053 343.3 307.253C344.4 311.153 345.501 315.153 346.601 319.053C346.601 317.953 346.7 316.753 347.2 315.853C347.7 314.853 348.9 314.153 350 314.553C350.8 314.853 351.3 315.753 351.7 316.653C354.5 323.453 355.2 331.053 353.7 338.253C355 338.953 356.801 338.053 357.601 336.753C358.301 335.453 358.3 333.753 358.3 332.253C357.8 318.953 357.6 305.653 357.3 292.253Z" fill="#0091BF"/>
<path d="M323.4 296.553C322.8 297.653 325.4 302.153 325.8 303.153C328 308.553 330.2 313.953 332.4 319.253C331.7 312.153 329.9 305.153 327.3 298.553C326.9 297.553 324.7 294.253 323.4 296.553Z" fill="#0091BF"/>
<path d="M326.8 267.953C326.4 268.553 325.9 269.253 325.2 269.053C324.6 268.853 324.5 268.053 324.5 267.453C324.6 263.753 324.6 259.953 324.7 256.253C321.7 258.453 322.1 261.253 321.9 264.453C321.8 266.353 322.3 275.253 321 276.353C324 273.853 326.5 270.753 328.4 267.253C328 266.853 327.2 267.453 326.8 267.953Z" fill="#0091BF"/>
<g opacity="0.5">
<path d="M298.3 312.453C298.4 312.253 298.5 312.053 298.6 311.753C298.4 311.953 298.3 312.153 298.3 312.453Z" fill="white"/>
<path d="M301.3 296.953C301.1 294.453 301.5 292.053 301.4 289.553C301.3 287.053 300.7 284.453 298.9 282.753C296.3 280.353 289.3 281.553 291.6 286.153C292.3 287.453 294 288.053 295.3 287.553C296.6 286.953 297.3 285.153 296.5 283.953C299.4 288.253 299.1 294.453 295.9 298.553C299.6 301.753 300.7 307.453 298.7 311.853C299.1 311.553 299.9 311.453 300.3 311.853C301 312.353 301.2 313.353 301.6 314.153C301.9 314.953 302.6 315.753 303.5 315.753C304.7 312.853 304.3 309.453 303.5 306.353C302.7 303.153 301.5 300.153 301.3 296.953Z" fill="white"/>
<path d="M327.2 250.553C325.8 249.453 324.2 248.753 322.5 248.553L327.2 250.553Z" fill="white"/>
<path d="M338.9 281.853C338.5 280.153 337.7 278.553 337.3 276.853C336.2 272.953 336.9 268.753 336.4 264.753C335.8 259.553 333 254.653 329 251.253L327.2 250.453C328.9 251.753 330.2 253.653 330.8 255.653C332.2 260.453 332.6 265.453 333.2 270.353C334.1 277.953 335.5 285.553 337.4 292.953C338.5 289.453 339.8 285.653 338.9 281.853Z" fill="white"/>
<path d="M319.9 264.053C321.1 263.053 321.8 261.553 322 259.953C322.2 258.553 322.1 257.153 321.9 255.753C321.8 256.353 321 256.853 320.3 256.653C319.4 256.453 318.9 255.653 318.4 254.953C318.3 255.353 318.2 255.753 318 256.253C318 256.053 317.9 255.753 317.9 255.553L317.4 256.153C318.1 258.153 318.8 260.453 317.7 262.353C317.2 263.253 316.3 263.853 315.4 264.453C316.8 265.353 318.6 265.053 319.9 264.053Z" fill="white"/>
<path d="M321.8 255.253C321.8 255.453 321.8 255.553 321.9 255.753C321.9 255.553 321.9 255.453 321.8 255.253Z" fill="white"/>
<path d="M316.6 275.453C313.1 268.553 309.6 261.653 305.7 254.953C303.4 251.053 301.1 247.153 298.1 243.753C296.8 242.253 292.9 238.753 290.8 241.053C289.4 242.553 291.2 245.353 289.5 246.953C289.9 246.953 291.9 246.753 292.1 247.053C296.5 252.453 298.9 259.453 298.8 266.453C300.2 265.353 302.1 266.853 303.2 268.253C310 276.953 316.3 286.053 322.2 295.353C321.1 291.253 321 286.853 319.8 282.753C319 280.353 317.8 277.853 316.6 275.453Z" fill="white"/>
<path d="M357.3 292.253C359 287.753 360.3 283.153 360.4 278.453C360.5 274.153 359.5 269.653 357.3 265.953C356.7 265.053 354.3 261.153 353 261.453C350.7 262.053 353.7 266.053 354.3 267.153C356.3 270.953 358.4 275.053 358.3 279.453C358.2 282.853 356.8 285.953 355.7 289.153C354.9 291.353 354.3 293.753 354.3 296.053C354.1 296.353 354 296.553 353.8 296.853C352.2 298.853 350.1 300.553 347.5 300.953C348.5 297.953 349.4 294.953 350.4 291.953C350.7 290.853 350.9 289.453 350.3 288.653C350.5 288.253 350.601 287.853 350.601 287.353C350.601 286.553 350.1 285.753 349.8 285.053C348.5 282.153 348.9 278.853 349.2 275.653C349.6 271.753 349.801 267.753 348.601 263.953C347.501 260.253 344.801 256.753 341.101 255.453C341.401 255.753 341.701 256.153 342.101 256.453L340.8 255.553C341.6 257.153 342.401 258.853 343.101 260.453C342.801 260.853 342.5 261.253 342.2 261.653C343.5 260.953 345.1 261.953 345.7 263.253C346.3 264.553 346.1 266.153 346 267.553C345.2 275.653 345.6 283.853 347.2 291.853C347.1 293.753 346.7 295.553 345.8 297.153C344.8 298.853 342.8 300.153 340.8 299.853C341.2 297.953 340.5 295.653 338.9 294.553C336.9 297.353 338.1 301.653 338.4 304.853C338.9 309.653 339.6 314.453 340.7 319.253C341 315.153 341.9 311.053 343.3 307.253C344.4 311.153 345.501 315.153 346.601 319.053C346.601 317.953 346.7 316.753 347.2 315.853C347.7 314.853 348.9 314.153 350 314.553C350.8 314.853 351.3 315.753 351.7 316.653C354.5 323.453 355.2 331.053 353.7 338.253C355 338.953 356.801 338.053 357.601 336.753C358.301 335.453 358.3 333.753 358.3 332.253C357.8 318.953 357.6 305.653 357.3 292.253Z" fill="white"/>
<path d="M323.4 296.553C322.8 297.653 325.4 302.153 325.8 303.153C328 308.553 330.2 313.953 332.4 319.253C331.7 312.153 329.9 305.153 327.3 298.553C326.9 297.553 324.7 294.253 323.4 296.553Z" fill="white"/>
<path d="M326.8 267.953C326.4 268.553 325.9 269.253 325.2 269.053C324.6 268.853 324.5 268.053 324.5 267.453C324.6 263.753 324.6 259.953 324.7 256.253C321.7 258.453 322.1 261.253 321.9 264.453C321.8 266.353 322.3 275.253 321 276.353C324 273.853 326.5 270.753 328.4 267.253C328 266.853 327.2 267.453 326.8 267.953Z" fill="white"/>
</g>
</g>
<path d="M290.099 293.253C288.899 294.153 287.899 295.253 287.199 296.553L290.099 293.253Z" fill="white"/>
<path d="M331.7 384.253L321.3 351.353C311.5 341.253 293.5 332.053 291.9 318.053C289.9 300.153 287.1 300.853 287.1 296.353C287.1 296.153 288.4 294.153 289.9 289.553C290.4 288.053 290.6 285.953 290.9 284.153C291.2 282.253 292.8 280.853 294.7 281.053C296 281.153 297.2 281.653 298.2 282.453C300 283.953 300.9 286.353 301.2 288.753C301.4 291.153 301.1 293.553 300.7 295.853C302.6 299.453 303.7 303.953 304.5 308.053C305.3 304.653 305.9 301.353 306.8 297.953C307 297.853 306.9 297.553 307.1 297.453C305.4 294.353 306.7 294.453 303.2 287.453C297.4 275.853 291 264.653 286 249.853C285.6 248.753 285.5 246.753 285.8 245.653C287 241.253 291.5 241.953 293.6 244.353C294.2 244.953 294.6 245.653 294.9 246.453C297.3 251.653 302.2 259.653 305.7 264.253L317.7 280.053C317.7 280.053 321.3 276.753 321.8 275.253C322.3 273.853 321.8 262.553 321.8 262.553C321.8 262.553 321.1 264.753 319.2 264.753C317.8 264.753 315.1 265.753 312.9 263.653C311.2 261.953 311 259.153 312.3 257.153L316.8 250.153C316.8 250.153 319.9 247.053 324.5 248.753C329 250.453 333.6 254.253 333.6 254.253C333.6 254.253 337.7 253.753 341.3 255.253C344.9 256.653 348.9 261.253 348.9 261.253C348.9 261.253 353 261.253 354.9 262.453C355.4 262.753 362.2 271.953 360.5 279.653C359.5 284.253 359.1 290.753 358.6 292.553L358.5 336.753L366.8 366.053" stroke="#263238" stroke-miterlimit="10"/>
<path d="M334.499 255.753C336.299 262.253 337.199 269.053 337.199 275.753C337.199 276.853 337.199 278.053 337.599 279.153C337.999 280.253 338.799 281.253 339.899 281.453" stroke="#263238" stroke-miterlimit="10"/>
<path d="M348.599 262.353C351.599 268.653 348.499 282.553 348.799 283.553C348.999 284.553 349.599 285.453 350.499 285.953" stroke="#263238" stroke-miterlimit="10"/>
<path d="M322.899 254.853C322.599 256.853 322.299 259.153 321.899 261.153C319.599 259.153 318.099 256.253 317.899 253.153" stroke="#263238" stroke-miterlimit="10"/>
<path d="M303.699 308.253C302.999 308.553 302.299 308.853 301.499 309.253" stroke="#263238" stroke-miterlimit="10"/>
<path d="M304.299 309.953C303.899 311.653 303.899 313.353 304.299 315.053" stroke="#263238" stroke-miterlimit="10"/>
<path d="M316.899 291.253C317.699 292.653 318.499 294.153 319.299 295.553" stroke="#263238" stroke-miterlimit="10"/>
<path d="M321.499 275.553C322.299 274.453 323.099 273.353 323.899 272.153" stroke="#263238" stroke-miterlimit="10"/>
<path d="M354.999 291.253C354.799 292.153 354.499 293.053 354.299 293.853" stroke="#263238" stroke-miterlimit="10"/>
<path d="M349.2 284.053C349.9 281.853 350.6 279.553 351.3 277.353" stroke="#263238" stroke-miterlimit="10"/>
<path d="M356.2 272.153C357.4 271.453 359.2 271.953 359.8 273.253" stroke="#263238" stroke-miterlimit="10"/>
<path d="M341.799 260.653C343.499 260.153 345.299 260.653 346.599 261.753" stroke="#263238" stroke-miterlimit="10"/>
<path d="M297.299 267.353C298.799 265.653 301.199 264.753 303.499 265.053" stroke="#263238" stroke-miterlimit="10"/>
<path d="M288.299 248.453C289.699 247.453 291.599 246.953 293.299 247.253" stroke="#263238" stroke-miterlimit="10"/>
<path d="M290.1 293.253C288.9 294.153 287.9 295.253 287.2 296.553" stroke="#263238" stroke-miterlimit="10"/>
<path d="M291.1 288.653C292.7 287.553 295.2 290.053 296.7 288.753C297.3 288.253 297.3 287.353 297.2 286.553C297.1 285.753 296.8 285.053 296.9 284.253" stroke="#263238" stroke-miterlimit="10"/>
<path d="M335.7 281.753C337.6 285.653 338 290.353 336.8 294.553" stroke="#263238" stroke-miterlimit="10"/>
<path d="M347.3 287.953C347.6 289.853 347.3 291.853 346.3 293.453" stroke="#263238" stroke-miterlimit="10"/>
<path opacity="0.2" d="M250.599 302.953C250.699 303.653 250.699 304.353 250.499 305.053C249.799 308.053 247.999 316.853 247.299 321.653C246.499 327.553 236.999 345.653 236.999 345.653C236.999 345.653 228.299 356.453 223.799 362.153C221.599 364.953 218.199 376.153 215.199 386.853C211.499 385.753 207.799 384.553 204.199 383.253C201.199 382.153 198.199 381.053 195.199 379.853C190.999 378.253 185.699 375.553 179.599 372.253C181.299 366.253 182.399 361.553 182.399 361.353C182.299 360.753 185.999 353.753 185.999 353.753L182.899 312.353L180.999 306.053C179.999 302.753 179.399 299.453 179.199 296.053C178.799 290.953 179.199 285.753 180.499 280.753L185.899 272.653L188.399 272.453L196.299 261.453C196.299 261.453 200.499 260.153 201.599 263.353C202.699 266.553 198.099 272.553 198.099 272.553L196.499 282.453L200.299 291.653L202.299 292.353C202.299 292.353 202.999 276.053 202.499 272.853L206.699 258.053C206.699 258.053 209.199 253.053 209.999 250.553C210.799 248.053 215.199 245.553 217.799 249.953C217.799 249.953 219.199 252.153 218.199 255.253C217.099 258.353 216.299 260.653 216.299 260.653C216.299 260.653 215.399 273.253 215.099 273.553C214.799 273.853 216.999 292.253 216.999 292.253L218.599 292.953L219.199 275.353L222.599 258.853C222.599 258.853 222.299 250.953 227.899 251.853C227.899 251.853 230.499 251.553 231.999 254.453C233.499 257.353 232.099 276.253 232.099 276.253L233.499 295.853L235.699 310.953L238.299 300.553C238.299 300.553 238.399 285.653 247.799 284.453C247.799 284.453 250.599 283.953 251.199 285.853C251.799 287.753 249.799 291.753 250.099 295.553C249.999 298.353 250.399 301.353 250.599 302.953Z" fill="black"/>
<path d="M247.699 284.553C247.299 282.553 244.499 282.853 244.499 282.853C235.099 283.453 233.799 298.253 233.799 298.253L230.399 308.353L229.299 293.053L229.399 273.353C229.399 273.353 232.299 254.553 230.999 251.553C229.699 248.553 227.099 248.653 227.099 248.653C221.599 247.253 221.299 255.153 221.299 255.153L216.699 271.353L214.799 288.853L213.199 288.053C213.199 288.053 212.499 269.553 212.799 269.253C213.099 268.953 214.999 256.453 214.999 256.453C214.999 256.453 215.999 254.153 217.299 251.153C218.599 248.153 217.299 245.853 217.299 245.853C215.099 241.353 210.399 243.453 209.499 245.853C208.499 248.253 205.699 253.053 205.699 253.053L200.399 267.553C200.599 270.853 198.699 287.053 198.699 287.053L196.799 286.153L193.699 276.653L195.999 266.953C195.999 266.953 201.099 261.353 200.199 258.053C199.399 254.753 194.999 255.753 194.999 255.753L186.399 266.153H183.899L177.899 273.753C176.299 278.653 175.399 283.753 175.399 288.953C175.399 292.353 175.799 295.753 176.499 299.053L177.899 305.453V347.053C177.899 347.053 173.799 353.753 173.799 354.353C173.799 354.653 172.099 359.853 169.699 366.453C180.099 372.553 188.999 377.253 195.299 379.753C198.299 380.953 201.299 382.053 204.299 383.153C208.099 372.453 212.499 361.053 214.999 358.353C219.899 353.053 229.399 342.953 229.399 342.953C229.399 342.953 240.199 325.553 241.499 319.853C242.499 315.153 245.099 306.553 245.999 303.553C246.199 302.853 246.299 302.153 246.199 301.453C246.099 299.853 245.999 296.853 245.999 294.153C245.899 290.353 248.199 286.553 247.699 284.553Z" fill="white"/>
<mask id="mask2_17_1371" style="mask-type:luminance" maskUnits="userSpaceOnUse" x="169" y="243" width="79" height="141">
<path d="M247.699 284.553C247.299 282.553 244.499 282.853 244.499 282.853C235.099 283.453 233.799 298.253 233.799 298.253L230.399 308.353L229.299 293.053L229.399 273.353C229.399 273.353 232.299 254.553 230.999 251.553C229.699 248.553 227.099 248.653 227.099 248.653C221.599 247.253 221.299 255.153 221.299 255.153L216.699 271.353L214.799 288.853L213.199 288.053C213.199 288.053 212.499 269.553 212.799 269.253C213.099 268.953 214.999 256.453 214.999 256.453C214.999 256.453 215.999 254.153 217.299 251.153C218.599 248.153 217.299 245.853 217.299 245.853C215.099 241.353 210.399 243.453 209.499 245.853C208.499 248.253 205.699 253.053 205.699 253.053L200.399 267.553C200.599 270.853 198.699 287.053 198.699 287.053L196.799 286.153L193.699 276.653L195.999 266.953C195.999 266.953 201.099 261.353 200.199 258.053C199.399 254.753 194.999 255.753 194.999 255.753L186.399 266.153H183.899L177.899 273.753C176.299 278.653 175.399 283.753 175.399 288.953C175.399 292.353 175.799 295.753 176.499 299.053L177.899 305.453V347.053C177.899 347.053 173.799 353.753 173.799 354.353C173.799 354.653 172.099 359.853 169.699 366.453C180.099 372.553 188.999 377.253 195.299 379.753C198.299 380.953 201.299 382.053 204.299 383.153C208.099 372.453 212.499 361.053 214.999 358.353C219.899 353.053 229.399 342.953 229.399 342.953C229.399 342.953 240.199 325.553 241.499 319.853C242.499 315.153 245.099 306.553 245.999 303.553C246.199 302.853 246.299 302.153 246.199 301.453C246.099 299.853 245.999 296.853 245.999 294.153C245.899 290.353 248.199 286.553 247.699 284.553Z" fill="white"/>
</mask>
<g mask="url(#mask2_17_1371)">
<path d="M182.8 280.353C184.4 278.353 187.7 277.553 189.6 279.353C190.7 280.353 191 281.953 191.3 283.353C191.6 284.853 191.8 286.353 192.8 287.453C193.8 288.553 195.7 289.053 196.7 287.953C196.8 290.153 197 292.353 197.1 294.553C199.4 290.453 200.6 285.753 200.5 281.153C200.5 278.853 200.1 276.553 200.6 274.353C201.1 272.153 202.8 269.953 205.1 269.853C207.6 269.753 209.6 272.153 210.1 274.653C210.6 277.153 210 279.653 209.9 282.153C209.7 285.953 210.4 289.853 212.1 293.353C212.6 292.253 213.2 291.253 213.7 290.153C214.2 292.353 214.7 294.453 215.1 296.653C215.5 291.953 215.9 287.153 216.3 282.453C216.4 281.153 216.5 279.753 217.2 278.553C217.8 277.353 219.1 276.353 220.4 276.553C222.2 276.753 223.2 278.653 223.8 280.353C228.3 293.053 226.4 307.053 224.5 320.453C225.8 320.653 226.8 319.453 227.1 318.153C227.4 316.953 227.3 315.553 227.8 314.453C228.3 313.253 229.7 312.253 230.8 312.953C232.4 313.953 231.3 317.053 232.9 317.853C233.4 313.853 235 310.053 237.4 306.953C238.5 305.553 240.2 304.053 241.9 304.553C243.2 304.853 244.1 306.253 244.3 307.553C244.5 308.853 246.4 303.353 246.1 304.653C246.9 296.953 245.3 296.153 246.1 288.453C246.2 287.053 248.5 284.653 247.5 283.653C246.6 282.653 243.9 281.253 242.7 281.853C241.5 282.453 237.6 284.353 236.8 285.453C231.9 292.253 232.2 302.053 230.7 310.253C229.4 297.653 228.1 284.953 230.4 272.553C231.7 265.753 234 258.553 231.8 251.953C230.8 248.953 228.1 245.953 225 246.453C222.5 246.953 221 249.453 219.9 251.853C216.5 259.753 214.9 268.353 213.4 276.853C215.3 268.353 217.2 259.753 219 251.253C219.5 249.053 220 246.753 219.6 244.553C219.2 242.353 217.7 240.153 215.4 239.653C213.2 239.153 211 240.453 209.3 242.053C203.4 247.453 201.1 255.753 199.2 263.653C199.9 261.653 200.6 259.453 200.4 257.353C200.2 255.253 198.8 253.053 196.7 252.553C194 251.953 191.5 254.353 190.3 256.953C189.1 259.453 188.5 262.353 186.6 264.353C185.2 262.753 182.6 262.853 180.9 264.053C179.2 265.253 178.1 267.153 177.3 269.053C174.2 276.053 172.8 283.853 173.4 291.553C174.8 288.453 178.3 286.453 181.6 286.853C181.4 285.153 181.2 283.453 181 281.753" fill="#0091BF"/>
</g>
<mask id="mask3_17_1371" style="mask-type:luminance" maskUnits="userSpaceOnUse" x="169" y="243" width="79" height="141">
<path d="M247.699 284.553C247.299 282.553 244.499 282.853 244.499 282.853C235.099 283.453 233.799 298.253 233.799 298.253L230.399 308.353L229.299 293.053L229.399 273.353C229.399 273.353 232.299 254.553 230.999 251.553C229.699 248.553 227.099 248.653 227.099 248.653C221.599 247.253 221.299 255.153 221.299 255.153L216.699 271.353L214.799 288.853L213.199 288.053C213.199 288.053 212.499 269.553 212.799 269.253C213.099 268.953 214.999 256.453 214.999 256.453C214.999 256.453 215.999 254.153 217.299 251.153C218.599 248.153 217.299 245.853 217.299 245.853C215.099 241.353 210.399 243.453 209.499 245.853C208.499 248.253 205.699 253.053 205.699 253.053L200.399 267.553C200.599 270.853 198.699 287.053 198.699 287.053L196.799 286.153L193.699 276.653L195.999 266.953C195.999 266.953 201.099 261.353 200.199 258.053C199.399 254.753 194.999 255.753 194.999 255.753L186.399 266.153H183.899L177.899 273.753C176.299 278.653 175.399 283.753 175.399 288.953C175.399 292.353 175.799 295.753 176.499 299.053L177.899 305.453V347.053C177.899 347.053 173.799 353.753 173.799 354.353C173.799 354.653 172.099 359.853 169.699 366.453C180.099 372.553 188.999 377.253 195.299 379.753C198.299 380.953 201.299 382.053 204.299 383.153C208.099 372.453 212.499 361.053 214.999 358.353C219.899 353.053 229.399 342.953 229.399 342.953C229.399 342.953 240.199 325.553 241.499 319.853C242.499 315.153 245.099 306.553 245.999 303.553C246.199 302.853 246.299 302.153 246.199 301.453C246.099 299.853 245.999 296.853 245.999 294.153C245.899 290.353 248.199 286.553 247.699 284.553Z" fill="white"/>
</mask>
<g mask="url(#mask3_17_1371)">
<path d="M189.4 296.653C189.3 297.953 189.2 299.153 189.1 300.453C189.5 299.353 191 299.053 191.9 299.753C191.7 298.953 192.2 298.153 192.5 297.453C192.8 296.653 192.9 295.653 192.1 295.253C191.2 294.853 190.4 295.853 189.9 296.653C189.9 296.353 189.8 296.053 189.8 295.753L189.4 296.653Z" fill="#0091BF"/>
<path d="M203.799 294.353C202.799 295.553 202.099 296.953 201.799 298.553C202.199 298.153 202.699 297.653 203.299 297.453C203.899 297.253 204.599 297.353 204.999 297.853C205.199 298.153 205.299 298.553 205.599 298.753C205.899 298.953 206.399 298.753 206.599 298.353C206.799 298.053 206.799 297.653 206.899 297.253C206.899 296.553 206.999 295.753 206.799 295.053C206.599 294.353 206.099 293.653 205.399 293.553C204.699 293.353 203.799 293.953 203.799 294.653V294.353Z" fill="#0091BF"/>
<path d="M217.7 297.853C216.6 299.353 215.9 301.053 215.6 302.853C216.3 302.753 217 302.253 217.5 301.853C218.1 301.353 218.7 300.953 219.5 300.853C220.2 300.753 221.1 301.353 221.1 302.053C221 301.253 221.1 300.353 221.2 299.553C221.3 298.753 221.3 297.853 221 297.053C220.7 296.253 219.9 295.553 219.1 295.653C218.3 295.653 217.5 296.653 217.9 297.453L217.7 297.853Z" fill="#0091BF"/>
<path d="M179.399 302.853C178.599 304.253 178.199 305.953 178.199 307.553C178.199 306.753 178.899 306.153 179.699 306.053C180.399 305.953 181.199 306.253 181.799 306.653C181.899 305.853 182.099 305.153 181.899 304.353C181.699 303.553 181.199 302.853 180.399 302.753C179.599 302.653 178.799 303.353 178.999 304.153C178.899 303.953 178.799 303.753 178.799 303.553L179.399 302.853Z" fill="#0091BF"/>
</g>
<mask id="mask4_17_1371" style="mask-type:luminance" maskUnits="userSpaceOnUse" x="169" y="243" width="79" height="141">
<path d="M247.699 284.553C247.299 282.553 244.499 282.853 244.499 282.853C235.099 283.453 233.799 298.253 233.799 298.253L230.399 308.353L229.299 293.053L229.399 273.353C229.399 273.353 232.299 254.553 230.999 251.553C229.699 248.553 227.099 248.653 227.099 248.653C221.599 247.253 221.299 255.153 221.299 255.153L216.699 271.353L214.799 288.853L213.199 288.053C213.199 288.053 212.499 269.553 212.799 269.253C213.099 268.953 214.999 256.453 214.999 256.453C214.999 256.453 215.999 254.153 217.299 251.153C218.599 248.153 217.299 245.853 217.299 245.853C215.099 241.353 210.399 243.453 209.499 245.853C208.499 248.253 205.699 253.053 205.699 253.053L200.399 267.553C200.599 270.853 198.699 287.053 198.699 287.053L196.799 286.153L193.699 276.653L195.999 266.953C195.999 266.953 201.099 261.353 200.199 258.053C199.399 254.753 194.999 255.753 194.999 255.753L186.399 266.153H183.899L177.899 273.753C176.299 278.653 175.399 283.753 175.399 288.953C175.399 292.353 175.799 295.753 176.499 299.053L177.899 305.453V347.053C177.899 347.053 173.799 353.753 173.799 354.353C173.799 354.653 172.099 359.853 169.699 366.453C180.099 372.553 188.999 377.253 195.299 379.753C198.299 380.953 201.299 382.053 204.299 383.153C208.099 372.453 212.499 361.053 214.999 358.353C219.899 353.053 229.399 342.953 229.399 342.953C229.399 342.953 240.199 325.553 241.499 319.853C242.499 315.153 245.099 306.553 245.999 303.553C246.199 302.853 246.299 302.153 246.199 301.453C246.099 299.853 245.999 296.853 245.999 294.153C245.899 290.353 248.199 286.553 247.699 284.553Z" fill="white"/>
</mask>
<g mask="url(#mask4_17_1371)">
<path opacity="0.5" d="M182.8 280.353C184.4 278.353 187.7 277.553 189.6 279.353C190.7 280.353 191 281.953 191.3 283.353C191.6 284.853 191.8 286.353 192.8 287.453C193.8 288.553 195.7 289.053 196.7 287.953C196.8 290.153 197 292.353 197.1 294.553C199.4 290.453 200.6 285.753 200.5 281.153C200.5 278.853 200.1 276.553 200.6 274.353C201.1 272.153 202.8 269.953 205.1 269.853C207.6 269.753 209.6 272.153 210.1 274.653C210.6 277.153 210 279.653 209.9 282.153C209.7 285.953 210.4 289.853 212.1 293.353C212.6 292.253 213.2 291.253 213.7 290.153C214.2 292.353 214.7 294.453 215.1 296.653C215.5 291.953 215.9 287.153 216.3 282.453C216.4 281.153 216.5 279.753 217.2 278.553C217.8 277.353 219.1 276.353 220.4 276.553C222.2 276.753 223.2 278.653 223.8 280.353C228.3 293.053 226.4 307.053 224.5 320.453C225.8 320.653 226.8 319.453 227.1 318.153C227.4 316.953 227.3 315.553 227.8 314.453C228.3 313.253 229.7 312.253 230.8 312.953C232.4 313.953 231.3 317.053 232.9 317.853C233.4 313.853 235 310.053 237.4 306.953C238.5 305.553 240.2 304.053 241.9 304.553C243.2 304.853 244.1 306.253 244.3 307.553C244.5 308.853 246.4 303.353 246.1 304.653C246.9 296.953 245.3 296.153 246.1 288.453C246.2 287.053 248.5 284.653 247.5 283.653C246.6 282.653 243.9 281.253 242.7 281.853C241.5 282.453 237.6 284.353 236.8 285.453C231.9 292.253 232.2 302.053 230.7 310.253C229.4 297.653 228.1 284.953 230.4 272.553C231.7 265.753 234 258.553 231.8 251.953C230.8 248.953 228.1 245.953 225 246.453C222.5 246.953 221 249.453 219.9 251.853C216.5 259.753 214.9 268.353 213.4 276.853C215.3 268.353 217.2 259.753 219 251.253C219.5 249.053 220 246.753 219.6 244.553C219.2 242.353 217.7 240.153 215.4 239.653C213.2 239.153 211 240.453 209.3 242.053C203.4 247.453 201.1 255.753 199.2 263.653C199.9 261.653 200.6 259.453 200.4 257.353C200.2 255.253 198.8 253.053 196.7 252.553C194 251.953 191.5 254.353 190.3 256.953C189.1 259.453 188.5 262.353 186.6 264.353C185.2 262.753 182.6 262.853 180.9 264.053C179.2 265.253 178.1 267.153 177.3 269.053C174.2 276.053 172.8 283.853 173.4 291.553C174.8 288.453 178.3 286.453 181.6 286.853C181.4 285.153 181.2 283.453 181 281.753" fill="white"/>
</g>
<mask id="mask5_17_1371" style="mask-type:luminance" maskUnits="userSpaceOnUse" x="169" y="243" width="79" height="141">
<path d="M247.699 284.553C247.299 282.553 244.499 282.853 244.499 282.853C235.099 283.453 233.799 298.253 233.799 298.253L230.399 308.353L229.299 293.053L229.399 273.353C229.399 273.353 232.299 254.553 230.999 251.553C229.699 248.553 227.099 248.653 227.099 248.653C221.599 247.253 221.299 255.153 221.299 255.153L216.699 271.353L214.799 288.853L213.199 288.053C213.199 288.053 212.499 269.553 212.799 269.253C213.099 268.953 214.999 256.453 214.999 256.453C214.999 256.453 215.999 254.153 217.299 251.153C218.599 248.153 217.299 245.853 217.299 245.853C215.099 241.353 210.399 243.453 209.499 245.853C208.499 248.253 205.699 253.053 205.699 253.053L200.399 267.553C200.599 270.853 198.699 287.053 198.699 287.053L196.799 286.153L193.699 276.653L195.999 266.953C195.999 266.953 201.099 261.353 200.199 258.053C199.399 254.753 194.999 255.753 194.999 255.753L186.399 266.153H183.899L177.899 273.753C176.299 278.653 175.399 283.753 175.399 288.953C175.399 292.353 175.799 295.753 176.499 299.053L177.899 305.453V347.053C177.899 347.053 173.799 353.753 173.799 354.353C173.799 354.653 172.099 359.853 169.699 366.453C180.099 372.553 188.999 377.253 195.299 379.753C198.299 380.953 201.299 382.053 204.299 383.153C208.099 372.453 212.499 361.053 214.999 358.353C219.899 353.053 229.399 342.953 229.399 342.953C229.399 342.953 240.199 325.553 241.499 319.853C242.499 315.153 245.099 306.553 245.999 303.553C246.199 302.853 246.299 302.153 246.199 301.453C246.099 299.853 245.999 296.853 245.999 294.153C245.899 290.353 248.199 286.553 247.699 284.553Z" fill="white"/>
</mask>
<g mask="url(#mask5_17_1371)">
<g opacity="0.5">
<path d="M189.4 296.653C189.3 297.953 189.2 299.153 189.1 300.453C189.5 299.353 191 299.053 191.9 299.753C191.7 298.953 192.2 298.153 192.5 297.453C192.8 296.653 192.9 295.653 192.1 295.253C191.2 294.853 190.4 295.853 189.9 296.653C189.9 296.353 189.8 296.053 189.8 295.753L189.4 296.653Z" fill="white"/>
<path d="M203.799 294.353C202.799 295.553 202.099 296.953 201.799 298.553C202.199 298.153 202.699 297.653 203.299 297.453C203.899 297.253 204.599 297.353 204.999 297.853C205.199 298.153 205.299 298.553 205.599 298.753C205.899 298.953 206.399 298.753 206.599 298.353C206.799 298.053 206.799 297.653 206.899 297.253C206.899 296.553 206.999 295.753 206.799 295.053C206.599 294.353 206.099 293.653 205.399 293.553C204.699 293.353 203.799 293.953 203.799 294.653V294.353Z" fill="white"/>
<path d="M217.7 297.853C216.6 299.353 215.9 301.053 215.6 302.853C216.3 302.753 217 302.253 217.5 301.853C218.1 301.353 218.7 300.953 219.5 300.853C220.2 300.753 221.1 301.353 221.1 302.053C221 301.253 221.1 300.353 221.2 299.553C221.3 298.753 221.3 297.853 221 297.053C220.7 296.253 219.9 295.553 219.1 295.653C218.3 295.653 217.5 296.653 217.9 297.453L217.7 297.853Z" fill="white"/>
<path d="M179.399 302.853C178.599 304.253 178.199 305.953 178.199 307.553C178.199 306.753 178.899 306.153 179.699 306.053C180.399 305.953 181.199 306.253 181.799 306.653C181.899 305.853 182.099 305.153 181.899 304.353C181.699 303.553 181.199 302.853 180.399 302.753C179.599 302.653 178.799 303.353 178.999 304.153C178.899 303.953 178.799 303.753 178.799 303.553L179.399 302.853Z" fill="white"/>
</g>
</g>
<path d="M169.6 366.453C172 359.953 173.7 354.653 173.7 354.353C173.7 353.753 177.8 347.053 177.8 347.053V305.453L176.4 299.053C175.7 295.753 175.3 292.353 175.3 288.953C175.3 283.853 176.1 278.653 177.8 273.753L183.8 266.153H186.3L195 255.753C195 255.753 199.3 254.753 200.2 258.053C201 261.353 196 266.953 196 266.953L193.7 276.653L196.8 286.153L198.7 287.053C198.7 287.053 200.6 270.853 200.4 267.553L205.7 253.053C205.7 253.053 208.6 248.253 209.5 245.853C210.5 243.453 215.1 241.353 217.3 245.853C217.3 245.853 218.6 248.153 217.3 251.153C216 254.153 215 256.453 215 256.453C215 256.453 213.1 268.953 212.8 269.253C212.5 269.553 213.2 288.053 213.2 288.053L214.8 288.853L216.7 271.353L221.3 255.153C221.3 255.153 221.6 247.253 227.1 248.653C227.1 248.653 229.7 248.553 231 251.553C232.3 254.553 229.4 273.353 229.4 273.353L229.3 293.053L230.4 308.353L233.8 298.253C233.8 298.253 235.1 283.453 244.5 282.853C244.5 282.853 247.3 282.553 247.7 284.553C248.1 286.553 245.9 290.353 245.9 294.153C245.9 296.853 246 299.853 246.1 301.453C246.1 302.153 246.1 302.853 245.9 303.553C245 306.553 242.5 315.153 241.4 319.853C240.1 325.653 229.3 342.953 229.3 342.953C229.3 342.953 219.8 353.153 214.9 358.353C212.4 361.053 208 372.453 204.2 383.153" stroke="#263238" stroke-miterlimit="10"/>
<path d="M198.5 288.653C199.1 290.653 198.5 292.853 197.1 294.353L198.5 288.653Z" fill="white"/>
<path d="M198.5 288.653C199.1 290.653 198.5 292.853 197.1 294.353" stroke="#263238" stroke-miterlimit="10"/>
<path d="M182.4 302.653C183.8 300.553 185.1 297.653 184.7 295.053C184 290.153 181.7 284.453 182.7 279.653C183.3 276.553 184 273.453 184.6 270.353" fill="white"/>
<path d="M182.4 302.653C183.8 300.553 185.1 297.653 184.7 295.053C184 290.153 181.7 284.453 182.7 279.653C183.3 276.553 184 273.453 184.6 270.353" stroke="#263238" stroke-miterlimit="10"/>
<path d="M222.199 256.253C223.799 255.853 225.599 255.853 227.199 256.253C227.199 255.753 227.199 255.353 227.299 254.853" stroke="#263238" stroke-miterlimit="10"/>
<path d="M209.1 250.053C210.1 250.753 211.4 250.853 212.5 250.253C213.5 249.653 214.2 248.553 214.2 247.353" stroke="#263238" stroke-miterlimit="10"/>
<path d="M245.3 284.753C242.5 285.353 240.4 288.253 240.7 291.053C241.5 291.253 242.3 291.553 243.2 291.753" stroke="#263238" stroke-miterlimit="10"/>
<path d="M213.099 285.953C213.199 287.653 212.999 291.653 213.099 293.353V285.953Z" fill="white"/>
<path d="M213.099 285.953C213.199 287.653 212.999 291.653 213.099 293.353" stroke="#263238" stroke-miterlimit="10"/>
<path d="M214.9 288.253C214.7 290.953 214.5 293.753 214.3 296.453C214.3 296.153 214.3 295.753 214.3 295.453" fill="white"/>
<path d="M214.9 288.253C214.7 290.953 214.5 293.753 214.3 296.453C214.3 296.153 214.3 295.753 214.3 295.453" stroke="#263238" stroke-miterlimit="10"/>
<path d="M230.2 311.453C230.9 314.453 230.6 317.753 229.3 320.553L230.2 311.453Z" fill="white"/>
<path d="M230.2 311.453C230.9 314.453 230.6 317.753 229.3 320.553" stroke="#263238" stroke-miterlimit="10"/>
<path d="M204.8 297.053C202.6 299.453 202.9 305.153 204.5 308.353" stroke="#263238" stroke-miterlimit="10"/>
<path d="M220.899 300.953C220.999 303.553 219.999 306.153 218.199 308.253" stroke="#263238" stroke-miterlimit="10"/>
<path d="M188.9 298.153C188.5 300.553 189.1 303.053 190.4 305.153" stroke="#263238" stroke-miterlimit="10"/>
<path d="M179.7 305.653C179.6 307.553 180.1 309.453 181.2 310.953" stroke="#263238" stroke-miterlimit="10"/>
<path d="M192.4 259.553C193.5 259.053 195 259.253 195.9 260.153C196.3 259.653 196.7 259.053 197.1 258.553" stroke="#263238" stroke-miterlimit="10"/>
<path d="M202.6 266.853C204.3 265.753 206.7 266.253 207.9 267.753" stroke="#263238" stroke-miterlimit="10"/>
<path d="M218.699 271.853C220.499 271.053 222.599 271.053 224.399 271.953" stroke="#263238" stroke-miterlimit="10"/>
<path d="M183 280.253C184 278.453 186.2 277.353 188.2 277.653" stroke="#263238" stroke-miterlimit="10"/>
<path d="M176.3 289.853C176.3 288.553 177.4 287.353 178.7 287.153" stroke="#263238" stroke-miterlimit="10"/>
<path d="M434 217.953C456.864 217.953 475.4 199.418 475.4 176.553C475.4 153.689 456.864 135.153 434 135.153C411.135 135.153 392.6 153.689 392.6 176.553C392.6 199.418 411.135 217.953 434 217.953Z" stroke="#263238" stroke-miterlimit="10" stroke-linecap="round" stroke-linejoin="round"/>
<path opacity="0.2" d="M480.899 177.653C472.099 192.153 468.899 190.153 438.799 204.653C423.499 211.953 408.699 188.453 418.699 164.253C419.199 163.053 423.499 157.153 423.499 157.153C425.299 149.153 431.999 142.453 439.999 140.553C447.999 138.653 456.899 141.653 462.099 148.053C467.799 143.053 475.999 141.153 483.299 142.953C483.699 143.953 483.999 144.953 484.299 145.953C484.399 146.353 484.499 146.753 484.699 147.053C485.099 148.253 485.399 149.353 485.799 150.553C486.499 152.753 487.099 155.053 487.599 157.353C484.299 156.453 480.899 156.453 477.799 157.953C475.599 159.053 473.699 160.853 471.399 161.653C469.099 162.553 465.899 162.053 464.999 159.753C466.099 164.353 470.999 162.953 475.599 163.953C482.799 165.253 484.599 171.553 480.899 177.653Z" fill="black"/>
<path d="M467.299 170.453C467.299 170.453 474.699 169.453 478.199 169.953C480.399 170.253 481.799 171.553 482.499 172.353C482.799 172.753 482.999 173.153 482.999 173.653L483.399 179.453C483.399 180.153 483.199 180.753 482.799 181.253C481.399 182.753 476.999 185.553 463.999 186.453C445.799 188.053 467.299 170.453 467.299 170.453Z" fill="white" stroke="#263238" stroke-miterlimit="10" stroke-linecap="round" stroke-linejoin="round"/>
<path d="M461.899 155.453C463.999 158.053 467.999 163.953 467.999 173.053C467.999 179.953 459.999 203.553 439.499 206.453C417.799 209.453 400.399 190.953 404.099 168.553C406.599 153.153 444.499 133.853 461.899 155.453Z" fill="white" stroke="#263238" stroke-miterlimit="10" stroke-linecap="round" stroke-linejoin="round"/>
<path d="M435.399 201.353C452.796 201.353 466.899 188.011 466.899 171.553C466.899 155.095 452.796 141.753 435.399 141.753C418.002 141.753 403.899 155.095 403.899 171.553C403.899 188.011 418.002 201.353 435.399 201.353Z" fill="white"/>
<path d="M435.299 197.653C449.548 197.653 461.099 186.684 461.099 173.153C461.099 159.622 449.548 148.653 435.299 148.653C421.05 148.653 409.499 159.622 409.499 173.153C409.499 186.684 421.05 197.653 435.299 197.653Z" fill="#263238"/>
<path d="M466.799 171.553C466.799 155.053 452.699 141.753 435.299 141.753C417.899 141.753 403.799 155.053 403.799 171.553" stroke="#263238" stroke-miterlimit="10" stroke-linecap="round" stroke-linejoin="round"/>
<path d="M458.499 191.753C463.699 186.453 466.799 179.353 466.799 171.553" stroke="#263238" stroke-miterlimit="10" stroke-linecap="round" stroke-linejoin="round"/>
<path d="M413.299 192.853C418.999 198.153 426.799 201.353 435.299 201.353C440.599 201.353 445.499 200.153 449.899 197.953" stroke="#263238" stroke-miterlimit="10" stroke-linecap="round" stroke-linejoin="round"/>
<path d="M408.799 187.553C409.199 188.153 409.599 188.753 410.099 189.353" stroke="#263238" stroke-miterlimit="10" stroke-linecap="round" stroke-linejoin="round"/>
<path d="M403.899 171.553C403.899 176.053 404.999 180.453 406.899 184.253" stroke="#263238" stroke-miterlimit="10" stroke-linecap="round" stroke-linejoin="round"/>
<path d="M481.499 179.753C481.499 179.753 475.899 175.853 466.799 179.353L481.499 179.753Z" fill="white"/>
<path d="M481.499 179.753C481.499 179.753 475.899 175.853 466.799 179.353" stroke="#263238" stroke-miterlimit="10" stroke-linecap="round" stroke-linejoin="round"/>
<path d="M476.7 182.453C474.6 183.053 471 183.853 465.1 184.253L476.7 182.453Z" fill="white"/>
<path d="M476.7 182.453C474.6 183.053 471 183.853 465.1 184.253" stroke="#263238" stroke-miterlimit="10" stroke-linecap="round" stroke-linejoin="round"/>
<path d="M479.599 181.153C479.599 181.153 479.299 181.453 478.199 181.853L479.599 181.153Z" fill="white"/>
<path d="M479.599 181.153C479.599 181.153 479.299 181.453 478.199 181.853" stroke="#263238" stroke-miterlimit="10" stroke-linecap="round" stroke-linejoin="round"/>
<path d="M484.599 146.953C484.499 146.553 484.399 146.153 484.199 145.853C482.299 139.953 479.799 133.453 476.799 126.553C476.199 125.253 475.699 123.953 475.099 122.653C474.899 122.653 474.699 122.653 474.399 122.753C471.499 123.053 468.499 123.453 466.199 125.053C463.799 126.753 462.399 130.153 463.999 132.553C465.499 134.953 469.399 136.353 468.799 139.153C462.399 142.753 454.599 142.353 447.399 144.153C443.099 145.253 438.999 147.153 435.499 149.753C434.399 150.653 433.299 151.553 432.299 152.453C431.899 152.853 431.399 153.353 430.999 153.853C430.399 154.653 429.999 155.453 429.899 156.353C429.699 159.053 432.099 160.853 434.699 162.053C435.199 162.253 435.099 162.953 434.699 163.153C432.999 163.853 431.399 164.653 429.999 165.853C429.199 166.553 429.899 167.953 430.999 167.853C431.099 167.853 431.299 167.853 431.399 167.853C432.499 167.753 433.499 167.953 434.399 168.253C435.899 168.753 436.999 169.853 437.099 171.153C437.299 173.153 434.999 175.053 431.999 175.253C431.299 175.353 431.799 176.153 432.899 176.353C434.999 176.753 437.199 176.353 439.299 175.853C441.799 175.253 444.499 174.353 445.899 172.253C446.499 171.353 446.699 170.153 446.499 169.053C446.299 167.553 445.299 166.253 443.799 166.153C448.399 165.553 452.999 164.653 457.499 163.353L458.899 162.953C460.199 162.553 461.699 162.053 462.799 161.253C463.499 160.753 464.099 160.153 464.499 159.353C465.499 157.353 464.099 154.153 461.899 154.553C468.399 152.053 475.199 150.553 481.699 148.253C482.599 147.853 483.599 147.453 484.599 146.953Z" fill="white"/>
<path opacity="0.2" d="M435.2 60.4532C429.2 65.8532 422.3 70.3532 415.3 74.4532C378.9 95.9532 337.8 108.853 295.9 115.153C254.1 121.453 211.5 121.253 169.3 117.753C161 117.053 152.6 116.253 145 112.853C138.5 110.053 132.7 105.053 130 98.6532C139.1 88.2532 147.6 77.7532 157.1 67.8532C159.4 65.4532 161.6 63.1532 164 60.8532C166 58.9532 168 57.0532 170.1 55.2532C172.5 53.1532 175 51.0532 177.6 49.0532C181.2 46.2532 184.9 43.6532 188.9 41.1532C189.9 40.5532 190.8 39.9532 191.8 39.3532C291.5 -22.6468 364.9 -2.34682 413.9 39.3532C417.6 42.4532 421.1 45.7532 424.6 49.1532C426.7 51.1532 428.7 53.2532 430.6 55.3532C430.8 55.5532 431 55.8532 431.2 56.0532C432.5 57.5532 433.9 58.9532 435.2 60.4532Z" fill="black"/>
<path d="M439.1 50.5532L103.6 52.0532L108.7 44.4532C111.1 40.7532 115.2 38.5532 119.6 38.5532H423.2C427.2 38.5532 430.9 40.3532 433.4 43.4532L439.1 50.5532Z" fill="white" stroke="#263238" stroke-miterlimit="10" stroke-linecap="round" stroke-linejoin="round"/>
<path d="M277.2 187.553H258.8C239.9 187.553 224.6 172.253 224.6 153.353V134.953C224.6 116.053 239.9 100.753 258.8 100.753H277.2C296.1 100.753 311.4 116.053 311.4 134.953V153.353C311.4 172.253 296.1 187.553 277.2 187.553Z" fill="#757575" stroke="#263238" stroke-miterlimit="10" stroke-linecap="round" stroke-linejoin="round"/>
<path d="M240.499 151.453V163.753C240.499 167.653 243.599 170.753 247.499 170.753H289.799C293.599 170.753 296.799 167.653 296.799 163.753C296.899 158.253 297.099 151.353 297.099 151.353H240.499V151.453Z" fill="#999999" stroke="#263238" stroke-miterlimit="10" stroke-linecap="round" stroke-linejoin="round"/>
<path d="M395.2 155.553H148C145.4 155.553 143 153.953 142.1 151.553L103.9 53.7532C102.9 51.1532 104.8 48.4532 107.5 48.4532H435.5C438.2 48.4532 440.1 51.2532 439.1 53.7532L401 151.653C400.1 153.953 397.8 155.553 395.2 155.553Z" fill="#BFBFBF" stroke="#263238" stroke-miterlimit="10" stroke-linecap="round" stroke-linejoin="round"/>
<path d="M397 147.053H145.5L110.9 54.5532H431.4L397 147.053Z" fill="#263238"/>
<path d="M296.8 155.453H240.7V159.253H296.8V155.453Z" fill="#263238"/>
<path d="M360.3 143.053H182.7C181.7 143.053 180.8 142.653 180.6 142.053L155.3 61.8532C155 60.9532 155.8 60.2532 157.1 60.2532H385.8C387.1 60.2532 387.8 60.9532 387.6 61.8532L362.3 142.153C362.2 142.653 361.2 143.053 360.3 143.053Z" fill="#0091BF"/>
<path d="M359.6 141.253H183.3L161.9 70.7532H381.1L359.6 141.253Z" fill="#263238"/>
<path d="M208.599 88.2532H175.199C174.399 88.2532 173.799 88.6532 173.999 89.2532C174.199 89.7532 174.899 90.2532 175.799 90.2532H208.999C209.799 90.2532 210.399 89.8532 210.299 89.2532C210.199 88.7532 209.499 88.2532 208.599 88.2532Z" fill="white"/>
<path d="M209.799 94.3532H181.4C180.6 94.3532 180.1 94.7532 180.2 95.3532C180.3 95.8532 181.1 96.3532 181.9 96.3532H210.1C210.9 96.3532 211.5 95.9532 211.4 95.3532C211.3 94.7532 210.599 94.3532 209.799 94.3532Z" fill="white"/>
<path opacity="0.5" d="M210.799 100.253H178.599C177.799 100.253 177.299 100.653 177.399 101.153C177.499 101.653 178.299 102.053 179.099 102.053H211.099C211.899 102.053 212.499 101.653 212.399 101.153C212.299 100.653 211.599 100.253 210.799 100.253Z" fill="white"/>
<path d="M211.899 105.953H192.999C192.199 105.953 191.699 106.353 191.799 106.853C191.899 107.353 192.599 107.753 193.399 107.753H212.199C212.999 107.753 213.499 107.353 213.399 106.853C213.399 106.353 212.699 105.953 211.899 105.953Z" fill="white"/>
<path d="M212.899 111.453H181.799C180.999 111.453 180.499 111.853 180.699 112.353C180.799 112.853 181.599 113.253 182.299 113.253H213.199C213.999 113.253 214.499 112.853 214.399 112.353C214.299 111.753 213.599 111.453 212.899 111.453Z" fill="white"/>
<path d="M213.899 116.753H188.799C187.999 116.753 187.499 117.153 187.699 117.553C187.799 118.053 188.499 118.353 189.299 118.353H214.299C215.099 118.353 215.599 117.953 215.499 117.553C215.299 117.053 214.599 116.753 213.899 116.753Z" fill="white"/>
<path d="M214.799 121.853H190.099C189.399 121.853 188.899 122.253 188.999 122.653C189.099 123.053 189.799 123.453 190.599 123.453H215.199C215.899 123.453 216.499 123.053 216.399 122.653C216.199 122.253 215.499 121.853 214.799 121.853Z" fill="white"/>
<path d="M215.699 126.853H188.699C187.999 126.853 187.499 127.253 187.599 127.653C187.699 128.053 188.399 128.453 189.099 128.453H215.899C216.599 128.453 217.199 128.153 217.099 127.653C217.099 127.153 216.399 126.853 215.699 126.853Z" fill="white"/>
<path opacity="0.5" d="M216.599 131.653H199.199C198.499 131.653 197.999 131.953 198.099 132.453C198.199 132.853 198.899 133.253 199.599 133.253H216.899C217.599 133.253 218.099 132.953 218.099 132.453C217.999 131.953 217.299 131.653 216.599 131.653Z" fill="white"/>
<path opacity="0.5" d="M207.499 81.9532H182.599C181.799 81.9532 181.199 82.4532 181.299 82.9532C181.399 83.5532 182.199 83.9532 183.099 83.9532H207.799C208.599 83.9532 209.199 83.4532 209.099 82.9532C209.099 82.4532 208.299 81.9532 207.499 81.9532Z" fill="white"/>
<path d="M206.299 75.4532H171.699C170.799 75.4532 170.299 75.9532 170.499 76.5532C170.699 77.1532 171.499 77.6532 172.299 77.6532H206.699C207.499 77.6532 208.199 77.1532 207.999 76.5532C207.899 75.8532 207.099 75.4532 206.299 75.4532Z" fill="white"/>
<path d="M217.399 136.253H188.699C187.999 136.253 187.499 136.553 187.599 136.953C187.699 137.353 188.399 137.653 189.099 137.653H217.699C218.399 137.653 218.899 137.353 218.799 136.953C218.799 136.653 218.099 136.253 217.399 136.253Z" fill="white"/>
<path opacity="0.5" d="M220.399 90.4532H226.799L226.499 88.0532H219.999L220.399 90.4532Z" fill="white"/>
<path opacity="0.5" d="M221.299 96.5532H227.599L227.299 94.1532H220.899L221.299 96.5532Z" fill="white"/>
<path opacity="0.5" d="M222.099 102.353H228.399L228.099 100.053H221.799L222.099 102.353Z" fill="white"/>
<path opacity="0.5" d="M222.999 107.953H229.099L228.799 105.653H222.599L222.999 107.953Z" fill="white"/>
<path opacity="0.5" d="M223.799 113.353H229.799L229.499 111.153H223.499L223.799 113.353Z" fill="white"/>
<path opacity="0.5" d="M224.599 118.553H230.499L230.199 116.553H224.299L224.599 118.553Z" fill="white"/>
<path opacity="0.5" d="M225.299 123.653H231.199L230.899 121.653H224.999L225.299 123.653Z" fill="white"/>
<path opacity="0.5" d="M226.099 128.553H231.799L231.599 126.653H225.799L226.099 128.553Z" fill="white"/>
<path opacity="0.5" d="M226.799 133.353H232.399L232.199 131.453H226.499L226.799 133.353Z" fill="white"/>
<path opacity="0.5" d="M219.399 84.2532H225.999L225.699 81.6532H218.999L219.399 84.2532Z" fill="white"/>
<path opacity="0.5" d="M218.399 77.7532H225.199L224.799 75.1532H217.999L218.399 77.7532Z" fill="white"/>
<path opacity="0.5" d="M227.5 137.953H233.1L232.8 136.053H227.2L227.5 137.953Z" fill="white"/>
<path d="M261.599 127.553C261.599 127.153 262.199 126.753 262.899 126.753H358.699C359.399 126.753 359.899 127.153 359.799 127.553C359.699 127.953 358.999 128.353 358.299 128.353H262.999C262.199 128.353 261.599 128.053 261.599 127.553Z" fill="white"/>
<path d="M359.699 123.453H306.599C305.899 123.453 305.299 123.053 305.299 122.653C305.299 122.253 305.999 121.853 306.699 121.853H359.999C360.699 121.853 361.199 122.253 361.099 122.653C361.099 123.053 360.399 123.453 359.699 123.453Z" fill="white"/>
<path opacity="0.5" d="M294 123.453H277.5C276.8 123.453 276.2 123.053 276.2 122.653C276.2 122.253 276.8 121.853 277.6 121.853H294.2C294.9 121.853 295.5 122.253 295.5 122.653C295.4 123.053 294.8 123.453 294 123.453Z" fill="white"/>
<path d="M328.499 118.353H253.699C252.899 118.353 252.299 117.953 252.299 117.553C252.299 117.053 252.899 116.753 253.599 116.753H328.799C329.599 116.753 330.099 117.153 329.999 117.553C329.899 118.053 329.199 118.353 328.499 118.353Z" fill="white"/>
<path opacity="0.5" d="M237.999 116.753H243.299C244.099 116.753 244.699 117.153 244.699 117.553C244.699 118.053 244.199 118.353 243.399 118.353H238.099C237.299 118.353 236.699 117.953 236.599 117.553C236.599 117.053 237.199 116.753 237.999 116.753Z" fill="white"/>
<path d="M339.299 112.253C339.199 112.753 338.499 113.153 337.699 113.153H267.199C266.399 113.153 265.799 112.753 265.799 112.253C265.799 111.753 266.399 111.353 267.199 111.353H338.099C338.799 111.453 339.399 111.753 339.299 112.253Z" fill="white"/>
<path d="M237.399 111.453H257.399C258.199 111.453 258.799 111.853 258.799 112.353C258.799 112.853 258.199 113.253 257.499 113.253H237.599C236.799 113.253 236.199 112.853 236.099 112.353C236.099 111.753 236.599 111.453 237.399 111.453Z" fill="white"/>
<path d="M236.799 105.953H313.699C314.499 105.953 315.099 106.353 314.999 106.853C314.899 107.353 314.299 107.753 313.499 107.753H236.999C236.199 107.753 235.499 107.353 235.499 106.853C235.499 106.353 235.999 105.953 236.799 105.953Z" fill="white"/>
<path d="M286.799 102.053C285.999 102.053 285.399 101.653 285.399 101.153C285.399 100.653 286.099 100.253 286.899 100.253H327.499C328.299 100.253 328.899 100.653 328.799 101.153C328.699 101.653 327.999 102.053 327.199 102.053H286.799Z" fill="white"/>
<path d="M236.199 100.253H271.399C272.199 100.253 272.799 100.653 272.799 101.153C272.799 101.653 272.199 102.053 271.399 102.053H236.399C235.599 102.053 234.899 101.653 234.899 101.153C234.799 100.653 235.399 100.253 236.199 100.253Z" fill="white"/>
<path d="M367.499 96.2532H270.799C269.999 96.2532 269.299 95.8532 269.299 95.2532C269.299 94.7532 269.899 94.2532 270.799 94.2532H368.099C368.899 94.2532 369.399 94.6532 369.299 95.2532C368.999 95.8532 368.299 96.2532 367.499 96.2532Z" fill="white"/>
<path d="M369.199 90.2532H284.099C283.299 90.2532 282.599 89.8532 282.599 89.2532C282.599 88.7532 283.299 88.2532 284.099 88.2532H369.699C370.499 88.2532 371.099 88.6532 370.899 89.2532C370.799 89.8532 369.999 90.2532 369.199 90.2532Z" fill="white"/>
<path opacity="0.5" d="M370.999 84.0532H353.199C352.399 84.0532 351.799 83.5532 351.899 83.0532C351.999 82.4532 352.799 82.0532 353.699 82.0532H371.599C372.399 82.0532 372.999 82.5532 372.799 83.0532C372.599 83.5532 371.799 84.0532 370.999 84.0532Z" fill="white"/>
<path d="M340.699 84.0532H275.299C274.499 84.0532 273.799 83.5532 273.799 83.0532C273.799 82.4532 274.499 82.0532 275.299 82.0532H341.099C341.899 82.0532 342.499 82.5532 342.399 83.0532C342.299 83.5532 341.499 84.0532 340.699 84.0532Z" fill="white"/>
<path d="M239.599 131.653H299.999C300.699 131.653 301.299 131.953 301.199 132.453C301.199 132.853 300.499 133.253 299.799 133.253H239.699C238.999 133.253 238.399 132.953 238.299 132.453C238.299 131.953 238.799 131.653 239.599 131.653Z" fill="white"/>
<path d="M240.099 136.253H332.899C333.599 136.253 334.099 136.553 333.999 136.953C333.899 137.353 333.299 137.653 332.599 137.653H240.199C239.499 137.653 238.899 137.353 238.799 136.953C238.799 136.653 239.399 136.253 240.099 136.253Z" fill="white"/>
<path d="M337.5 77.5532H290.2C289.4 77.5532 288.7 77.0532 288.7 76.4532C288.7 75.8532 289.4 75.3532 290.3 75.3532H337.8C338.7 75.3532 339.3 75.8532 339.1 76.4532C339.1 77.0532 338.3 77.5532 337.5 77.5532Z" fill="white"/>
<path opacity="0.5" d="M276.799 77.5532H233.799C232.999 77.5532 232.199 77.0532 232.099 76.4532C231.999 75.8532 232.699 75.3532 233.499 75.3532H276.699C277.599 75.3532 278.199 75.8532 278.199 76.4532C278.299 77.0532 277.599 77.5532 276.799 77.5532Z" fill="white"/>
<path opacity="0.5" d="M313.399 131.653C314.099 131.653 314.699 131.953 314.599 132.453C314.499 132.853 313.899 133.253 313.199 133.253H308.499C307.799 133.253 307.199 132.953 307.299 132.453C307.399 132.053 307.999 131.653 308.699 131.653H313.399Z" fill="white"/>
<path opacity="0.5" d="M256.099 127.553C256.099 127.953 255.499 128.353 254.799 128.353H248.399C247.699 128.353 247.099 128.053 246.999 127.553C246.999 127.153 247.499 126.753 248.299 126.753H254.699C255.399 126.853 256.099 127.153 256.099 127.553Z" fill="white"/>
<path opacity="0.5" d="M332.799 106.853C332.699 107.353 331.999 107.753 331.199 107.753H323.799C322.999 107.753 322.499 107.353 322.499 106.853C322.599 106.353 323.299 105.953 324.099 105.953H331.599C332.399 105.953 332.899 106.353 332.799 106.853Z" fill="white"/>
<path opacity="0.5" d="M355.999 111.453C356.799 111.453 357.299 111.853 357.199 112.353C357.099 112.853 356.299 113.253 355.599 113.253H349.699C348.899 113.253 348.399 112.853 348.499 112.353C348.599 111.853 349.299 111.453 350.099 111.453H355.999Z" fill="white"/>
<path opacity="0.5" d="M259.099 96.2532C258.299 96.2532 257.599 95.8532 257.599 95.2532C257.599 94.7532 258.199 94.2532 258.999 94.2532H265.299C266.099 94.2532 266.799 94.6532 266.799 95.2532C266.799 95.7532 266.199 96.2532 265.399 96.2532H259.099Z" fill="white"/>
<path d="M173.1 65.4532C173.6 67.0532 172.6 68.4532 171 68.4532C169.4 68.4532 167.6 67.1532 167.1 65.4532C166.6 63.7532 167.5 62.4532 169.2 62.4532C170.8 62.4532 172.6 63.8532 173.1 65.4532Z" fill="white"/>
<path d="M181.3 65.5532C181.7 67.1532 180.7 68.4532 179.1 68.4532C177.5 68.4532 175.7 67.1532 175.3 65.5532C174.8 63.8532 175.8 62.5532 177.5 62.5532C179.1 62.5532 180.8 63.8532 181.3 65.5532Z" fill="white"/>
<path d="M189.499 65.4532C189.899 67.0532 188.899 68.4532 187.199 68.4532C185.499 68.4532 183.899 67.1532 183.499 65.4532C183.099 63.7532 184.099 62.4532 185.799 62.4532C187.399 62.4532 189.099 63.8532 189.499 65.4532Z" fill="white"/>
<path opacity="0.1" d="M110.9 54.5532L137.9 126.653L170.4 54.5532H110.9Z" fill="white"/>
<path opacity="0.1" d="M156.4 147.053L210.3 54.5532H266.8L187.4 147.053H156.4Z" fill="white"/>
<path opacity="0.1" d="M291.099 54.1532L206.999 147.053H219.999L307.099 54.5532L291.099 54.1532Z" fill="white"/>
<path opacity="0.1" d="M307.7 147.053L400.1 54.5532H413.1L317.9 147.053H307.7Z" fill="white"/>
<path d="M182.4 187.253H161.3C158.6 187.253 156.3 189.453 156.3 192.253V202.553C156.3 205.253 158.5 207.553 161.3 207.553H166.8L171 217.053L176.9 207.553H182.4C185.1 207.553 187.4 205.353 187.4 202.553V192.153C187.4 189.453 185.2 187.253 182.4 187.253Z" fill="white" stroke="#263238" stroke-miterlimit="10" stroke-linecap="round" stroke-linejoin="round"/>
<path d="M169 193.053C169 192.553 169.4 192.053 170 192.053C170.6 192.053 171 192.453 171 192.953C171 193.553 170.6 193.953 170 193.953C169.4 194.053 169 193.653 169 193.053ZM169.2 195.153H170.8V202.053H169.2V195.153Z" fill="#263238"/>
<path d="M174.7 194.853V195.253H176.6V196.553H174.8V202.053H173.2V196.553H172.1V195.253H173.2V194.853C173.2 193.453 174.1 192.453 175.7 192.453C176.3 192.453 176.8 192.553 177.2 192.853L176.8 194.053C176.6 193.853 176.2 193.753 175.9 193.753C175 193.753 174.7 194.053 174.7 194.853Z" fill="#263238"/>
<path d="M246.7 188.653H225.6C222.9 188.653 220.6 190.853 220.6 193.653V203.953C220.6 206.653 222.8 208.953 225.6 208.953H231.1L235.3 218.453L241.2 208.953H246.7C249.4 208.953 251.7 206.753 251.7 203.953V193.653C251.6 190.853 249.4 188.653 246.7 188.653Z" fill="white" stroke="#263238" stroke-miterlimit="10" stroke-linecap="round" stroke-linejoin="round"/>
<path d="M230 200.553H224.6C224.8 201.553 225.6 202.153 226.8 202.153C227.6 202.153 228.2 201.953 228.7 201.453L229.6 202.453C229 203.153 228 203.553 226.8 203.553C224.5 203.553 223 202.053 223 200.053C223 198.053 224.5 196.553 226.5 196.553C228.5 196.553 230 197.953 230 200.053C230 200.253 230 200.453 230 200.553ZM224.6 199.453H228.5C228.4 198.453 227.6 197.753 226.6 197.753C225.5 197.853 224.8 198.453 224.6 199.453Z" fill="#263238"/>
<path d="M231.6 193.953H233.2V203.453H231.6V193.953Z" fill="#263238"/>
<path d="M234.5 202.753L235.1 201.553C235.7 201.953 236.6 202.253 237.5 202.253C238.5 202.253 238.9 201.953 238.9 201.453C238.9 200.153 234.7 201.353 234.7 198.653C234.7 197.353 235.9 196.553 237.7 196.553C238.6 196.553 239.7 196.753 240.3 197.153L239.7 198.353C239 197.953 238.4 197.853 237.7 197.853C236.7 197.853 236.3 198.153 236.3 198.653C236.3 200.053 240.5 198.853 240.5 201.453C240.5 202.753 239.3 203.553 237.4 203.553C236.2 203.553 235.1 203.253 234.5 202.753Z" fill="#263238"/>
<path d="M248.3 200.553H242.9C243.1 201.553 243.9 202.153 245.1 202.153C245.9 202.153 246.5 201.953 247 201.453L247.9 202.453C247.3 203.153 246.3 203.553 245.1 203.553C242.8 203.553 241.3 202.053 241.3 200.053C241.3 198.053 242.8 196.553 244.8 196.553C246.8 196.553 248.3 197.953 248.3 200.053C248.3 200.253 248.3 200.453 248.3 200.553ZM242.9 199.453H246.8C246.7 198.453 245.9 197.753 244.9 197.753C243.8 197.853 243.1 198.453 242.9 199.453Z" fill="#263238"/>
<path d="M308.9 188.053H287.8C285.1 188.053 282.8 190.253 282.8 193.053V203.353C282.8 206.053 285 208.353 287.8 208.353H293.3L297.5 217.853L303.4 208.353H308.9C311.6 208.353 313.9 206.153 313.9 203.353V193.053C313.9 190.253 311.7 188.053 308.9 188.053Z" fill="white" stroke="#263238" stroke-miterlimit="10" stroke-linecap="round" stroke-linejoin="round"/>
<path d="M292.7 195.653V196.053H294.6V197.353H292.8V202.853H291.2V197.353H290.1V196.053H291.2V195.653C291.2 194.253 292.1 193.253 293.7 193.253C294.3 193.253 294.8 193.353 295.2 193.653L294.7 194.853C294.5 194.653 294.1 194.553 293.8 194.553C293 194.553 292.7 194.953 292.7 195.653Z" fill="#263238"/>
<path d="M295 199.453C295 197.353 296.5 195.953 298.6 195.953C300.7 195.953 302.3 197.453 302.3 199.453C302.3 201.553 300.8 202.953 298.6 202.953C296.5 202.953 295 201.453 295 199.453ZM300.6 199.453C300.6 198.153 299.7 197.353 298.6 197.353C297.4 197.353 296.6 198.153 296.6 199.453C296.6 200.753 297.5 201.553 298.6 201.553C299.8 201.553 300.6 200.753 300.6 199.453Z" fill="#263238"/>
<path d="M307.8 195.953V197.453C307.7 197.453 307.5 197.453 307.4 197.453C306.2 197.453 305.4 198.153 305.4 199.553V202.853H303.8V195.953H305.3V196.953C305.8 196.253 306.6 195.953 307.8 195.953Z" fill="#263238"/>
<path d="M370.3 187.253H349.2C346.5 187.253 344.2 189.453 344.2 192.253V202.553C344.2 205.253 346.4 207.553 349.2 207.553H354.7L358.9 217.053L364.8 207.553H370.3C373 207.553 375.3 205.353 375.3 202.553V192.153C375.2 189.453 373 187.253 370.3 187.253Z" fill="white" stroke="#263238" stroke-miterlimit="10" stroke-linecap="round" stroke-linejoin="round"/>
<path d="M357 194.853H362.9V196.153H357V194.853ZM357 197.953H362.9V199.253H357V197.953Z" fill="#263238"/>
<path d="M214.6 175.353H193.5C190.8 175.353 188.5 177.553 188.5 180.353V190.653C188.5 193.353 190.7 195.653 193.5 195.653H199L203.2 205.153L209.1 195.653H214.6C217.3 195.653 219.6 193.453 219.6 190.653V180.353C219.6 177.553 217.3 175.353 214.6 175.353Z" fill="white" stroke="#263238" stroke-miterlimit="10" stroke-linecap="round" stroke-linejoin="round"/>
<path d="M199.1 179.553H202.2V180.853H200.7V190.353H202.2V191.653H199.1V179.553Z" fill="#263238"/>
<path d="M206.1 191.653V190.353H207.6V180.853H206.1V179.553H209.2V191.553H206.1V191.653Z" fill="#263238"/>
<path d="M277.3 174.253H256.2C253.5 174.253 251.2 176.453 251.2 179.253V189.553C251.2 192.253 253.4 194.553 256.2 194.553H261.7L265.9 204.053L271.8 194.553H277.3C280 194.553 282.3 192.353 282.3 189.553V179.253C282.3 176.553 280.1 174.253 277.3 174.253Z" fill="white" stroke="#263238" stroke-miterlimit="10" stroke-linecap="round" stroke-linejoin="round"/>
<path d="M262.5 184.553C263 184.753 263.3 185.053 263.3 185.853V188.253C263.3 188.853 263.6 189.253 264.3 189.253H264.6V190.553H264C262.5 190.553 261.8 189.853 261.8 188.453V185.853C261.8 185.453 261.6 185.253 261.2 185.253H260.8V183.953H261.2C261.6 183.953 261.8 183.753 261.8 183.353V180.753C261.8 179.353 262.5 178.653 264 178.653H264.6V179.953H264.3C263.7 179.953 263.3 180.353 263.3 180.953V183.353C263.2 184.053 263 184.353 262.5 184.553Z" fill="#263238"/>
<path d="M272.3 183.853V185.153H271.9C271.6 185.153 271.3 185.353 271.3 185.753V188.353C271.3 189.753 270.6 190.453 269.1 190.453H268.4V189.153H268.7C269.4 189.153 269.7 188.753 269.7 188.153V185.753C269.7 184.953 269.9 184.653 270.4 184.453C269.9 184.253 269.7 183.953 269.7 183.153V180.753C269.7 180.153 269.4 179.753 268.7 179.753H268.4V178.453H269C270.5 178.453 271.2 179.153 271.2 180.553V183.153C271.2 183.553 271.4 183.753 271.8 183.753H272.3V183.853Z" fill="#263238"/>
<path d="M339.4 172.253H318.3C315.6 172.253 313.3 174.453 313.3 177.253V187.553C313.3 190.253 315.5 192.553 318.3 192.553H323.8L328 202.053L333.9 192.553H339.4C342.1 192.553 344.4 190.353 344.4 187.553V177.153C344.3 174.453 342.1 172.253 339.4 172.253Z" fill="white" stroke="#263238" stroke-miterlimit="10" stroke-linecap="round" stroke-linejoin="round"/>
<path d="M328 179.853C328 179.253 328.5 178.753 329.1 178.753C329.7 178.753 330.2 179.153 330.2 179.853C330.2 180.453 329.7 180.953 329.1 180.953C328.5 180.853 328 180.453 328 179.853ZM330.1 184.653C330.1 184.953 330 185.153 329.8 185.753L329.1 187.553H328.1L328.6 185.553C328.2 185.353 328 185.053 328 184.553C328 183.953 328.4 183.453 329 183.453C329.7 183.653 330.1 184.053 330.1 184.653Z" fill="#263238"/>
<path d="M256.9 351.653H278C280.7 351.653 283 349.453 283 346.653V336.353C283 333.653 280.8 331.353 278 331.353H272.5L270.9 321.853L262.4 331.353H256.9C254.2 331.353 251.9 333.553 251.9 336.353V346.653C251.9 349.453 254.2 351.653 256.9 351.653Z" fill="white" stroke="#263238" stroke-miterlimit="10" stroke-linecap="round" stroke-linejoin="round"/>
<path d="M264.3 339.453L259.9 341.153L264.3 342.853V344.153L258.4 341.853V340.453L264.3 338.153V339.453Z" fill="#263238"/>
<path d="M269 334.753H270.4L266.2 346.853H264.8L269 334.753Z" fill="#263238"/>
<path d="M276.7 340.453V341.853L270.8 344.153V342.853L275.2 341.153L270.8 339.453V338.153L276.7 340.453Z" fill="#263238"/>
<path d="M122.8 276.853H143.9C146.6 276.853 148.9 274.653 148.9 271.853V261.553C148.9 258.853 146.7 256.553 143.9 256.553H138.4L139.6 247.053L128.3 256.553H122.8C120.1 256.553 117.8 258.753 117.8 261.553V271.853C117.8 274.653 120 276.853 122.8 276.853Z" fill="white" stroke="#263238" stroke-miterlimit="10" stroke-linecap="round" stroke-linejoin="round"/>
<path d="M129 270.353C129 269.753 129.4 269.353 130 269.353C130.6 269.353 131 269.753 131 270.353C131 270.953 130.6 271.353 130 271.353C129.5 271.353 129 270.953 129 270.353ZM129.1 262.353H131L130.7 268.353H129.4L129.1 262.353Z" fill="#263238"/>
<path d="M132.7 264.653H138.6V265.953H132.7V264.653ZM132.7 267.753H138.6V269.053H132.7V267.753Z" fill="#263238"/>
<path d="M460.6 265.253C460.6 269.353 460.3 273.353 459.6 277.153C456.7 294.453 447.6 307.053 436.8 307.053C435.8 307.053 434.9 306.953 433.9 306.753C422.2 304.253 413 286.653 413 265.253C413 242.153 423.6 234.053 436.7 234.053C449.9 234.053 460.6 242.153 460.6 265.253Z" fill="white"/>
<mask id="mask6_17_1371" style="mask-type:luminance" maskUnits="userSpaceOnUse" x="413" y="234" width="48" height="74">
<path d="M460.6 265.253C460.6 269.353 460.3 273.353 459.6 277.153C456.7 294.453 447.6 307.053 436.8 307.053C435.8 307.053 434.9 306.953 433.9 306.753C422.2 304.253 413 286.653 413 265.253C413 242.153 423.6 234.053 436.7 234.053C449.9 234.053 460.6 242.153 460.6 265.253Z" fill="white"/>
</mask>
<g mask="url(#mask6_17_1371)">
<path d="M452 265.553C452.9 277.953 450.8 290.353 447.2 302.253C456.1 294.953 460.3 283.353 464 272.453C466.7 264.453 469.4 256.353 468.9 247.953C468.4 239.553 463.9 230.853 456.1 227.953C452.3 226.553 447.8 226.653 444 228.153C437.4 230.753 441 232.953 443.8 237.653C448.6 246.053 451.3 255.753 452 265.553Z" fill="#0091BF"/>
<path opacity="0.5" d="M452 265.553C452.9 277.953 450.8 290.353 447.2 302.253C456.1 294.953 460.3 283.353 464 272.453C466.7 264.453 469.4 256.353 468.9 247.953C468.4 239.553 463.9 230.853 456.1 227.953C452.3 226.553 447.8 226.653 444 228.153C437.4 230.753 441 232.953 443.8 237.653C448.6 246.053 451.3 255.753 452 265.553Z" fill="white"/>
</g>
<path d="M460.6 265.253C460.6 269.353 460.3 273.353 459.6 277.153C456.7 294.453 447.6 307.053 436.8 307.053C435.8 307.053 434.9 306.953 433.9 306.753C422.2 304.253 413 286.653 413 265.253C413 242.153 423.6 234.053 436.7 234.053C449.9 234.053 460.6 242.153 460.6 265.253Z" stroke="#263238" stroke-miterlimit="10"/>
<path d="M449.6 286.453C448 291.753 445.4 296.753 441.8 301.053L449.6 286.453Z" fill="white"/>
<path d="M449.6 286.453C448 291.753 445.4 296.753 441.8 301.053" stroke="#263238" stroke-miterlimit="10"/>
<path d="M450.3 283.553C450.2 284.153 450 284.653 449.9 285.253" stroke="#263238" stroke-miterlimit="10"/>
<path d="M450.3 265.253C451.6 270.553 451.7 276.153 450.8 281.553L450.3 265.253Z" fill="white"/>
<path d="M450.3 265.253C451.6 270.553 451.7 276.153 450.8 281.553" stroke="#263238" stroke-miterlimit="10"/>
<path d="M413.1 265.253C413.1 265.253 440.1 254.553 460.6 265.253" stroke="#263238" stroke-miterlimit="10"/>
<path d="M436.8 234.053C436.8 234.053 439.5 244.053 439.8 260.353L436.8 234.053Z" fill="white"/>
<path d="M436.8 234.053C436.8 234.053 439.5 244.053 439.8 260.353" stroke="#263238" stroke-miterlimit="10"/>
<path d="M440.6 246.153C440.9 249.253 440.4 251.953 439.4 252.053C438.4 252.253 437.3 249.853 436.9 246.753C436.6 243.653 437.1 240.953 438.1 240.853C439.2 240.653 440.3 243.053 440.6 246.153Z" fill="#BFBFBF" stroke="#263238" stroke-miterlimit="10" stroke-linecap="round" stroke-linejoin="round"/>
<path d="M426.2 315.053H394.6C390.7 315.053 387.4 312.153 386.9 308.353C386.8 308.053 386.8 307.653 386.8 307.253V232.653C386.8 232.253 386.8 231.953 386.9 231.553C387.4 227.753 390.7 224.853 394.6 224.853H484.3C485.7 224.853 486.9 225.253 488 225.853" stroke="#263238" stroke-miterlimit="10"/>
</svg>
